<?xml version="1.0" encoding="UTF-8"?>
<svg id="Layer_1" data-name="Layer 1" xmlns="http://www.w3.org/2000/svg" viewBox="0 0 906.52 227.2">
  <defs>
    <style>
      .cls-1 {
        fill: #fe6565;
      }

      .cls-2 {
        fill: #fe479c;
      }

      .cls-3 {
        fill: #fe49a3;
      }

      .cls-4 {
        fill: #feb548;
      }

      .cls-5 {
        fill: #fe47a3;
      }

      .cls-6 {
        fill: #fe52b2;
      }

      .cls-7 {
        fill: #fece37;
      }

      .cls-8 {
        fill: #fe379d;
      }

      .cls-9 {
        fill: #fe55a9;
      }

      .cls-10 {
        fill: #fe55a7;
      }

      .cls-11 {
        fill: #fe6f65;
      }

      .cls-12 {
        fill: #fe45a8;
      }

      .cls-13 {
        fill: #feb355;
      }

      .cls-14 {
        fill: #fe8851;
      }

      .cls-15 {
        fill: #fec651;
      }

      .cls-16 {
        fill: #fe7271;
      }

      .cls-17 {
        fill: #fea64e;
      }

      .cls-18 {
        fill: #fece3a;
      }

      .cls-19 {
        fill: #fe43a3;
      }

      .cls-20 {
        fill: #feaa44;
      }

      .cls-21 {
        fill: #fe45af;
      }

      .cls-22 {
        fill: #feb155;
      }

      .cls-23 {
        fill: #fe8466;
      }

      .cls-24 {
        fill: #fe4bae;
      }

      .cls-25 {
        fill: #fe6562;
      }

      .cls-26 {
        fill: #fe6f74;
      }

      .cls-27 {
        fill: #fe6e5d;
      }

      .cls-28 {
        fill: #fea957;
      }

      .cls-29 {
        fill: #fe8167;
      }

      .cls-30 {
        fill: #fe4cad;
      }

      .cls-31 {
        fill: #feb655;
      }

      .cls-32 {
        fill: #fda140;
      }

      .cls-33 {
        fill: #fe786d;
      }

      .cls-34 {
        fill: #fe5e57;
      }

      .cls-35 {
        fill: #febf49;
      }

      .cls-36 {
        fill: #fe3a9f;
      }

      .cls-37 {
        fill: #fe6e5c;
      }

      .cls-38 {
        fill: #feb34a;
      }

      .cls-39 {
        fill: #fe8342;
      }

      .cls-40 {
        fill: #fe41aa;
      }

      .cls-41 {
        fill: #fe4293;
      }

      .cls-42 {
        fill: #fe7954;
      }

      .cls-43 {
        fill: #fe4e7e;
      }

      .cls-44 {
        fill: #febe53;
      }

      .cls-45 {
        fill: #fec441;
      }

      .cls-46 {
        fill: #fe48b1;
      }

      .cls-47 {
        fill: #fe6474;
      }

      .cls-48 {
        fill: #fec23c;
      }

      .cls-49 {
        fill: #fe7c6b;
      }

      .cls-50 {
        fill: #fed54f;
      }

      .cls-51 {
        fill: #fe50b5;
      }

      .cls-52 {
        fill: #fe5e8f;
      }

      .cls-53 {
        fill: #febf4a;
      }

      .cls-54 {
        fill: #fe697b;
      }

      .cls-55 {
        fill: #fd45aa;
      }

      .cls-56 {
        fill: #feb854;
      }

      .cls-57 {
        fill: #fed134;
      }

      .cls-58 {
        fill: #fe9e3b;
      }

      .cls-59 {
        fill: #fe50b3;
      }

      .cls-60 {
        fill: #fe7173;
      }

      .cls-61 {
        fill: #fe57a2;
      }

      .cls-62 {
        fill: #fecd50;
      }

      .cls-63 {
        fill: #fe4591;
      }

      .cls-64 {
        fill: #fe42a6;
      }

      .cls-65 {
        fill: #fe41ad;
      }

      .cls-66 {
        fill: #fead56;
      }

      .cls-67 {
        fill: #febc45;
      }

      .cls-68 {
        fill: #fe439e;
      }

      .cls-69 {
        fill: #fec044;
      }

      .cls-70 {
        fill: #fe40a4;
      }

      .cls-71 {
        fill: #fe42ad;
      }

      .cls-72 {
        fill: #fe56a5;
      }

      .cls-73 {
        fill: #feb549;
      }

      .cls-74 {
        fill: #fe589c;
      }

      .cls-75 {
        fill: #fda849;
      }

      .cls-76 {
        fill: #fea83b;
      }

      .cls-77 {
        fill: #fed63e;
      }

      .cls-78 {
        fill: #fe796d;
      }

      .cls-79 {
        fill: #fe3bab;
      }

      .cls-80 {
        fill: #fe42a9;
      }

      .cls-81 {
        fill: #fe7863;
      }

      .cls-82 {
        fill: #fe3ca4;
      }

      .cls-83 {
        fill: #fe6661;
      }

      .cls-84 {
        fill: #feb554;
      }

      .cls-85 {
        fill: #fe515d;
      }

      .cls-86 {
        fill: #feb24b;
      }

      .cls-87 {
        fill: #fe4482;
      }

      .cls-88 {
        fill: #fe608b;
      }

      .cls-89 {
        fill: #fe8c47;
      }

      .cls-90 {
        fill: #fe448c;
      }

      .cls-91 {
        fill: #fe51b3;
      }

      .cls-92 {
        fill: #fe3aa4;
      }

      .cls-93 {
        fill: #fec942;
      }

      .cls-94 {
        fill: #fe7459;
      }

      .cls-95 {
        fill: #fe428f;
      }

      .cls-96 {
        fill: #fe38a9;
      }

      .cls-97 {
        fill: #fe437b;
      }

      .cls-98 {
        fill: #fed24f;
      }

      .cls-99 {
        fill: #fe39ab;
      }

      .cls-100 {
        fill: #fe40a9;
      }

      .cls-101 {
        fill: #fe39a9;
      }

      .cls-102 {
        fill: #fec153;
      }

      .cls-103 {
        fill: #fe7859;
      }

      .cls-104 {
        fill: #fe47a0;
      }

      .cls-105 {
        fill: #fe5866;
      }

      .cls-106 {
        fill: #fe8040;
      }

      .cls-107 {
        fill: #fda248;
      }

      .cls-108 {
        fill: #fed040;
      }

      .cls-109 {
        fill: #fe40ab;
      }

      .cls-110 {
        fill: #fe6d75;
      }

      .cls-111 {
        fill: #fe945e;
      }

      .cls-112 {
        fill: #fe589e;
      }

      .cls-113 {
        fill: #fe9045;
      }

      .cls-114 {
        fill: #fe45ac;
      }

      .cls-115 {
        fill: #fec148;
      }

      .cls-116 {
        fill: #fdad3c;
      }

      .cls-117 {
        fill: #fec842;
      }

      .cls-118 {
        fill: #fe5d6f;
      }

      .cls-119 {
        fill: #fe7755;
      }

      .cls-120 {
        fill: #febc48;
      }

      .cls-121 {
        fill: #fed03e;
      }

      .cls-122 {
        fill: #fe4691;
      }

      .cls-123 {
        fill: #fe5a97;
      }

      .cls-124 {
        fill: #fe489c;
      }

      .cls-125 {
        fill: #fe9146;
      }

      .cls-126 {
        fill: #fd6652;
      }

      .cls-127 {
        fill: #fe3dac;
      }

      .cls-128 {
        fill: #fe905f;
      }

      .cls-129 {
        fill: #fe7259;
      }

      .cls-130 {
        fill: #fe53ab;
      }

      .cls-131 {
        fill: #fe6168;
      }

      .cls-132 {
        fill: #fe5e6d;
      }

      .cls-133 {
        fill: #fe3ca9;
      }

      .cls-134 {
        fill: #fe499e;
      }

      .cls-135 {
        fill: #feaf4a;
      }

      .cls-136 {
        fill: #fe3d85;
      }

      .cls-137 {
        fill: #fe55a4;
      }

      .cls-138 {
        fill: #fecb42;
      }

      .cls-139 {
        fill: #fdb83e;
      }

      .cls-140 {
        fill: #fe499c;
      }

      .cls-141 {
        fill: #fe4a82;
      }

      .cls-142 {
        fill: #fea044;
      }

      .cls-143 {
        fill: #fdb845;
      }

      .cls-144 {
        fill: #fe53ae;
      }

      .cls-145 {
        fill: #fe596c;
      }

      .cls-146 {
        fill: #fdb834;
      }

      .cls-147 {
        fill: #fec539;
      }

      .cls-148 {
        fill: #fea648;
      }

      .cls-149 {
        fill: #fe5379;
      }

      .cls-150 {
        fill: #fe666b;
      }

      .cls-151 {
        fill: #fed442;
      }

      .cls-152 {
        fill: #fe4789;
      }

      .cls-153 {
        fill: #feaa54;
      }

      .cls-154 {
        fill: #fe5767;
      }

      .cls-155 {
        fill: #fec63a;
      }

      .cls-156 {
        fill: #fed045;
      }

      .cls-157 {
        fill: #feb53c;
      }

      .cls-158 {
        fill: #fe4c95;
      }

      .cls-159 {
        fill: #fe50b1;
      }

      .cls-160 {
        fill: #fed150;
      }

      .cls-161 {
        fill: #fec253;
      }

      .cls-162 {
        fill: #fe41a9;
      }

      .cls-163 {
        fill: #fe4592;
      }

      .cls-164 {
        fill: #fe4c93;
      }

      .cls-165 {
        fill: #fe7f69;
      }

      .cls-166 {
        fill: #fe5665;
      }

      .cls-167 {
        fill: #fea33e;
      }

      .cls-168 {
        fill: #fec748;
      }

      .cls-169 {
        fill: #fe4883;
      }

      .cls-170 {
        fill: #fe5e69;
      }

      .cls-171 {
        fill: #feaa4a;
      }

      .cls-172 {
        fill: #fe756f;
      }

      .cls-173 {
        fill: #fd4f64;
      }

      .cls-174 {
        fill: #fe579f;
      }

      .cls-175 {
        fill: #fe3da4;
      }

      .cls-176 {
        fill: #fe8e4f;
      }

      .cls-177 {
        fill: #fe4d8b;
      }

      .cls-178 {
        fill: #fec343;
      }

      .cls-179 {
        fill: #fed544;
      }

      .cls-180 {
        fill: #fd8540;
      }

      .cls-181 {
        fill: #fecc50;
      }

      .cls-182 {
        fill: #fe4387;
      }

      .cls-183 {
        fill: #feb048;
      }

      .cls-184 {
        fill: #feb645;
      }

      .cls-185 {
        fill: #fe45ae;
      }

      .cls-186 {
        fill: #fe4296;
      }

      .cls-187 {
        fill: #fece43;
      }

      .cls-188 {
        fill: #fe3faf;
      }

      .cls-189 {
        fill: #fe5854;
      }

      .cls-190 {
        fill: #fec851;
      }

      .cls-191 {
        fill: #fe3fa6;
      }

      .cls-192 {
        fill: #fe52b0;
      }

      .cls-193 {
        fill: #fe469c;
      }

      .cls-194 {
        fill: #fea647;
      }

      .cls-195 {
        fill: #fe3fab;
      }

      .cls-196 {
        fill: #fe38a3;
      }

      .cls-197 {
        fill: #fe46ae;
      }

      .cls-198 {
        fill: #fece46;
      }

      .cls-199 {
        fill: #fec848;
      }

      .cls-200 {
        fill: #fe46ac;
      }

      .cls-201 {
        fill: #fe6265;
      }

      .cls-202 {
        fill: #fe3aa9;
      }

      .cls-203 {
        fill: #fea93e;
      }

      .cls-204 {
        fill: #fe46aa;
      }

      .cls-205 {
        fill: #fec444;
      }

      .cls-206 {
        fill: #fec23e;
      }

      .cls-207 {
        fill: #fe3dad;
      }

      .cls-208 {
        fill: #fe42ae;
      }

      .cls-209 {
        fill: #feb43e;
      }

      .cls-210 {
        fill: #fe40aa;
      }

      .cls-211 {
        fill: #fec437;
      }

      .cls-212 {
        fill: #fe6566;
      }

      .cls-213 {
        fill: #fe3fa7;
      }

      .cls-214 {
        fill: #fe8849;
      }

      .cls-215 {
        fill: #fe6b79;
      }

      .cls-216 {
        fill: #fe3f9a;
      }

      .cls-217 {
        fill: #fe3da8;
      }

      .cls-218 {
        fill: #fdd34f;
      }

      .cls-219 {
        fill: #fe4c91;
      }

      .cls-220 {
        fill: #fe4797;
      }

      .cls-221 {
        fill: #febf46;
      }

      .cls-222 {
        fill: #fe489a;
      }

      .cls-223 {
        fill: #fe7470;
      }

      .cls-224 {
        fill: #fed94e;
      }

      .cls-225 {
        fill: #fe975d;
      }

      .cls-226 {
        fill: #fe4790;
      }

      .cls-227 {
        fill: #fe5e8d;
      }

      .cls-228 {
        fill: #fe5a9a;
      }

      .cls-229 {
        fill: #fe7b6b;
      }

      .cls-230 {
        fill: #feaf46;
      }

      .cls-231 {
        fill: #fe40ac;
      }

      .cls-232 {
        fill: #fe8d4b;
      }

      .cls-233 {
        fill: #fecc40;
      }

      .cls-234 {
        fill: #fe9c5a;
      }

      .cls-235 {
        fill: #fe6d59;
      }

      .cls-236 {
        fill: #fec147;
      }

      .cls-237 {
        fill: #fea34c;
      }

      .cls-238 {
        fill: #fe44b1;
      }

      .cls-239 {
        fill: #fecf4f;
      }

      .cls-240 {
        fill: #fe498c;
      }

      .cls-241 {
        fill: #fe5d92;
      }

      .cls-242 {
        fill: #fd6760;
      }

      .cls-243 {
        fill: #feba53;
      }

      .cls-244 {
        fill: #fe41a7;
      }

      .cls-245 {
        fill: #feb447;
      }

      .cls-246 {
        fill: #fed53d;
      }

      .cls-247 {
        fill: #fe995b;
      }

      .cls-248 {
        fill: #fe43a4;
      }

      .cls-249 {
        fill: #feba54;
      }

      .cls-250 {
        fill: #febd53;
      }
    </style>
  </defs>
  <path class="cls-51" d="M80.32,50.28c.71,2.28-.38,2.7-2.31,3.2,6.6-.56,14.55,3.26,7.31,8.4l3.11,1.28c5.04-1.46,9.35.18,6.82,5.96,4.9,3.02,7.85,14.15-.09,13.84-.86-.03-11.73-7.81-12.92-9.23-2.56.03-4.87.22-6.92.56l-1.16.45c-8.82-4.16-21.95-5.17-28.84,2.55,1.01,2.57-3.4,7.48-6,6-2.41,2.57-4.08,6.57-5,12-.03,2.05.3,4.05,1,6,.91.86,1.57.86,2,0,2.27-.73,5.46-.39,8,0,1.04.54,1.99.86,3,0h11c5.37.94,7,9.17,1.05,10.81,3.06,9.46-5.79,8.39-11.88,6.06l-4.18,2.13c-2.71,1.62-8.22,1.5-11,0-1.17,1.93-3.45,2.93-6.84,3.01-.86,4.97-5.56,7.14-9.07,3.12-.39,8.29-4.42,12.57-12.09,12.87-7.27-18.27-5.87-41.39,3-59,1.21-2.57,2.21-5.23,3-8,1.49-2.25,3.2-4.02,5-6,1.95-1.07,4.21-2.85,5-5,2.74-2.37,6.8-5.31,10-7,3.18-.39,9.25-2.3,8-3,1.03-.32,2.43-1.7,4-2,3.7-1.03,7.2-1.36,10.5-1,5.1-1.4,12.65-1.3,18,0,2.14-.65,6.61.44,8.5,2Z"/>
  <path class="cls-137" d="M257.32,163.28c.4-4.33.8-8.68,1.19-13.06,2.12-.34,3.35-1.82,3.71-4.44-3.21-4.14-1.78-5.62,2.99-6.29,2.2-4.27,4.91-7.09,8.12-8.46-1.4-6.09-.02-18.72,7.71-15.49-1.92-4.91-2.25-8.17.63-12.88-2.04-9.13,8.92-11.46,5.67-2.38.9.18.86.52,0,1l-1,6,1,1.14c-.56,9.55,1.37,18.92,4,27.86,4.61,6.61,10.56,11.69,17,16-.8,2.3-2.88,4.33-6.24,6.08-2.03,2.7-4.29,4.67-6.76,5.92-.79.27-1.46.27-2,0-1.3-1.52-1.28-1.97-2-3-.59-1.95-1.25-2.95-2-3-.83.84-.83.6-1,2-.84,1.5-.84,3.84,0,7,0,.33,0,.67,0,1,.4,17.87.28,35.74-.35,53.62-3.25,5.89-22.39,4.47-28.65,3.38-1.55-.89-1.94-1-2-3-1.15-19.46-1.73-39.59,0-59Z"/>
  <path class="cls-144" d="M243.32,53.28c-.51,2.01-2.74,3.59-4,5-3.17,3.6-5.84,7.6-8,12-.57.73-1.4,1.29-2,2l-4,6c-4.81,8.47-10.27,15.92-16,24-2.23,1.61-4.57,4.61-7,9,.45,4.61,2.78,6.34,5,10-.11.8.22,1.8,1,3,4.99,5.43,4.68,8.38-.95,8.84l-1.63,1.3c2.02,6.95.86,11.16-3.49,12.63,1.53,4.56-6.27,13.72-7.93,7.24-.82-.86-1.82-1.86-3-3-2.7-4.36-6.07-8.12-8-13-1.66-1.29-3.66.38-6,5-.9,1.75-1.52,2.18-2,3-.61-.51-1.27-.18-2,1,.77.69-.03,1.7-1,2-2,1.04-2.34,1.71-1,2v1c-1.83,2.48-1.96,4.34-5,7-1.54,1.42-2.54,3.09-3,5-.21.33-.73.6-1,1-7.16,9.33-13.86-2.44-4.45-6.96l5.29-8.24c-2.65-7.95,4.91-13.12,10.78-16.18-1.25-5.82-.26-10.7,2.96-14.63-.59-3.3-1.35-9.58.09-12.61,1.05-2.21,3.59-3.15,5.93-2.97-.1-3.99,2.3-6.13,7.19-6.41l1.09-4.11c5.29-2.52,3.23-9.23,1.33-13.59l1.06-1.68c4.76-3.71,7.7-6.55.75-8.62.68-2.12,2.97-3.58,4-5,1.07-1.05,2.07-2.39,3-4,1.16-2.3,1.26-2.83,3-5,1.7-1.88,4.03-3.21,7-4,9.64-1.58,23.18-1.51,32,2Z"/>
  <path class="cls-192" d="M194.32,69.28c.29-.37,3.56-.92,3.5-3,1.32.5,2.6,5.11,2.58,6.55-.06,3.89-7.46,6.36-5.98,8.37.11.16,1.37-.08,1.62.29.87,1.31.2,11.44-.83,12.65-.12.14-1.84-.93-2.39.03-.74,1.29-.12,3.57-1.46,4.62-3.03,2.37-7.71-1.52-6.03,7.47-4.33-1.64-7.72,0-7,5l4.02,2c-1.86-.04-3.99-.24-4.97,1.57,4.46,5.35-1.9,9.27-2.06,10.13-.63,3.29,2.22,6.22.29,10.08-1.35,2.71-3.61,1.84-5.81,3.19-1.66,1.02-5.34,6.82-5.49,8.62-.19,2.27,2.31,4.04,2.03,4.39-.08.1-1.49-.03-2.38,1.09-1.39,1.76-3.28,5.74-4.65,7.36-.93,1.1-3.4,1.41-3.84,3.26-1.33,5.5,3.5,4.51,6.88,2.31-1.56,2.31-1.67,3.31-4,6-1.73,1.54-3.56,2.88-5.5,4-10.92.99-21.75.99-32.5,0l-.75-.6c1.98-2,3.23-4.13,3.75-6.4,1.41-2.02,2.79-4.26,4-6,2.48-2.51,4.82-5.18,7-8,.23-.4-.23-1.6,0-2,2.45-2.52,4.78-5.18,7-8,3.59-6.33,6.48-10.88,11-17,1.11-.77,2.44-2.1,4-4,1.38-2.69,0-1.8,3-5,1.35-1.59,5.17-6.58,3-6-1.1-.12-3.01-4.65-4-6-1.42-3.46-3.42-6.46-6-9-2.17-2.49-2.69-4.31-4-6,.38-5.02,4.62-7.2,12.72-6.55-1.94-4.63-1.59-9.73,4.3-10.6.25-2.92,1.57-5.22,3.98-2.85,2.37,1.34,4.7,3.68,7,7,.97,1.57,1.93,3.49,3,5-.23,4,4.79,7.03,5,2,.82-2.67,3.89-7.04,6-9l4-5c-.05-.47-.08-1.9,0-2Z"/>
  <path class="cls-91" d="M80.32,50.28c4.64.07,12.16,5.01,13.98,6.63l1.02-.63c3.45,2.36,7.25,5.75,10,9-.07,1.13.53,2.85,2,3,1.01,1.37,2.07,2.42,3,4,.59,3.28,3.45,10.12,4,9,.49,1.23,1.48,2.4,2,4,3.21,12,3.88,23.67,2,35-24.47,1.8-49.51,1.47-74,0,.19-3.48,3.43-4.62,6.31-4,.42.09,4,5.75,7.43,1.74,2.8-3.27-.96-6.43-.74-6.72,1.58-2.17,8.78.67,2-10.01l20.46-.39c9.98,1.57,7.16-9.45,3.54-14.61-2.64,1.54-4.09-.92-2-3,.16-1.33-.8-2.66-3-5-2.08-1.35-3.08-2.68-3-4-.02-.06.96-.36.89-.86l-1.88-1.13c1.92-.46,7.15-.94,8.74-.35,1.38.52,1.47,2.23,2.31,2.73,1.41.84,3.11.96,4.3,1.74,2.49,1.64,4.22,4.93,7.62,4.86,1.43-3.26.69-6.25-1.52-8.98-1.4-1.73-3.34-1.88-3.47-2.04-.45-.59,2.81-2.9,1.51-4.98-1.09-1.74-3.65.17-5.75-.15-2.58-.4-6.08-2.05-4.26-4.89.58-.91,4.02-.52,2.04-2.98s-8.43-1.26-11.53-1.98c-.23-3.8,3.82-3.37,6-4.99Z"/>
  <path class="cls-225" d="M632.32,50.28c2.43,2.12.84,3.89-1.34,5.65-7.9,4.01-11.58,11.28-11.04,21.81,5.24,1.61,5.36,4.12.38,7.54-.63,1-1.53,2.18-2,3-4.34,3.86-5.74,9.58-7,15-.06,2.19-.39,4.19-1,6-1,19-.82,38.13.72,57.15.09,13.35-22.73,11.43-30.72,6.85-2.38-6.05-2.29-14.85-1-21,2.16-1.52,2.91-.24,2.94,2.16.28-5.59,2.45-11.97,6.51-19.14-3.59-2.93-2.98-6.46,1.83-10.59l2.44-12.08c2.52-2.78,3.86-5.74,4.01-8.88,3.53-3.81,4.71-7.91,3.52-12.3,3.66-4.23,5.46-10.25,1.11-14.52-.02-1.81,7.65-8.83,9.63-8.65-.11-1.57.56-3.24,2-5,1.58-2.17,3.15-5.12,5-7,4.64-3.33,9.31-5.33,14-6Z"/>
  <path class="cls-190" d="M864.32,49.28c.33.02.67-.02,1,0,1,.73,2.48,1.86,2,3,.32.76.29,1.46-.21,2.09l-13.39,5.77c-.91,3.07-1.24,6.4-1.01,9.98l-2.39,1.16c-3.33.23-6.33.56-9,1,.12,2.84-5.21,5.41-7,3-1.92-.36-4.59,1.37-5,3,.82,3.53-4.42,12.26-8,13-1.35,2.84-2.36,6.41,0,9,6.22-.68,12.79-.81,19,0,.85,2.64-1.24,3.12-3.66,3.42-4.52.04-7.24.25-10.63,3.14-4.41-.19-8.66,10.45-7.71,14.44,2.53.44,2.53,1.11,0,2l-1.13,4.65c-8.32.77-12.76,8.92-15.63,15.91.49,4.03,1.24,11.7-4.24,7.44-4.7-5-8.21-14.19-8-21,1.52-4.22,3.99-8.23,7.43-12.04l2.9-12.99c.77-1.65,2.11-2.93,4.02-3.83l6-20.22c3.66-2.77,6.07-6.58,7.22-11.44,4.03-4.48,8.9-8.11,14.6-10.92,1.69-4.61,5.3-8.13,10.84-10.56,7.04-1.2,14.38-.87,22,1Z"/>
  <path class="cls-66" d="M719.32,48.28c3.69,1.02,2.02,5.71-.27,7.95-6.22,3.82-10.75,8.9-12.73,16.05-.35,1.09-1.02,2.09-2,3,.21.43.38.86.4,1.3.04.72-8.49,10.71-9.04,11.17l-2.36-.46c-.72-.15-1.38,1.52-2,5-.86,2.18-.86,4.18,0,6,.86.3.85.63,0,1l2,1c1.55,3.59-3.42,4.66-6.48,4.62-3.47,13.2-8.49,27.71-18.47,37.76,1.31,5.19.63,7.73-2.05,7.62-1.46-1.55-2.8-3.55-4-6-.34-.83-.66-2.02-1-3-1.06-3.55-1.39-6.55-1-9-1.92-.71-2.54-4.6-1-6-.17-5.98-.29-13.58,3.05-19.24l2.98-2.09c-1.28-7.66.63-11.26,5.75-10.78,4.58-11.85,10.57-22.75,17.94-32.67-.64-4.27.45-7.01,3.28-8.21,6.88-4.8,18.82-7.05,27-5Z"/>
  <path class="cls-111" d="M605.32,52.28c1.91.68,2.91,1.68,3,3,2.77,3.3-.77,9.78,2,13,.28-.87.62-.86,1,0-.37.62-2.78,4.3-2.96,4.5-.96,1.08-5.03,3.14-5.02,4,0,.46,2.78,1.81,2.99,4.01.07.78-.93,6.81-1.23,7.75-.48,1.5-2.34,2.27-2.63,3.42-.39,1.58,1.18,3.41.69,5.55-.44,1.93-3.8,4.61-4.47,7.74-.37,1.73.62,3.74.51,3.9-.16.24-2.09.57-2.9,1.56-3.18,3.83-1.48,11.33-4.65,16.29-1.28,2-4,1.77-3.22,4.6.88,3.18,4.31,1.15.56,8.36-1.84,3.53-3.48,5.94-4.62,10.86-.84,3.66,2.03,6.41-3.55,5.48-1.09-.18.07-3.58-1.51-4.04-1.71-21.25-1.09-42.71,0-64,3.67-.96,5.57-3.99,5.68-9.09-.29-5.57.78-10.62,3.22-15.15-1.74-9.29,2.95-10.03,10.78-9.98.93-1.68,2.04-2.6,3.32-2.78,1.14-.92,2.65-.42,3,1Z"/>
  <path class="cls-215" d="M471.32,55.28l2.34,2.15,1.09,16.63c2.26,4.98,2.79,9.72,1.56,14.22-.88,5.39-2.21,10.72-4,16,.44,5.51.45,11.49,0,17,.98,1.99,2.33,6.39,1,8-4.27,1.53-4.77,4.37-5.5,9.47,1,6.78-.11,12.9-3.31,18.36,2.32,4.81,2.25,8.53-.19,11.17-5.07-3.78-10.44-8.75-14-14,.18-1.27-.35-3.65-2-4-.9-1.62-1.24-2.35-2-4,.19-2.29.94-4.68,2.25-7.17.6-5.9,1.22-10.06,4.52-14.91,1.65-17.82,3.71-35.4,6.18-52.76l-.78-3.82c1.98-1.54,3.25-3.32,3.84-5.34.61-1.72,1.27-3.06,2-4,2-1.54,3.79-2.78,6-4,1.52-.59,1.81-.54,1,1Z"/>
  <path class="cls-59" d="M33.32,120.28c.18,2.05.18,4.39,0,7,1.34,5.99,2.67,9.99,4,12,.6.1,5.39,7.07,8,9,1.85,2.1,4.18,3.77,7,5,.79,1.33,1.41,2.75,1.87,4.26,13.79,3.89,10.91,15.01-3.14,13.77,1.09,2.17,2.1,4.98-.74,5.98-2.81,1.47-8.38-.09-11-2-6.25-2.03-12.25-5.03-18-9-4.16-3.5-6.95-6.45-10-11,.19-1.28-.35-3.65-2-4-.51-.91-1.35-1.6-2-3-.69-3.18-1.35-6.18-2-9,1-5.22,5.03-1.54,7.53-3.97,2.67-2.6-.46-11.36,5.94-11.08.5.02.48,1.94,1.12,2.08,4.98,1.15,3.84-3.51,5.38-4.55,1.41-.95,6.41-1.37,8.03-1.47Z"/>
  <path class="cls-159" d="M113.32,152.28c-.85,2.07-4.51,7.17-6,9-1.6.35-5.45,4.78-8,8-2.08,1.62-5.61,3.85-8,5-6.57,2.28-13.23,3.61-20,4-6.47,1.39-15.18,1.86-21-1l-.5-5.01-4.49,3.01c-2.54-8.36,12.63-5.2,14.87-7.12.29-.25,1.12-4.1.68-4.86-2.15-3.68-11.82-1.66-8.55-10.01.5-.44,1.16-.44,2,0,1.4.23,1.56-.03,2,0,4.52,3.4,18.53.48,20-2,.19-1,4-2.99,5-4,1.51-.57,2.51-1.78,2-3,.86-1.31,1.72-3.15,3-4,3.33-3.5,25.76.57,27.46,2.91.37,2.86.22,5.89-.46,9.09Z"/>
  <path class="cls-10" d="M276.32,51.28c3.17-1.51,9.13-.54,11,3,.11.21-.05.64,0,1-.28.87-.62.86-1,0-.76,4.28-1,8.72,0,13,.35,1.24.68,1.57,1,1,2.19-1.86,3.17-3.88,5-6,.61-.4,1.47-.48,2,0,4.12-1.91,10.49,1.28,5.32,6.75,3.69,3.12,1.72,6.41-5.88,9.87-.37,5.06-.91,9.07-5.21,11.87l1.77,1.5c-.1,2.03-.94,7.02-3,7-.07-2.63.09-6.94-3.49-3.01-.39.42.06,4.39-.23,5.8-.41,1.99-2.17,3.94-2.28,5.79-.14,2.24,2.63,5.94,1.39,8.44-1.99,4.02-2.51.43-3.28-.37-2.35-2.43-1.91.86-2.71,2.24-.55.96-1.61,1.49-1.94,2.62-.68,2.34,1.61,8.45.08,10.57-.62.86-2.59.56-3.27,1.2-1.65,1.56-4.36,10.73-9.27,7.72-.6,1.82,1.52,2.36,1.83,3.72.36,1.54-.89,2.76-.89,3.72,0,.82,3.32.07,2.04,2.55-9.88-.46-6.25,2.85-6.96,9.59-.13,1.26-1.03,2.28-1.04,2.42-.77-15.87-1.13-32.13,0-48l.53-2.48c-1.31-12.09.41-16.49,5.14-13.22.99-4.39,3.48-7.94,7.47-10.65,3-6.78,6.16-11.09,11.09-15.96-4.25-3.17-4.12-10.86-1.09-15.17-3.31.89-15.44-.73-12.37-5.6l8.22-.93Z"/>
  <path class="cls-15" d="M842.32,48.28c-.51,5.75-4.32,4.06-6.51,5.99-1.26,1.11-1.73,4.92-2.98,6.02-2.39,2.1-8.67,4.66-12.05,7.95-4.44,4.32-3.05,6.29-4.97,10.03-.86,1.69-3.63,1.81-4.31,3.69-1.65,4.6-4.16,16.73-6.19,20.55-.71,1.34-2.87,1.4-3.51,2.73-1.38,2.87-1.87,10.48-3.23,13.78-.94,2.27-7.06,9.39-9.25,11.25-2.02-2.67-2.49-8.56-2-12-1.02-3.26-.91-7.72,0-11,.08-5.67.75-11.34,2-17,.05-.32-.04-.67,0-1,1.7-3.89,3.7-7.89,6-12,1.24-2.29,2.24-4.62,3-7,4.57-6.22,8.53-9.86,15-14,4.91-2.51,9.91-4.51,15-6,2.29-1.46,6.32-2.58,9-2,1.17-.76,4.04-1.05,5,0Z"/>
  <path class="cls-241" d="M399.32,1.28c7.31-.74,14.68-.99,22,0,1.42.49,3.54,1.47,4,3-.43,6.67-.46,13.36-.09,20.06l-.91.94c-1.75-.56-3.03-2.12-3.85-4.67-.23,3.31-2.45,5.69-6.65,7.12.77,6.68-.7,11.7-4.43,15.05-2.54,10.72-5.17,21.41-7.88,32.08-1.31,1.14-2.52,1.43-4.08.89.44,4.01-.59,5.52-3.11,4.54-.83-24.9-.9-51.74,0-77,1.49-2.59,2.59-.78,5-2Z"/>
  <path class="cls-130" d="M209.32,124.28c2.58,4.05,5.3,8.03,8,12,.81,2.51,2.89,6.24,4,6,2.37,3.46,4.68,6.32,7,10l3,6c3.09,3.21,9.15,9.56,11,14l.43,2.78c-6.2,1.11-12.68,1.52-19.43,1.22-5.17.96-12.62,1.5-17-2-4.09-3.69-9.73-13.76-13-19-.5-1.64-.49-1.98,1-1,.43.04,1.29,1.16,1.81.81.22-.15,3.54-3.6,3.68-3.83,1.17-1.9-.03-4.88.63-5.86.43-.63,3.05-.46,3.68-1.33,3.03-4.23-6.64-12.47,7.2-13.81-1.34-1.75-1.98-4.22-3-5.99.3-.55.63-.54,1,0Z"/>
  <path class="cls-227" d="M394.32,133.28l1.4-3c-1.59-7.09-1.71-9.51,5.66-12.27-1.28-10.41.73-24.99,7.84-33.12-.58-7.38,1.15-12.81,4.77-19.09-5.99-8.03,2.26-11.99,9.53-12.05l.81,5.52c.87.28.86.62,0,1-.85,2.58-.86,5.42,0,8,1.02,3.86.8,9.63,0,14,1.79,2.4,1.63,10.33,0,13-2.1,1-3.14-.39-3.13-4.17-3.35,2.11-4.43,5.43-3.25,9.96l-3.33,4.88c-2.09,5.84-4.89,15.89-2.56,21.31l-6.25,14.48c1.5,4.95,1.35,10.02-.46,15.21l.31,16.52c.15,1.47-.94,2.26-2.33,2.82-1.69.25-3.69.25-6,0-1.11-.43-2.35-.95-3-2-1-13.41-1.34-26.85-1.04-40.33l1.04-.67Z"/>
  <path class="cls-6" d="M129.32,50.28l22.49.6c2.91.37,6.32,1.38,8.51,3.4,1.78,2.05,2.58,3.84,4,6,.96,2.77,2.63,5.26,5,7,.21.46-.22,1.58,0,2,1.29.84,1.71,1.72,0,2-2.92.67-1.67,4.66-2.01,4.98-.52.49-2.95-.77-4.1.63-3.13,3.82.25,6.07-.02,7.74-.69,4.23-8.66,1.86-11.25,2.76-2.27.79-.44,4.62-3.62,3.88-.3-.38-.76-.67-1-1-1.55-3.24-3.32-6.59-6-9-.3-.36-.71-.65-1-1-2.56-5.16-5.69-10.11-10-14-2.69-3.94-6.14-8.59-8-13-.94-1.51.18-1.47,1.66-1.41l-.66-.59c2.85-1.07,3.13-.87,6-1Z"/>
  <path class="cls-54" d="M462.32,62.28c.02.3,1.64,1.58.96,3.38-.54,1.43-2.94,1.29-3,2.2-.05.78,1.1,2.24.95,3.8-.33,3.52-1.62,7.63-1.94,11.16-1.25,14.04-2.1,27.65-4.25,41.73-.6,3.97-2.64,3.74-3.06,4.97-.75,2.23-.69,9.05-2.32,12.76-.58,1.32-2.43,2.76-3.36,4-.95-2.06-1.25-2.97-2-5-3.45-11.58-5.42-24.12-3-36-.79-2.2-.79-4.2,0-6-.43-2.96.49-7.4,2-10,.99-2.43,1.65-5.1,2-8,.94-2.08,1.75-3.19,3-5,1.31-.76,2.31-2.09,3-4,2.15-2.24,4.15-4.58,6-7,1.12-1.16,1.72-1.85,3-3,1.24-.93,1.91-.93,2,0Z"/>
  <path class="cls-22" d="M714.32,100.28c1.07,2.71-1.53,3.69-7.8,2.93l-1.22,3.14c-4.57,2.86-5.46,7.53-5.94,12.57l-2.04,1.36c-2.21.25-4.54.58-7,1-.81,2.54-.81,5.2,0,8,.18.66.72,2.2,1,3,.77,3.55,1.77,6.89,3,10-5.18,2.4-11.49,9.57-12.43,14.98-1.62,2.9-4.48,4.57-8.57,5.02-3.3-3.65-3.13-4.4-5-8-1.29-.96-2.92-2.62-2-4,1.97-2.38-.78-5.05.18-8.28.53-1.79,4.27-4.23,5.67-6.37,2.06-3.17,9.72-19.54,10.86-23.14.69-2.18.04-4.42,1.04-6.96,1.53-3.85,3.45-2.1,5.94-3,1.32-.47,3.01-2.19,3.31-2.26,6.87-.93,13.87-.93,21,0Z"/>
  <path class="cls-165" d="M552.32,70.28c1,1.37,2.05,2.43,3,4,.11,1.08.11,2.08,0,3,.8,1.81.18,3.57-1.86,5.29-2.98,8.19-6.33,16.29-10.05,24.28-2.39,14.18-1.38,30.77,5.85,43.35,2.51-.22,4.19.47,5.06,2.07.31-.42.64-.41,1,0-1.69,2.86-2.94,4.47-5,7-2.28,2.26-4.62,3.93-7,5l-2.06-1.75c-5.28,1.98-7.39-.81-6.34-8.36-5.58-8.48-5.42-15.44-2.6-24.89-.89-.19-.85-.52,0-1-1.43-1.52-.92-3.19,0-5,.65-7.84.37-15.77-.81-23.77l.81-1.23c2.32-7.79,4.73-15.63,7.23-23.52,1.99-6.11,5.44-13.58,10.77-5.38l2.01.9Z"/>
  <path class="cls-74" d="M349.32,117.28c5.6.47,8.27,10.41,7.99,15.51-.53,9.87-1.52,19.63-3.05,29.32.25,2.54,1.27,4.93,3.06,7.17h1c-2.5,2.03-4.05,3.42-7,5-2.36-.07-4.56,1.2-6,3-.59.14-1.4-.13-2,0-3.71,1.44-7.37,2.11-11,2-4.8-.8-7.43-2.69-7.9-5.67,4.52-7.52,7.48-15.29,8.9-23.33-.26-.35.07-.68,1-1-2.57-2.04-.97-4.14,2-3,1.41.16,2.1-.39,4-3,2.08-3.08,4.08-6.08,6-9-.28-2.39-.14-5.89,1-8-.14-2.66.08-7.46,2-9Z"/>
  <path class="cls-250" d="M764.32,70.28c.27.4.79.67,1,1,1.78,3.73,3.44,7.4,5,11,.85,1.75,1.51,3.75,2,6,.67,1,1.1,2.45,0,3l-1.86.7c-4.33,5.46-8.14,11.19-11.44,17.17.08,7.16-2.82,10.87-8.7,11.13-.81.97-2.19.98-3,0-4.46.71-9.84,1.15-14,0l-.02-2.29c2.91-1.5,3.94-4.12,3.1-7.85,1.12-4.58,3.94-7.14,6.92-9.85-1.11-1.06-.5-2.69,1-3,1.3-7.11,5.65-21.88,11.79-26.05,2.46-1.67,6.13-3.6,8.21-.95Z"/>
  <path class="cls-112" d="M353.32,54.28c1.53.93,2.63,1.94,4,3,2.26,2.13,4.6,5.13,7,9l.4,2.19c-7.07,6.84-8.76,15.75-7.81,25.2-.27,3.77-2.11,6.34-5.49,7.72.52,4.73-.51,6.69-3.1,5.89-.2-2.86-.87-5.2-2-7-2.27-1.41-3.76-3.9-4.46-7.48-2.4-3.46-3.25-6.63-2.54-9.52-.63-1.53-1.44-2.42-3-3-2,2.15-4.02.67-3-2-1.05-1.3-.57-1.32,1-1-2.02-1.52-1.77-4.17.76-7.96-1.52-6.96-1.34-17.95,7.24-19.04,3.59,1.21,7.26,2.54,11,4Z"/>
  <path class="cls-224" d="M887.32,140.28c13.89.81,13.75,4.35,9,16-.9,1.59-1.94,2.63-3,4-2.89,2.36-5.55,5.03-8,8-1.59,1.27-2.09,1.8-4,3-3.7,1.47-7.37,2.81-11,4-4.57,2.49-12.18,4.87-17,3-2.09-1.06-1.98-2.78.34-5.18l7.86-6.53c.87-3.39,2.62-4.82,6.06-5.04,1.81-7.74,6.22-15.09,12-20.61l2.74.36c-.82-2,3.42-2,5-1Z"/>
  <path class="cls-50" d="M881.32,139.28c1.87.09,2.28.56,1,2-5.24,3.91-7.96,9.11-11.19,15.31-.86,1.64-1.57,6.02-2.03,6.47-.75.75-3.42.36-4.57,1.45-.68.64-.6,2.41-1.57,3.41-3.49,3.62-8.62,5.01-9.65,10.36-5.7,1.99-14.37,1.6-20-1-1.87.39-4.9-.04-5-2,1.97-4.6,4.46-7.5,7.48-8.68,1.39-6.83,3.6-10.14,10.91-8.26,1.66-2.48,4.53-3.83,8.61-4.06.57-1.18,3.58-1.37,5-1,3.37-2.09,4.37-3.09,3-3,3.12-1.99,5.23-6.87,8-9,2.66-2.34,5.92-3.63,10-2Z"/>
  <path class="cls-28" d="M692.32,53.28c-2.85,2.46-.3,5.23-1.18,8.28s-5.92,8.01-7.5,10.53c-2.9,4.61-5.34,10.63-6.77,15.22-.6,1.93-3.02,7.57-4.54,8.46-1.65.96-4.72.24-5,.5-.45.42.53,7.45-.15,9.34-.53,1.48-2.47,1.62-3.25,2.64-2.17,2.85-4.72,14.14-4.6,18.01-.28.87-.62.86-1,0-1.23-8.72-1.23-17.39,0-26,.63-6.75,2.29-13.42,5-20,2.34-5.1,3.39-7.46,7-12,3.27-2.75,6.18-5.78,9-9,1.47-1.2,2.37-1.93,4-3,1.42-.36,2.76-.7,4-1,.61-1.49,3.66-2.98,5-2Z"/>
  <path class="cls-50" d="M900.32,88.28c.31-.9.65-.9,1,0,3.59,9.85,4.14,20.8,3,31-.47.94-.91,1.69-2,2-10.36-.23-21.03-.56-32-1l-.81-2.54c3.03-7.28,7.22-13.38,12.59-18.32-.46-4.32,3.61-7.27,6.83-9.54,2.24-1.58,10-4.6,11.39-1.6Z"/>
  <path class="cls-161" d="M757.32,140.28c3.92.57,7.92.91,12,1,.82-.05,1.84,1.21,2,2-1.36,5.2-3.03,10.2-5,15-3.95,6.24-8.58,10.4-15,14-6.21,2.48-12.57,4.38-19.12,5.81l-.88-.81c-2.33-1.82-1.4-3.79,2.8-5.92.43-5.95,3.22-15.26,9.76-16.41,1.76-8.39,2.81-12.52,11.44-14.67.17-1,1.39-.77,2,0Z"/>
  <path class="cls-160" d="M824.32,144.28l.84-.77c1.51,2.11,3.23,3.7,5.16,4.77,8.6,4.74,14,7.01,24,5,.84.01,1.24.08,1,1-.11.09.29,1.37-.2,1.75-.9.71-3.27-.16-4.81.74-.97.57-1.12,2.85-2.66,3.38-2.43.83-5.3-1.14-6.88.02-2.41,1.76-2.35,6.54-3.69,7.89-.8.81-2.78.65-3.54,1.43-1.56,1.62-.34,6.75-5.23,5.79-1.22,1.38-3.97.47-5-1-4.71-1.58-9.38-3.92-14-7-1-.76-1.39-1.47-2-2-.18-6.32,1.71-7.4,6.89-10.35l4.31-9.25c1.85-2.25,3.51-3.86,5.8-1.4Z"/>
  <path class="cls-26" d="M473.32,129.28c2.47,3.96,4.8,8.3,7,13,2.45,2.31,4.12,4.64,5,7,.54.61.58,1.28.55,2.04-.31,6.96-1.94,18.86-7.55,22.96-3.31-.89-6.64-1.89-10-3-1.52-.93-2.63-1.98-4-3l-.59-8.09c-3.44-4.38,1.48-6.55,2.16-10.86.42-2.71-.4-8.12-.02-11.19.31-2.45,2.23-5.14,1.42-8.18.42-1.77,4.65-1.46,6.03-.69Z"/>
  <path class="cls-123" d="M377.32,90.28c1.07,3.37,1.4,6.7,1,10,2.32,8.08,2.09,17.76,0,26,.45,1.46.45,3.13,0,5l-2,9c-1.37,5.8-3.71,11.14-7,16-.72,1.43-.96,2.42-2,4-1.19,1.18-1.86,1.18-2,0-4.78,3.6-4.94-4.18-3.67-7.8,4.43-5.81,5.73-14.17,3.29-20.61,3.14-1.47,3.18-3.39.11-5.78l-.56-2.13c3.29-10.99,4.93-22.13,4.94-33.44.1-6.07,1.73-8.48,4.88-7.24,1.33,1.83,2.33,4.16,3,7Z"/>
  <path class="cls-62" d="M820.32,134.28c.78,1.77,1.45,2.77,2,3,.36.7,1.41,2.07,2,3,.62,1.88.62,3.21,0,4-5.86.76-6.12,8.67-8.58,11.92-1.35,1.79-5.08,2.67-5.92,4.08-1.26,2.12,1.01,5.63-2.5,4.99-.3-.26-1.33-.35-2-1-1.81-2.88-4.48-6.88-8-12-.82-.29-.81-.62,0-1,5.13-.52,1.7-4,2.17-7.24.63-4.34,7.48-14.54,11.57-16.52,3.23-1.57,6.17.1,7.26-4.24.81,3.44,1.47,7.11,2,11Z"/>
  <path class="cls-84" d="M694.32,142.28c.98.53,1.98,1.2,3,2,.85.72,1.62,1.71,2,2,.45,1.59,1.79,2.93,4,4,1.49.64,6.13,2.8,7,3,2.12,1.03.85,1.46-1,2l-.46,1.34c-10.17.06-10.48,10.5-10.54,18.66-2.03.41-4.37.07-7-1-7.15-3.11-12.58-6-18-12-.39-3.56,4.46-2.18,6.1-4.4,1.26-1.7.51-3.98,1.43-5.57.52-.9,2.29-1.21,2.91-2.09,2.47-3.54,5.01-10.62,10.57-7.93Z"/>
  <path class="cls-44" d="M755.32,140.28c.28,4.01-5.39,3.26-6.52,4.98-.52.78-3.13,11.46-3.59,11.91-.53.51-3.05-.42-4.4,1.1-.32.36-3.74,7.61-4.22,8.78-.6,1.44.05,3.58-.75,5.27-.69,1.46-4.46,2.02-4.51,4.97-4.1,2.83-11.99,2.62-17,1-.21.67-.55.64-1,0,1.61-2.3,2.38-4.89,2.32-7.77,4-6.95,10.44-12.34,16.68-17.23,3.59-2.68,6.25-5.68,8-9,1.07-1.11,1.48-2.99,3-4,3.36-2.31,8.92-2.09,12,0Z"/>
  <path class="cls-239" d="M875.32,53.28c8.77,4.52,13.68,9.7,18,18l-.72,1.98c-12.58,2.04-15.32,11.09-16.81,22.28l-2.48.73-1.12-.52c-1.23-6.38-3.52-12.21-6.88-17.48l-1.18-1.93c.14-2.59,5.51-21.02,7.37-22.1l2.81.03c-.25-.92.08-1.25,1-1Z"/>
  <path class="cls-247" d="M643.32,48.28c5.52,3.09-2.05,8.93-5.74,11.28.05,3.57-.44,7.27-1.47,11.11,2.68,1.55,7.22,4.52,3.21,6.61l-.44,1.13c-6.57.35-10.76,1.31-12.56,2.87-.16,1.13-4.71,3.29-6,4,.74-1.18.17-2.68,3-3.5l-5.93-3.13c1.38-5.82,1.54-13.94,4.89-18.92,2.3-3.41,9.44-4.45,10.04-9.46.69-1.84,5.72-2.54,8-2,.59-1,2.13-.82,3,0Z"/>
  <path class="cls-234" d="M651.32,48.28c1.04.07,1.58,1.16,2,2,.76,8.18.86,16.41.27,24.63-.61,5.7-11.29,4.5-14.27,2.37.51-3.14-4.69-4.54-5.02-5.71-1.05-3.73,1.13-6.12,1.71-8.93.21-1.03-.88-2.58-.58-3.71.36-1.36,9.59-5.07,7.88-10.66,2.26-.45,4.93-.45,8,0Z"/>
  <path class="cls-33" d="M526.32,52.28c3.14.64,6.47,1.64,10,3,3.34,2.04,6.15,4.32,9,7-.48,2.42-2.81,2.6-6.99.54-1.39.09-3.65,1.84-4.42,3.03-.65,1-3.27,13.34-1.17,15.19.5,3.03-1.04,7.97-4.42,6.24-.88-.24-1.88-.91-3-2-2.69,1.67-7.24-3.35-6-6-1.4-1.47-2.74-2.8-4-4-3.97-3.29-1.12-12.48,3.27-14.77.96-7.02,3.54-9.76,7.73-8.23Z"/>
  <path class="cls-72" d="M306.32,53.28c10.5.45,13.03,3.25,7.59,8.42-.12.46,2.39,8.4,3.14,8.56,4.76-.69,6.85.32,6.27,3.02-7.58.1-14.13.78-21,5l-6,6c2.6,1.57-.37,6.07-3,5-.93,1.16-1.93,2.16-3,3v1c-2.26.76-8.84,2.58-7-1.5.93-2.05,5.34-1.37,6.77-2.73,1.96-1.88.58-7.11,1.74-9.76s6.89-3.41,8.47-6.51c0-.9-6.61-1.87-3.98-4.5.61-.61,4.22,1.84,2.99-4.01-2.9,2.01-3.78-.56-4.99-1-.78-.35-.44-1.35,1-3,.33-.34.66-.67,1-1l5-4c1.68-1.66,3.34-2.32,5-2Z"/>
  <path class="cls-31" d="M751.32,56.28c2.52,1.69,5.15,2.75,6,6,.03,1.88-1.77,2.72-5.4,2.53l-3.88,1.49c-.68,3.68-2.73,6.97-6.17,9.87-.62,2.46-1.8,3.83-3.54,4.11-2.59-.59-4.93-2.26-7-5-2.98-1.01-5.31-2.35-7-4-5.12-3.15,2.02-9.29,5.45-11.87,1.07-3.76,3.83-5.64,8.27-5.63l1.27-1.5.53-.78c4.26,1.64,8.09,3.23,11.47,4.78Z"/>
  <path class="cls-249" d="M757.32,62.28c3.95.88,5.22,5.38,7,8-2.64.67-6.15,1.32-8.03,3.47-5.83,6.69-6.53,12.46-9.24,19.77-.58,1.56-2.2,2.44-2.74,3.76-2.33-1.33-2.2-6.16-2-9-1.7-1.37-3.03-3.37-4-6-1.41-.9-1.68-1.58,0-2,1.04-7.1,5.44-7.7,7.5-12.08.54-1.13-.48-2.47-.31-2.77.29-.51,4.89-2.31,5.98-2.57.61-.15,5.54-.65,5.83-.58Z"/>
  <path class="cls-229" d="M545.32,62.28c2.75,2.59,4.77,4.95,7,8-2.39,2.33-4.5-2.98-5.5-2.98-6.02.02-8.51,27.68-14.5,30.98-2.21-1.65-3.95-7.97-4-11,5.1-5.34,1.07-7.04,1.05-10.5,0-1.56,1.51-2.86,1.73-4.22.77-4.57-1.02-7.05,3.71-10.28,5.31-3.62,5.76.8,10.5,0Z"/>
  <path class="cls-43" d="M425.32,172.28c-.3.57-.63.56-1,0l-2-.93v-74.87l2-1.2v-13c.85-25.11,1.18-50.44,1-76,1.66,1.04,1,3.79,1.02,5.49.65,52.36-.58,104.76.05,157.13.46,1.56-.7,2.45-1.07,3.38Z"/>
  <path class="cls-5" d="M287.32,54.28c-.11-.21-3.76-2.27-4.1-2.36-2.29-.63-4.54-.76-6.9-.64-5.93.52-11.49,2.01-16.67,4.47l-.21,43.69-1.56.83c.25,5.06.06,10.06-.56,15.01-.8,15.87.59,32.1,0,48-1.29,18.67-.53,40.74,0,59-1.66-1.04-1-3.79-1.02-5.49-.67-53.98.52-108.01.04-161.99,1.2-6.28,21.27-5.26,26.41-4.46,2.15.33,4.58,1.22,4.57,3.93Z"/>
  <path class="cls-208" d="M44.32,120.28c24.64-.4,49.36.29,74,0-1.41,1.41-2.33,2.09-4.47,2.02l-79.53-.03c-.16,1.28.22,2.8,0,4.01.05,1.04,0,1.44-1,1-.22-1.78-2.37-4.24,0-7,3.62-.24,7.37.06,11,0Z"/>
  <path class="cls-14" d="M606.32,51.28c1.33,1.41.77,1.92-1,1-.86-.56-1.98-.88-3-1-.19.99-.68,1.79-1.75,1.86l-12.14.04c-7.69-.68-10.1,4.37-7.22,15.17l-1.89,1.93c-.88,32-1.21,64.34-1,97-1.66-1.04-1-3.79-1.02-5.49-.44-35.58.19-71.22.23-106.8,1.43-8.16,24.43-6.77,28.78-3.72Z"/>
  <path class="cls-89" d="M579.32,173.28c.28-.87.62-.86,1,0,9.02,2.38,30.4,6.67,30.08-7.5-.42-18.68-2.92-37.92-.08-56.5.28-.87.62-.86,1,0-1.05,13.43-1.32,26.94-1.04,40.54.11,5.48,2.72,17.57.53,22.44-2.91,6.46-28.13,6.75-31.48,1.02Z"/>
  <path class="cls-193" d="M259.32,225.28l19.39-.11c2.88-.83,6.77-.76,8.42-3.58l1.19-53.31c.38,17.93,2.18,35.99.48,53.98-2.61,5.84-24.2,6.04-29.48,3.02Z"/>
  <path class="cls-139" d="M750.32,120.28c7.15-2.54,16.16-3.51,23,0,.52.3.51.64,0,1l-83,1v-1c19.17-.27,38.17-.6,57-1,1-.03,2,.03,3,0Z"/>
  <path class="cls-127" d="M5.32,139.28c.79,2.68,4.19,6.99,2,9-9.81-21.22-9.71-46.87,0-68,.29-.65.63-.63,1,0C.15,98.95-.43,119.82,5.32,139.28Z"/>
  <path class="cls-106" d="M579.32,88.28c.05,21.32-.11,42.68,0,64,.04,6.96-.71,14.25,1,21h-1c-1.26-2.16-.86-3.77-1-6-1.77-28.84-.32-62.25-.02-91.51.02-1.69-.64-4.45,1.02-5.49,2.96,5.68,2.89,12.29,0,18Z"/>
  <path class="cls-199" d="M859.32,121.28c14-.5,28-.5,42,0l-82,1.01c1.15,3.6.59,7.41,1,10.99.41.29.39.63,0,1-1.78-3.09-2.12-7.49-2-11,.02-.64-.13-1.48,0-2-1.42-1.69-.85-2.26,1-1,12.97.46,26.3.8,40,1Z"/>
  <path class="cls-97" d="M394.32,133.28v41c-.94-1.51-.89-2.76-1.04-4.43-2.41-26.99,0-61.71.04-89.57.28-.87.62-.86,1,0,.79.09,1.96.35,2,.91.8,11.97.7,28.64,0,40.64l-1.52,2.15c1.23,3.79,1.07,6.88-.48,9.3Z"/>
  <path class="cls-83" d="M536.32,55.28c.11.92-.45,1.1-1.28.84-2.62-.81-5.67-2.72-8.72-3.84-3.42.55-7.04.14-10.85-1.24-4.13.14-7.18-.78-9.15-2.76-3.13,2.77-12.63,3.5-16,1-1.03,2.6-3.01,2.73-4,0-1.01.08-1.37.07-1-1,17.62-4.11,35.44-2.54,51,7Z"/>
  <path class="cls-207" d="M95.32,56.28c.19,3.45-.51,1.59-2.1.6-3.56-2.21-9.01-5.43-12.9-6.6-1.1-.33-8.06-2-8.5-2h-18c-.68,0-9.96.9-10.5,1,17.73-5.07,36.56-3.56,52,7Z"/>
  <path class="cls-148" d="M734.32,49.28c.87.28.86.62,0,1-1.7,1.58-4.25,1.74-7.66.48-3.58.26-6.03-.56-7.34-2.48-10.92-.12-16.94,1.19-27,5-1.78.68-3.23,1.17-5,2-1.39,1.17-1.94.66-1-1,16.34-8.8,30.58-9.71,48-5Z"/>
  <path class="cls-87" d="M394.32,80.28h-1c.05-24.85,0-49.74-.06-74.6-.28-1.21.68-1.75,1.06-2.4v77Z"/>
  <path class="cls-141" d="M425.32,6.28c1.83,21.14.29,48.75.02,70.51-.02,1.69.64,4.45-1.02,5.49v-14c-.85-2.64-.85-5.34,0-8v-1c-1.97-11.31-1.97-22.69,0-34,0-6.74-.85-14.62,1-21,.15.49-.06,1.35,0,2Z"/>
  <path class="cls-42" d="M562.32,133.28v-1l-1.61-3.04c1.74-11.92,1.63-24.06-1.6-35.72l1.21-3.23c-3.12.12-4.24-6.15-2-8,.28-.86.62-.84,1,0,6.19,15.22,8.86,35.36,3,51Z"/>
  <path class="cls-222" d="M353.32,54.28c.09.98-.43,1.05-1.28.84-2.9-.69-6.64-3.83-9.72-4.84l-2.84,1.25c-8.98-2.27-18.45-1.76-27.28.9l-2.88-1.15c-1.66.67-1.93.61-1-1,15.47-6.45,30.86-4.63,45,4Z"/>
  <path class="cls-151" d="M870.32,175.28c1.35-.33,1.64-.33,1,1-3.29,1.2-12.52,4-15.5,4h-15c-1.04,0-7.7-1.58-9.5-2-1-.99-.33-1.32,2-1,6.3,1.17,13.58,1.36,20,1,5.56-.31,11.75-1.26,17-3Z"/>
  <path class="cls-125" d="M626.32,81.28c.01-.09-.85-.55-1.01-.95,4.02-.78,10.14-2.9,14.01-3.05,4.94-.19,13.51,4.85,14.02-4.48l-.02-22.52c1.47,2.94,1.75,25.5.1,27.6-2.29,2.91-21.89.23-27.1,3.4Z"/>
  <path class="cls-220" d="M332.32,179.28c2.3-.22,8.51-1.44,11-2-14.22,6.28-31.04,3.56-43-6,.31-.43.64-.41,1,0l2.97-.67c8.94,4.09,18.29,6.98,28.03,8.67Z"/>
  <path class="cls-145" d="M441.32,105.28c-.66,12.38.17,23.98,3,36-5.56-15.05-5.49-22.35-4-38,.57-.15.9.52,1,2Z"/>
  <path class="cls-120" d="M751.32,172.28c-10.53,5.91-21.92,8.14-34,8-1.13-.25-2.13-.58-3-1-.87-.28-.86-.62,0-1,5.53.24,11.69.43,17-1l20-5Z"/>
  <path class="cls-24" d="M123.32,168.28c2.49,1.51-2.46,4.97-3,7h32.5c.44,0,3.97-4.33,5-4.98l.5.98c-3.09,3.56-2.15,3.66-7,5l-22,1c-.99-.04-2.01.07-3,0l-5-1c-.95-.39-2.26-.08-2.98-1.5,1.73-2.1,3.42-4.28,4.98-6.5Z"/>
  <path class="cls-109" d="M50.32,177.28c6.76.88,13.91,1.53,21,1,.72.08,1.15.16,1,1-12.16,1.5-22.07,1.22-34-3-1.45-1.03-1.11-1.37,1-1,3.49,1.18,7.35,1.53,11,2Z"/>
  <path class="cls-178" d="M789.32,130.28c1.44,7.16,3.72,15.05,8,21v1c-.3.62-.63.61-1,0-6.7-11.41-9.28-20.56-10-34,.28-.87.62-.86,1,0,.29,3.27,1.27,8.39,2,12Z"/>
  <path class="cls-217" d="M113.32,152.28c-2.1-2.57,1.9-7.52-.96-9.54-.81-.57-17.54-3.42-19.59-3.5-.96-.04-6.15.84-6.45,1.04.7-2.28,2.58-1.95,4.45-2.06,3.99-.24,21.68,1.8,23.63,4.49,1.73,2.38.03,6.87-1.08,9.57Z"/>
  <path class="cls-133" d="M118.32,120.28c2.04-10.33-.23-20.05-2.34-30.17-.3-1.46-1.56-3.86.34-4.83,2.7,8.36,5.22,22.89,3.95,31.47-.28,1.9-.71,2.29-1.95,3.53Z"/>
  <path class="cls-67" d="M773.32,121.28v-1l-1.12-2.21c1.7-8.02,1.12-16.43-1.75-25.22l1.87-1.57c-.06-.99,0-2.01,0-3-.73-1.01-.73-1.67,0-2,1.79,5.42,3.58,10.7,4.04,16.46.36,4.54,1.16,16.49-3.04,18.54Z"/>
  <path class="cls-27" d="M535.32,172.28c-8.96,5.18-16.6,7.36-27,8-.87-.28-.86-.62,0-1,1.05-2.48,3.72-3.14,8-2-.42-1.95,9.54-5.22,11.12-5.37l1.88,1.37c.4-2.97,3.11-4.37,5-2,1.63-.64,1.9-.58,1,1Z"/>
  <path class="cls-149" d="M397.32,176.28c1.03-1.86,4-.1,6,0l1.22-1.94c6.52.92,12.42,0,17.69-2.8l2.1.74h1c-3,7.43-21.26,6.61-28,4Z"/>
  <path class="cls-18" d="M870.32,120.28c8.82,0,17.68-.11,26.51-.02,1.69.02,4.45-.64,5.49,1.02-.28.08-.65-.04-1,0-11.85,1.44-29.44,0-42,0-.87-.28-.86-.62,0-1,3.63-1.97,7.37-1.97,11,0Z"/>
  <path class="cls-177" d="M379.32,126.28c-.28.87-.62.86-1,0,.77-10.13,1.05-15.83,0-26,.08-.73.16-1.16,1-1,1.85,11.64,2.08,15.29,0,27Z"/>
  <path class="cls-121" d="M905.32,108.28c.96,1.6.49,3.29,0,5-.36,2.21.26,3.46-1,6v-13.49c-1.14-5.79-1.75-11.77-3-17.51,3.23,1.43,4.01,16.34,4,20Z"/>
  <path class="cls-92" d="M211.32,50.28c3.85-.53,29.33-.38,31.42.9.88.54.79,1.29.58,2.1-8.64-1.42-23.64-3.7-32-2-.87-.28-.86-.62,0-1Z"/>
  <path class="cls-101" d="M160.32,54.28l-8.62-2.88c-7.22-.9-15.49,1.26-22.38-1.12,5.9-.27,25.04-1,29,1.54,1.08.69,1.34,1.7,2,2.46Z"/>
  <path class="cls-107" d="M658.32,100.28c-.83,8.07,1.13,18.22,0,26,.93,1.73.58,2.24-1,1-.15-1.29.05-2.69,0-4l-1-6c-.04-2.96-.16-6.05,0-9l1-5c.14-1.28-.19-2.77,0-4,.73-1.03,1.06-.7,1,1Z"/>
  <path class="cls-176" d="M639.32,47.28c.71.09,1.14.17,1,1-1.38.13-6.33,1.48-8,2-5.19,1.61-8.89,4.82-14,6,5.16-5.23,13.79-8.38,21-9Z"/>
  <path class="cls-246" d="M896.32,156.28c-1.87-2.14,1.55-4.94,1.94-7.57,1.39-9.25-5.08-5.54-10.94-8.43h1c14.23.18,14.51,4.58,8,16Z"/>
  <path class="cls-205" d="M849.32,46.28l5,1c3.44.5,6.48.06,10,2-6.72-.4-14.57-1.41-22-1-1.64.09-3.43-.18-5,0-.84-.03-1.24-.08-1-1,.93-.15,2.04.12,3,0,2.23-.77,4.56-1.1,7-1,1-.03,2,.01,3,0Z"/>
  <path class="cls-114" d="M76.32,151.28c-.02.08.86.49.96.89-5.44,2.53-12.33,3.97-18.34,3.77-1.61-.05-3.13-.66-2.62-2.66,7.34.53,12.76,1,20-2Z"/>
  <path class="cls-38" d="M698.32,175.28c3.07-2.27,12.64.14,15,3,.33.02.67-.01,1,0v1c-.73.94-2,.5-3,0-9.26-.41-11.83-1.44-20-5,2.31.12,4.78.44,7,1Z"/>
  <path class="cls-21" d="M39.32,175.28l-1,1c-6.52-2.3-11.72-5.56-17-10,1.93-1.69,2.29.21,3.5.95,4.17,2.56,10.01,6.53,14.5,8.05Z"/>
  <path class="cls-237" d="M658.32,100.28l-1-1c1.22-7.85,2.75-11.91,6-19l-5,20Z"/>
  <path class="cls-36" d="M242.32,172.28c.55,1.33,1.34,2.36,1,4-.93.18-2.22-.21-3,0l-8,1c-2.65.1-5.35.02-8,0-.65-.12-1.09-.23-1-1,.13,0,1.13-.99,2.42-1.04,4.75-.18,11.86.83,16.08.05,1.1-.2-1.25-2.67.5-3Z"/>
  <path class="cls-119" d="M562.32,133.28c-1.16,7.89-2.95,12.13-7,19h-1l-1.05-2.03,4.73-13.2,2.32-.77c-2.35-2.03-1.02-4.59,2-4-.05.33.05.67,0,1Z"/>
  <path class="cls-100" d="M91.32,174.28c-6.89,3.32-11.52,4.07-19,5l-1-1c5.94-.44,10.16-1.92,15.64-3.87,1.28-.46,3.4-2.25,4.36-.13Z"/>
  <path class="cls-25" d="M482.32,176.28c1.94-3.04,8.27-.91,10.43,1.07,2.58-.22,4.11.42,4.57,1.93.87.28.86.62,0,1-6.75-.49-10.84-1.91-17-4,.46-.6,1.13-.6,2,0Z"/>
  <path class="cls-93" d="M805.32,164.28c-4.44-4.28-5.98-6.86-9-12h1c2.15,3.05,4.5,5.72,7.02,8.48.74.81,3.35,2.66.98,3.52Z"/>
  <path class="cls-187" d="M901.32,88.28c-.19-.09-.66,0-1,0-3.69-3.33-7.79-12.07-7-17,2.14.27,6.81,9.92,7.42,12.1.58,2.07.27,3.51.58,4.9Z"/>
  <path class="cls-69" d="M828.32,50.28c-.35.11-1.15,1.43-1.96,1.5l-13.04,4.5c5.11-3.27,9.14-5.29,15-7,.87.28.86.62,0,1Z"/>
  <path class="cls-150" d="M485.32,48.28l1,1c-.21,2.99-5.87,5.24-8,3-1.25,1.11-2.58,1.78-4,2-.46,2.62-1.05,2.81-3,1-.08-.46-.54-.87-1-1,4.76-2.64,9.56-4.73,15-6Z"/>
  <path class="cls-221" d="M787.32,107.28c-.46-.19-.79-.85-1-2,.34-5.07.85-10.37,3-15-.01.07.79.56.7,1.28l-2.7,15.72Z"/>
  <path class="cls-219" d="M377.32,89.28v1c-1.56-1.93-2.08-4.65-3-7-3.17.49-5.9-7.73-4-10,.3-.64.63-.62,1,0,3.44,6.12,4.22,9.33,6,16Z"/>
  <path class="cls-245" d="M726.32,153.28c.87.28.86.62,0,1-3.12,3.85-13.29,4.13-17,1l1-2c4.56,1.06,11.4.95,16,0Z"/>
  <path class="cls-143" d="M732.32,153.28c-1.69,2.74-4.02,4.01-6,1v-1c7.84-1.62,8.97-3.8,14-9,2.34.82-.21,2.73-.99,3.52-1.7,1.71-4.92,4.59-7.01,5.48Z"/>
  <path class="cls-169" d="M421.32,1.28h-22c5.92-1.45,16.36-1.94,22,0Z"/>
  <path class="cls-236" d="M795.32,77.28c-.5,2.73-2.44,6.18-3.53,9.02-.59,1.55.29,3.57-2.47,2.98.76-5.6,3.38-9.36,6-14,.74-.03.74.64,0,2Z"/>
  <path class="cls-208" d="M140.32,80.28c-3.53-4.39-6.81-9.34-10-14,4.46,1.82,9.26,9.34,10,14Z"/>
  <path class="cls-115" d="M766.32,158.28c-2.02-.61.01-2.99.49-4.01,1.76-3.79,2.69-7.39,4.51-10.99,1,4.93-2.49,11.03-5,15Z"/>
  <path class="cls-198" d="M823.32,174.28c1.43,1.05,1.1,1.38-1,1-5.43-2.23-8.5-4.6-13-8,4.99.92,9.33,5.12,14,7Z"/>
  <path class="cls-232" d="M618.32,88.28c-2.62,4.59-5.46,9.89-7,15,.63-4.88,1.45-13.09,7-15Z"/>
  <path class="cls-240" d="M369.32,156.28c2.27-4.51,5.2-11.28,7-16-1.4,5.56-2.16,11.91-7,16Z"/>
  <path class="cls-196" d="M151.32,176.28c-6.13,1.7-15.29,1.25-22,1,6.76-2.29,14.91-.4,22-1Z"/>
  <path class="cls-8" d="M223.32,176.28l1,1c-4.02-.02-13.89.85-16.6-.94-.73-.48-.96-1.66-1.4-2.06,5.67,2.3,10.98,2.16,17,2Z"/>
  <path class="cls-12" d="M239.32,58.28c-1.62,4.4-5.14,8.34-8,12,.45-2.97,4.1-9.37,5.95-11.33.93-.98,1.98-.59,2.05-.67Z"/>
  <path class="cls-20" d="M697.32,144.28c-.16-.14-.67,1.57-3-2-1.34-2.06-4.65-7.99-3-10,1.39,4.02,3.57,8.47,6,12Z"/>
  <path class="cls-231" d="M37.32,139.28c-.08-.01-.47.84-.89.96-2.55-4.56-2.52-8.15-3.11-12.96.19-.39.96-.8,1-1l3,13Z"/>
  <path class="cls-201" d="M478.32,174.28c2.17-2.4,4.73-1.24,4,2-.66-.07-1.34.04-2,0-4.3-1.46-7.92-2.5-12-5-.11-.92.45-1.1,1.28-.84,2.58.8,5.74,2.71,8.72,3.84Z"/>
  <path class="cls-63" d="M367.32,67.28c-.28.87-.62.86-1,0-1.36,2.32-2.34,1.67-2-1-2.55-2.28-5.06-6.27-7.98-8.5l.98-.5c3.75,2.91,7.06,6.28,10,10Z"/>
  <path class="cls-230" d="M751.32,56.28c.1.95-.44,1.14-1.3.85-3.51-1.19-6.43-5.22-10.7-4.85-.86-.33-.86-.67,0-1-.82-.76-.48-1.09,1-1,3.56,1.35,7.81,3.86,11,6Z"/>
  <path class="cls-39" d="M608.32,55.28c.29,2.77.12,6.63,0,9.51-.05,1.22.75,3.71-.99,3.48-.83-4.47,1.99-13.4-2.01-15.99l1-1c2.19,1.53,1.73,1.43,2,4Z"/>
  <path class="cls-142" d="M670.32,68.28c2.73-3.44,5.61-6.22,9-9l-4,5.5-5,3.5Z"/>
  <path class="cls-90" d="M367.32,160.28c-2.29,3.49-5.79,6.39-9,9h-1c-2.52-1.03,4.95-9.36,5.54-9.49.82.7,1.64.96,2.46.49.28-.2,1.43.13,2,0Z"/>
  <path class="cls-77" d="M893.32,160.28c-2.51,3.22-4.82,5.46-8,8l5.43-7.11,2.57-.89Z"/>
  <path class="cls-179" d="M881.32,171.28c-3.19,2.01-6.44,3.7-10,5l-1-1c2.88-.95,6.93-4.19,9.72-4.84.85-.2,1.37-.14,1.28.84Z"/>
  <path class="cls-53" d="M769.32,141.28c-.18.01-1.11,1.17-2.42,1.04-3.05-.3-6.9-1.72-9.58-2.04-.87-.28-.86-.62,0-1,4.13.5,7.91,1.46,12,2Z"/>
  <path class="cls-157" d="M757.32,139.28v1c-.65-.08-1.35.08-2,0-2.16-.27-4.49-1.12-6.52-1.12-.64,0-5.25.96-5.48,1.12,2.33-3.88,9.75-1.52,14-1Z"/>
  <path class="cls-64" d="M209.32,102.28c-2.15,3.03-4.07,6.62-7,9-.24-2.48,2.45-5.02,4.19-7.31.38-.49,2.19-3.82,2.81-1.69Z"/>
  <path class="cls-197" d="M169.32,69.28c2.87.32,5.2,6.1,7,9-1.5.4-6.69-6.26-7-7-.21-.49.21-1.58,0-2Z"/>
  <path class="cls-94" d="M550.32,159.28c-2.77,3.4-5.57,6.27-9,9-.54-.3-.52-.64,0-1-1.73-2.31-.93-3.67,2-3,2.09-1.86,4.43-4.48,7-5Z"/>
  <path class="cls-156" d="M828.32,175.28c1.39.42,3.73,1.76,5,2l-2,1c-3.1-.72-6.06-1.79-9-3l1-1c1.6.65,3.54.56,5,1Z"/>
  <path class="cls-75" d="M666.32,150.28c.58,1.26,1.35,2.75,2,4-3.17-.07-4.83-7.12-6-10,2.2,1.17,3.02,3.88,4,6Z"/>
  <path class="cls-233" d="M830.32,148.28s-.4.77-.98.49c-.3-.15-4.84-4.2-5.02-4.49-.41-.65-.63-2.47-.79-3.38l.79-.62c1.8,2.86,3.88,5.39,6,8Z"/>
  <path class="cls-80" d="M107.32,161.28c-2.59,3.18-4.75,5.46-8,8,.81-3.84,5.12-6.04,7.5-8.98l.5.98Z"/>
  <path class="cls-132" d="M441.32,99.28c-.28.87-.62.86-1,0,.48-3.34,1.11-6.75,2-10,.28-.87.62-.86,1,0-.41,1.53-1.84,8.57-2,10Z"/>
  <path class="cls-184" d="M771.32,82.28c-.28.87-.62.86-1,0-1.34-3.19-5.34-6.84-5-11,2.2,3.49,4.49,7.15,6,11Z"/>
  <path class="cls-40" d="M141.32,144.28c-1.65,2.9-3.34,7.57-7,8,1.42-2.48,4.48-7.8,7-8Z"/>
  <path class="cls-185" d="M141.32,81.28c.07.08,1.18-.3,2.05.67,1.5,1.7,3.94,6,3.95,8.33-2.03-2.81-4.97-5.62-6-9Z"/>
  <path class="cls-3" d="M287.32,69.28c-.05.05.12,1.17-.99,1-.05-.66.03-1.34-.01-2-1-4.27-.77-8.72,0-13h1c.63,4.21-.45,9.61,0,14Z"/>
  <path class="cls-65" d="M134.32,154.28c-1.63,2.91-3.36,7.57-7,8,1.8-2.59,4.2-7.74,7-8Z"/>
  <path class="cls-204" d="M177.32,143.28c1.07-2.09,3.06-9.11,6-7,.23.17-.17,1.57,0,2-2.87-.38-2.92,4.11-6,5Z"/>
  <path class="cls-238" d="M8.32,80.28h-1c1.43-3.11,1.96-4.91,4-8,2.41,1.72-2.19,6.15-3,8Z"/>
  <path class="cls-200" d="M152.32,97.28c.07.08,1.03-.45,2.07.65,1.38,1.47,3.96,6.21,3.93,8.35-2.06-2.82-4.91-5.61-6-9Z"/>
  <path class="cls-186" d="M295.32,164.28c2.55-2.07,8.01,4.71,6,7h-1c-2.98-2.38-4.57-4.14-7-7l.5-.97c.37.49,1.13.64,1.5.97Z"/>
  <path class="cls-194" d="M661.32,141.28c-.88-2.5-2.37-5.16-3-8-.06-2.66.01-3,2-1,.44,2.88,2.31,7.09,1,9Z"/>
  <path class="cls-79" d="M114.32,81.28l-.99,1c-.52-3.49-3.19-6.1-3.97-9.44l.95-.55c1.69,2.89,2.76,5.91,4,9Z"/>
  <path class="cls-113" d="M651.32,48.28c-.11,0-.77.91-1.48.83-2.29-.29-4.01-.96-6.52-.83-.99.05-2.02-.1-3,0l-1-1c3.69-.32,8.63-.44,12,1Z"/>
  <path class="cls-55" d="M179.32,83.28c2,2.81,2.44,6.65,5,2-.04.15,1.89,1.47.05,2.54-3.09,2.38-7.01-2.37-5.05-4.54Z"/>
  <path class="cls-47" d="M457.32,65.28c-.17,3.41-4.18,4.96-6,7,2.61-5.05,3.26-4.14,6-7Z"/>
  <path class="cls-134" d="M309.32,51.28c.84,2.68-.77,3.85-3,2-1.63.77-3.12,1.84-5,2-.31.48-.64.47-1,0,2.72-2.1,4.74-3.64,8-5l1,1Z"/>
  <path class="cls-188" d="M39.32,51.28l1,.99c-2.94.49-5.41,2.58-8.41,2.84l-.59-.83c3.16-1.67,4.75-2.01,8-3Z"/>
  <path class="cls-152" d="M379.32,99.28l-1,1c-.34-3.32-.43-6.69-1-10v-1c1.15,4.32,1.3,5.6,2,10Z"/>
  <path class="cls-7" d="M881.32,139.28c-1.73.07-3.86-.34-5.45,0-2.02.44-2.36,1.73-3.56,2.37-.51.27-.95-.41-.99-.37,1.14-3.6,7.66-4.2,10-2Z"/>
  <path class="cls-115" d="M836.32,47.28l1,1c-1.19.14-7.69,1.6-9,2v-1c2.47-.72,5.51-1.6,8-2Z"/>
  <path class="cls-213" d="M211.32,50.28v1c-1.96.4-5.04,3.47-6.5,4.98l-.5-.98c2.15-2.68,3.17-4.47,7-5Z"/>
  <path class="cls-146" d="M787.32,107.28c.2,3.61-.31,7.43,0,11h-1c-.22-4-.26-9.02,0-13,.96.27.95,1.15,1,2Z"/>
  <path class="cls-195" d="M54.32,153.28c-.63-.11-1.43.14-2,0-2.71-.65-6.93-1.78-7-5,2.92,2.16,5.95,3.2,9,5Z"/>
  <path class="cls-118" d="M443.32,89.28h-1c.65-2.39,1.96-5.71,3-8,2.9,2.14-1.61,6.56-2,8Z"/>
  <path class="cls-35" d="M795.32,77.28c.11-.61-.08-1.36,0-2,1.15-2.04,1.46-2.9,3-5,2.24,1.19-2.02,5.33-3,7Z"/>
  <path class="cls-103" d="M559.32,82.28h-1c-2.82,1.38-4.94-2.68-3-5-.31-.78-1.02-1.45-.91-2.41l.91-.59c1.35,2.23,3.02,5.58,4,8Z"/>
  <path class="cls-129" d="M541.32,167.28v1c-2.04,1.62-3.76,2.71-6,4l-1-1c-.78-2.91,4.93-6.12,7-4Z"/>
  <path class="cls-17" d="M660.32,132.28l-2,1c-.43-1.94-.77-4.02-1-6,.48-.11.93-.53,1-1h1c.08,2.73.67,3.89,1,6Z"/>
  <path class="cls-34" d="M508.32,179.28v1c-3.34.2-7.67.24-11,0v-1c2.64-1.91,6.31-1.91,11,0Z"/>
  <path class="cls-124" d="M288.32,160.28c-.26,2.09,0,4.78,0,7l-2.01-8.49,1-.5,1.01,1.99Z"/>
  <path class="cls-164" d="M371.32,73.28h-1c-2.92,1.86-7.63-4.11-4-6h1c1.62,2.05,2.72,3.72,4,6Z"/>
  <path class="cls-30" d="M194.32,71.28c.05.45,1.2,1.33.87,1.84-.44.66-4.57,2.88-4.87,3.16.68-2.04,1.51-5.49,4-5Z"/>
  <path class="cls-188" d="M16.32,66.28c1.88-2.07,2.82-3.12,5-5,1.87,1.23-3.61,4.47-4.5,5.98l-.5-.98Z"/>
  <path class="cls-40" d="M169.32,67.28c-3.05-.22-4.98-4.2-5-7,1.5,2.29,3.83,4.47,5,7Z"/>
  <path class="cls-182" d="M376.32,140.28c.67-2.65,1.48-6.33,2-9-.51,4.59-.34,4.65-2,9Z"/>
  <path class="cls-162" d="M171.32,152.28v-1c-1.71-.94-.74-1.67,1-2,.23-.68.77-1.31,1-2,.46-1.67.73-2.51,2-1-1.77,3.04-2.02,3.32-4,6Z"/>
  <path class="cls-100" d="M159.32,118.28l3-6c.07,0,.47-1.04.98-1.01.99,4.42-1.98,4.88-3.98,7.01Z"/>
  <path class="cls-248" d="M221.32,142.28l-.5.98c-1.69-1.97-3.67-4.19-3.5-6.98,1.35,1.99,2.65,4.03,4,6Z"/>
  <path class="cls-117" d="M875.32,53.28c-.32.35-.64.7-1,1-2.32,1.93-5.18.83-6-2-1.33-1.41-.77-1.92,1-1,2.21.74,3.5.71,6,2Z"/>
  <path class="cls-244" d="M166.32,159.28c-.03,2.33-1.99,3.45-3,5-1.09-4.87,1.86-4,3-5Z"/>
  <path class="cls-183" d="M703.32,150.28c-2.21-.95-4.07-.22-4.97-3.51l.97-.49c1.54,1.18,3.2,2.08,4,4Z"/>
  <path class="cls-175" d="M225.32,78.28c1.84-3.23,1.44-2.95,4-6l-4,6Z"/>
  <path class="cls-226" d="M351.32,174.28c-1.54.83-4.59,2.67-6,3-.92-2.21,5.24-4.89,6-3Z"/>
  <path class="cls-218" d="M863.32,150.28c4.77-.09-.4,1.93-3,3-.96.1-1.33,0-1-1,.21-.08,3.81-1.88,4-2Z"/>
  <path class="cls-19" d="M231.32,158.28c-1.61-1.67-3.29-3.45-3-6,1.16,1.85,3.52,3.11,3,6Z"/>
  <path class="cls-191" d="M198.32,64.28c.7-.97.56-3.53,3-4-.72,1.44-.55,3.86-2.5,4.98l-.5-.98Z"/>
  <path class="cls-108" d="M859.32,152.28l1,1c-1.21.5-4.8.84-5,1l-1-1c1.37-.28,4-.63,5-1Z"/>
  <path class="cls-57" d="M888.32,140.28c-.33,0-.67-.02-1,0-2.29.11-2.92-.55-5,1-.81-.35-.79-1.8-1-2,2.13-.08,5.69-.66,7,1Z"/>
  <path class="cls-130" d="M240.32,176.28c-3.48.96-4.42.87-8,1,1.73-2,5.5-.68,8-1Z"/>
  <path class="cls-154" d="M462.32,62.28h-2c1.36-1.23,2.03-2.49,4-4l.98.5c-.66.9-3.04,2.55-2.98,3.5Z"/>
  <path class="cls-167" d="M690.32,122.28c-.23,2.27.16,4.7,0,7-.65-2.35-2.5-5.52,0-8-.02.33.03.67,0,1Z"/>
  <path class="cls-68" d="M301.32,55.28c-1.09,1.92-2.61,3.86-5,4,1.48-1.45,2-2.46,4-4h1Z"/>
  <path class="cls-210" d="M156.32,123.28c-.95,1.85-1.72,3.72-3.51,4.98l-.49-.98c1.27-1.71,1.67-4.51,4-4Z"/>
  <path class="cls-79" d="M11.32,155.28c-.76-1.13-1.3-2.74-2-4l.5-.98c1.3,1.14,2.22,2.71,2.46,4.43l-.96.55Z"/>
  <path class="cls-105" d="M450.32,154.28c-.76-1.11-1.3-2.74-2-4l.5-.98c1.3,1.14,2.22,2.71,2.46,4.43l-.96.55Z"/>
  <path class="cls-96" d="M123.32,51.28c1.7.22,4.35-.8,4,.99l-4.33.2-.67.81c-.1-.23-1.52-.31-1-2,.62-.14,1.54.17,2,0Z"/>
  <path class="cls-82" d="M194.32,154.28c-.07,0-.6.85-1,1-.78-1.25-1.22-2.75-2-4,1.59-1.46,2.37,1.76,3,3Z"/>
  <path class="cls-214" d="M611.32,68.28h-1c-.25-2.8,2.03-3.67,3-5-.27,1.81-1.08,3.46-2,5Z"/>
  <path class="cls-168" d="M869.32,51.28l-1,1c-.18.87-.52.84-1,0-1.25-.77-2.35-1.34-2-3,2.57.15,3.11,1.7,4,2Z"/>
  <path class="cls-203" d="M740.32,50.28c-.17.39-.99.85-1,1-1.42,2.53-4.19,1.81-5-1v-1c1.7.46,3.91.2,6,1Z"/>
  <path class="cls-166" d="M448.32,76.28c1.19-1.72,1.49-2.3,3-4-.73,1.4-.54,3.88-2.5,4.98l-.5-.98Z"/>
  <path class="cls-209" d="M772.32,86.28v2c-2.05-1.41-1.35-4.46-2-6h1c.47,1.19.58,2.73,1,4Z"/>
  <path class="cls-190" d="M846.32,46.28c-.8.02-5.27.78-7,1,1.42-1.9,4.81-.76,7-1Z"/>
  <path class="cls-174" d="M291.32,161.28c-.48-.68-2.35-1.07-2-3,.06-.06-.09-1.09.49-.98,1.43.96,1.69,2.3,1.51,3.98Z"/>
  <path class="cls-217" d="M81.32,147.28c.65-1.01,1.34-2,2-3l1.01.52c-.13,1.63-2.76,4.55-3.01,2.48Z"/>
  <path class="cls-155" d="M822.32,137.28c-.78,2.66-1.79-1.34-2-3-.04-.33.04-.67,0-1,1.8.81,1.43,2.9,2,4Z"/>
  <path class="cls-17" d="M657.32,123.28c-1.68-1.09-.97-4.11-1-6,1.71,1.1.93,4.11,1,6Z"/>
  <path class="cls-180" d="M611.32,109.28h-1c.38-2.46.14-3.15,1-6-.24,1.87.15,4.06,0,6Z"/>
  <path class="cls-173" d="M441.32,105.28l-1-2c.12-1.29-.18-2.75,0-4h1c-.21,1.91.1,4.04,0,6Z"/>
  <path class="cls-202" d="M107.32,68.28l-.49.98c-1.04-1.02-2.44-1.87-2.51-3.46l1.01-.52c.74.88,1.3,2.05,2,3Z"/>
  <path class="cls-68" d="M294.32,63.28c-.18-.06-1.93,1.29-2,0,1.16-1.35,1.98-1.95,3-3l-1,3Z"/>
  <path class="cls-153" d="M687.32,55.28c-1.12.53-1.92,2.82-4,1,1.05-.69,1.71-1.31,3-2l1,1Z"/>
  <path class="cls-243" d="M714.32,179.28c1.09.05,2.51-.31,3,1-1.89-.02-4.91.68-6-1,1,.04,2-.05,3,0Z"/>
  <path class="cls-136" d="M378.32,131.28c.18-1.63-.13-3.36,0-5h1c-.31,1.75-.67,3.32-1,5Z"/>
  <path class="cls-70" d="M209.32,124.28h-1c-.23-.4-3.82-1.92-1-3,.62,1.03,1.36,1.99,2,3Z"/>
  <path class="cls-50" d="M905.32,113.28c0-1.67,0-3.33,0-5,2.63,1.38.15,4.08,0,5Z"/>
  <path class="cls-237" d="M656.32,108.28c.13-2.36.91-4.13,1-5-.06,1.6.62,4.15-1,5Z"/>
  <path class="cls-192" d="M126.32,177.28c-2.52-.19-2.52.02-5-1,1.6.06,4.15-.62,5,1Z"/>
  <path class="cls-190" d="M854.32,47.28c-1.6-.06-4.15.62-5-1,2.76-.04,3.82.83,5,1Z"/>
  <path class="cls-46" d="M83.32,86.28c.13.14,1.46-.55,2.03.66,1.06,2.25,3.18,12.4,1.04,13.91-1.53,1.07-22.97.37-27.06.44-3.71.06-7.32-.02-11,0-.79,1.57-1.79,1.17-3,0-2.94-.03-4.6.32-8,0-.55,1.53-1.36,1.48-2,0-.25-.35-1.56-.47-1.77-1.6-.18-1,.63-3.02.77-4.4.28-.87.62-.86,1,0-.08.9-.2,3.43,0,4,15.61,1.3,32.3,1.29,48,0,.38-.15,1.28.32,1.85-.11.97-4.51-.6-8.67-1.85-12.89Z"/>
  <path class="cls-127" d="M75.32,74.28c.63,1.43,2.1,2.56,3,4-10.06-7.28-22.58-8.49-33-1-.06-2.54,1.86-2.98,3.63-3.87,8.57-4.28,17.97-2.71,26.37.87Z"/>
  <path class="cls-99" d="M39.32,83.28c-1.82,3.7-3.64,7.84-4,12h-1c.4-3.95.82-8.9,3.57-12.08.82-.94,1.38.13,1.43.08Z"/>
  <path class="cls-91" d="M48.32,101.28c.52,3.22-1.94,2.5-3,0,1,0,2,0,3,0Z"/>
  <path class="cls-91" d="M37.32,101.28l1,1.99c-4.12.8-2.51-1.31-3-1.99.66.04,1.34-.06,2,0Z"/>
  <path class="cls-174" d="M332.32,179.28c-11.01,1.04-21.56-2.76-31-8-1.79-2.01-4.12-5.31-6-7,1.28-4.79,8.3-10.5,13-12,3.69-.03,7.69-.03,12,0,.19-.89.52-.86,1,0,4.05,0,8.05-.66,12-2,5.34,5.88-7.61,21.67-7.01,24.47.29,1.36,5.62,1.86,6.01,4.53Z"/>
  <path class="cls-104" d="M291.32,93.28l1.29,2.32c-3.46,12.05-3.47,25.43.82,37.27l-1.1,2.41c.64,1.68.62,1.92-1,1-4.25-8.75-4.91-19.4-5-29,.16-2.07.49-4.07,1-6,0-.33,0-.67,0-1,1.5-1.91,2.17-4.68,3-7,.11-.29-.1-.7,0-1,1.31-1.33,1.46-.78,1,1Z"/>
  <path class="cls-140" d="M320.32,152.28c-4.26.13-6.4,1.61-12,0-6.66-1.91-14.01-9.84-17-16l1-1,2.57.57c4.86,8.42,13.82,14.29,23.65,14.47l1.78,1.96Z"/>
  <path class="cls-10" d="M286.32,107.28c-.02-1.95-1.47-4.15,1-6-.01,1.88.67,4.92-1,6Z"/>
  <path class="cls-192" d="M172.32,149.28c-.23.68-.75,1.31-1,2l-1.99,1c-.36-3.31-.19-3.26,2.99-3Z"/>
  <path class="cls-192" d="M173.32,147.28c.55-1.63-1.3-3.64,1.99-2.99-.07.62.17,1.67,0,1.99-.13.25-1.56.61-2,1Z"/>
  <path class="cls-144" d="M171.33,131.28c.57-.57,2.98.83,2.97,1.49,0,2.77-4.49.02-2.97-1.49Z"/>
  <path class="cls-51" d="M87.32,77.28c.29.29.64,3.8-1.48,2.99-3.62-1.38-.26-4.72,1.48-2.99Z"/>
  <path class="cls-71" d="M81.32,83.28c-1.25-1.79-1.99-3.38-3-5,1.63,1.18,3.74,2.29,4.01,4.48l-1.01.52Z"/>
  <path class="cls-181" d="M860.32,100.28l-.78,2.16c-10.88,1.6-18.91,7.31-22.22,17.84-5.81.67-11.81.67-18,0-.77.19-.81.24-1,1l-3.01-.51c-.28-3.19,5.96-15.24,8.21-16.21.5-.22,1.62.62,2.12.4,1.5-.64,2.12-2.08,3.39-2.49,3.1-1,8.14.16,11.29-2.2,6.2-.81,13.71-.79,20,0Z"/>
  <path class="cls-181" d="M867.32,52.28c.32-.02.68-.02,1,0,1.99.14,4.15,1.26,6,2-6.43,5.28-4.72,17.57-9,24-1.54-.68-3.2-1.35-5-2-.67-.46-4.72-2.91-5-3-1.6-.83-3.26-1.49-5-2,1.55-3.49-.81-9.36,1.99-12.51.89-1,13.24-6.36,15.01-6.49Z"/>
  <path class="cls-211" d="M871.32,99.28c1.26,1.56.67,2.11-1,1-2.22,2.26-8.47,3.15-10,0h-20c-6.28,0-12.73.3-19,0-.87-.28-.86-.62,0-1h50Z"/>
  <path class="cls-48" d="M850.32,71.28c2.12.15,3.98.33,6,1.01l-1,.99c-2.92-.92-10.99-1.47-14-1-1.35-.01-2.3.44-1.99-.99,3.63.16,7.37-.26,10.99-.01Z"/>
  <path class="cls-206" d="M821.32,99.28v1c-.66-.03-1.34.06-2,0,.16-2.34-.45-5.15.18-7.37.35-1.24,1.72-1.45,1.82-1.64.73,2.78-2.01,6.01,0,8Z"/>
  <path class="cls-45" d="M834.32,75.28c-1.77.86-3.41,1.85-5,3,.03-.04-.76-.56-.46-1.01.99-1.51,3.14-2.64,4.91-2.96l.55.97Z"/>
  <path class="cls-22" d="M734.32,50.28c1.62.38,3.41.36,5,1-.02.33.03.67,0,1-.02.24.81.96.68,1.5-.81,3.25-5.11,1.89-6.7,2.98-.92.63-.91,2.83-2.03,3.97-3.37,3.43-6.87,3.92-6.95,10.56-.8,1.34-4.57.55-5-1-3.9,1.28-9.29,2.29-13,2-3.73.32-1.41-1.07-1-2.5,1.63-5.84,3.71-7.81,8.06-11.94,2.99-2.84,6.83-2.44,5.94-9.56,6.26.07,9.07.61,15,2Z"/>
  <path class="cls-76" d="M740.32,99.28c.87.28.86.62,0,1-1.33,2.82-4.63,2.75-6,0-4.55.57-9.16.72-13.84.48-1.6,2.33-4.44,1.73-6.16-.48-5.85.94-15.77-1.29-21,0-1.03.08-1.61.11-2-1h49Z"/>
  <path class="cls-171" d="M719.32,70.28c1.59.84.93,1.51-2,2-4.37-.05-9.12.96-13,3l-.98-.5c.85-.58,2.25-2.2,2.98-2.5,2.62-1.08,10.04-2.18,13-2Z"/>
  <path class="cls-32" d="M693.32,87.28c.37,1.77-1.85,4.16-2,5,.35-1.9.17-4.04,1.05-6,.4.15.86,1.02.95,1Z"/>
  <path class="cls-58" d="M691.32,98.28c-2.66-1.71-.25-4.62,0-6-.23,1.31-.18,4.61,0,6Z"/>
  <path class="cls-128" d="M602.32,51.28c-.93,7.79-6.86,3.76-10.56,5.4-3.33,1.47-1.08,5.22-1.61,7.84-.34,1.69-2.04,3.22-2.3,4.64-1.11,6.1.21,10.24-2.76,17.4-.77,1.87-3.28,2.99-2.79,5.73l-2.99-4c-.01-5.98.09-12.02,0-18-.07-4.83-2.69-13.91,1.01-17.48,2.23-2.15,18.21-1.96,21.99-1.52Z"/>
  <path class="cls-110" d="M490.32,49.28l1.66,2.07c-2.29,1.65-5.99,17.58-5.55,18.46,3.27.82,7.52,2.59,3.88,5.47-1.3,1.15-2.3,2.15-3,3-.12,2.34-1.6,4.49-4.44,6.45-1.52,2.75-3.38,4.27-5.56,4.55-.69.86-1.03.53-1-1-4.02-.85-.59-1.13-1-5.41-.2-2.14-2.17-5.37-2.55-8.55-.73-6.07-.32-12.67-1.45-19.04.94-.45,1.95-.9,3-1,1.46-.36,2.8-1.03,4-2,2.18-.8,6.06-2.6,8-3,1.15-.24,2.75.17,4,0Z"/>
  <path class="cls-131" d="M480.32,141.28v1c-2.62-3.89-5.79-8.21-7-13-.4-1.58-.85-6.1-1-8,.09-.7.18-1.13,1-1l2.11.74c1.15,6.34,3.12,12.64,6.08,18.37l-1.2,1.89Z"/>
  <path class="cls-170" d="M477.32,89.28c2,3.13-.83,13.61-4,16-.52.67-.85.34-1-1,.48-5.55,2.52-10.71,4-16,.43.09.85.57,1,1Z"/>
  <path class="cls-85" d="M473.32,105.28l1.9,1.23v12.54s-1.9,1.23-1.9,1.23l-1,1c-.37-4.8-.42-12.24,0-17l1,1Z"/>
  <path class="cls-9" d="M276.32,51.28c-1.09.06-4.99,1.72-6.99,1.49,1.81,5.03,9.37,1.95,13.99,3.51-.42,3.05-2.9,3.93-3.06,7.5-.07,1.57.62,5.19,1.15,6.72.36,1.04,2.96.44,1.73,4.05-.91,2.66-4.44,3.33-5.71,5.32-3.19,5.01-3.03,10.42-10.56,14.44l-5.03,14.97c-1.19,2.32-2.56-.67-2.62-2.53-.1-3.24,1.74-3.82,2.1-6.48h-2.99c-.25,4.14.31,8.43.04,12.57-.09,1.29-1.03,2.29-1.04,2.42l.44-60.06c1.85-5.51,13.71-3.61,18.56-3.94Z"/>
  <path class="cls-9" d="M286.32,68.28c-1.67-3.01-1.7-9.79,0-13,.21,4.3-.29,8.71,0,13Z"/>
  <path class="cls-52" d="M394.32,80.28c2.17-.78.38-6.26,1.01-7l4.99.99c-1.35-4.29,1.93-7.63,2.61-10.7,1.45-6.48,1.32-15.27,4.63-21.6.89-1.71,2.57-1.4,3.32-3.62,1.04-3.07.47-9.74.99-11.13.91-2.45,5.14-2.79,6.05-3.91,1.44-1.79-4.05-4.22,4.88-5.05l1.51,7.01c-.01,11.32,0,22.68,0,34l-1.51-4.02c-.86-.04-6.98,2.35-7.79,2.95-3.38,2.52.89,5.35.92,7.56.03,1.99-3.5,6.83-4.19,9.43-.85,3.17-.07,8.46-.66,10.33s-3.71,3.94-4.27,5.79c-1.92,6.33-4.07,16.47-4.23,23.43-.03,1.25.9,2.8.61,3.88-.51,1.9-7.23,3.9-7.76,4.8-1.34,2.28,5.19,7.58-1.13,9.85v-53Z"/>
  <path class="cls-88" d="M403.32,176.28c1.1-6.55-.42-13.17.02-19.49.2-2.94,1.81-6.35,1.79-9.02-.02-2.04-1.56-4.43-1.38-6.01.21-1.93,6.33-13.78,6.42-15.14.09-1.25-1.59-2.18-1.62-3.64-.02-.92,3.68-16.1,4.2-17.76.61-1.92,2.75-2.94,3.27-4.6.47-1.53-1.05-5.87-.77-7.77.15-1.05,1.92-.21,2.74-.84.74-.57.82-2.18,1.95-2.58,5.39-1.94,2.08,2.86,4.38,5.86v77c-4.34,4.85-14.69,4.32-21,4Z"/>
  <path class="cls-52" d="M424.32,68.28c-1.67-1.54-1.68-6.42,0-8,0,2.66,0,5.34,0,8Z"/>
  <path class="cls-13" d="M734.32,100.28c.74,1.72.38,2.56-1.38,2.87l-11.08.1c-1.81,5.33-3.62,10.63-5.44,15.92l-2.1,1.11c-5.54.82-11.43.62-17,0-.07-3.33,1.11-8.99,2.76-11.74,1.08-1.8,2.47-2.06,3.64-3.36.73-.81.67-2.81,1.56-3.44,1.45-1.02,5.29-.26,7.45-.53.8-.1,1.4-.91,1.59-.93,6.42-.55,13.5.4,20,0Z"/>
  <path class="cls-116" d="M697.32,120.28c5.64-.19,11.36.05,17,0,6.26-2.79,12.73-2.75,19,0h14c-.18,0-1.57,1.03-3.38,1.07-17.85.41-35.78-.46-53.62-.07,1.8-1.78,4.62-.92,7-1Z"/>
  <path class="cls-29" d="M558.32,82.28c.72,1.9,1.36,5.69,2,8-.14,1.85-1.09,3.78-2.86,5.79-.93,5.21-2.36,10.16-4.28,14.84l1.23,8.79c-.91,4.68-2.3,16.51,4.8,14.52l1.1,2.06c-1,3.33-4.05,13.69-6,16-.32.38-2.96-1.12-.99,1.99-3.07-.16-2.02-3.92-7-.99,1.87-6.73-3.24-7.13-3.75-12.76-.83-9.14-3.06-17.94-2.3-27.77s5.03-11.84,6.84-18.16c1.28-4.47,1.29-7.39,3.98-12.02,1.13-1.94,2.77-3.6,4.23-5.28.75,1.88,2.59,3.92,3,5Z"/>
  <path class="cls-49" d="M543.32,164.28c-.74.66-1.33,2.47-2,3-1.24.98-5.3,3.05-7,4-1.8,1-3.35,1.29-5,2-5.04,1.31-10.57-13.14-5.09-15.65-1.66-5.64-1.22-12.32,3.09-16.35.66-3.52,2.54-9.73,5-12-.04,2.94-.24,12.19.02,14.4.39,3.4,4.4,7.61,4.81,11.36.23,2.1-1.73,5.72.72,6.17,1.79.33,5.71-3.37,5.45,3.06Z"/>
  <path class="cls-37" d="M528.32,87.28c.93,1.68,3.6,9.11,4,11,1.89,8.83.04,16.71,0,25-.28.87-.62.86-1,0-.86-.33-.86-.67,0-1l1-7c-1.91-.91-1.91-2.08,0-3-.66-2.59-1-5.26-1-8-2.39-2.21-3.83-5.57-4.3-10.1-1.89-3.29-2.45-6.26-1.7-8.9.16.14,1.1-1.43,3,2Z"/>
  <path class="cls-235" d="M532.32,128.28c0,.33,0,.67,0,1-.94,4.1-3.88,8.11-5,12-1.41,1.33-1.92.77-1-1-1.22-3.03.93-11.6,4-13,1.1-2.16,1.51-.94,2,1Z"/>
  <path class="cls-126" d="M532.32,128.28l-2-1c-2.5-1.63-1.77-3.34,1-4h1c0,1.67.02,3.33,0,5Z"/>
  <path class="cls-228" d="M366.32,67.28c-.11,2.77,3.21,4.61,4,6,1.38,2.43,2.9,7.19,4,10-2.09.81-2.48,3.87-2.74,5.77-.55,4.12.14,11.26-.57,14.57-.98,4.54-1.41,2.85-1.78,9.21-.12,2.08-2.34,8.97-2.77,11.16-.34,1.73,3.26,2.71,2.95,5.78-.27,2.68-2.86,2.25-3.09,2.53-.26.33,1.82,2.06,2.03,3.53.08.54-1.01,9.47-1.23,10.66-.65,3.53-3.31,4.97-3.78,7.31-.24,1.19-1.18,7.48,1.98,6.49-2.06,1.46-5.84,6.93-8,9-4.91-.11-5.55-6.16-4.8-10.25,1.6-8.64,2.52-17.48,2.79-26.26.06-1.92-.81-6.65-1.51-8.45-1.4-3.64-3.55-4.03-4.49-7.04-1.5-2.18-1.37-7.2-1-10,2.05-1.6.25-4.92,1.49-7.01.56-.93,2.64-1.35,3.54-2.46,3.1-3.81.69-10.24,1.52-14.68.97-5.22,4.9-13.86,9.45-16.85.46.41,1.43.6,2,1Z"/>
  <path class="cls-163" d="M346.32,100.28c3.44-.88,1.66,4.05,2,7,.41,3.57,1.24,5.97,1,10-.12,2-1.59,6.76-2,9-.28.87-.62.86-1,0,1.36-8.67,1.67-17.38,0-26Z"/>
  <path class="cls-140" d="M334.32,149.28c-.33.32-.55.67-1,1-1.11.8-7.24,2.86-8.68,3-2.12.21-3.15-1.01-3.32-1l13-3Z"/>
  <path class="cls-158" d="M346.32,134.28c-1.21,3.83-3.23,6.37-6,9,1.17-2.14,4.43-8.18,5-10,.71-.93,1.04-.6,1,1Z"/>
  <path class="cls-122" d="M346.32,134.28l-1-1c.47-1.5.7-5.09,1-7h1c-.44,2.38-.2,5.48-1,8Z"/>
  <path class="cls-95" d="M336.32,146.28c1.19-1.02,2.9-1.96,4-3-.82,1.51-.68,3.95-3.48,4l-.52-1Z"/>
  <path class="cls-102" d="M772.32,91.28c.58,9.15,6.33,19.61,1,29-7.64.18-15.36-.25-23,0,7.61-2.68,5.2-7.85,7.26-13.23,1.77-4.64,6.62-9.4,9.76-13.3,1.05-1.3,2.26-7.28,4.98-2.47Z"/>
  <path class="cls-56" d="M740.32,100.28c1.93-1.62,2.93-1.62,3,0-.33.74-.03,2.37-.73,3.75-.96,1.9-3.3,2.02-3.87,4.16-1.42,5.28,2.5,7.75-5.4,12.08-6.32,0-12.68-.05-19,0,.33-5.64,2.33-8,4.19-12.3.62-1.44,1.47-6.26,1.94-6.57,1.08-.7,9.03.11,11.45-.09,1.29-.11,2.26-1.03,2.42-1.04,1.96-.15,4.02,0,6,0Z"/>
  <path class="cls-4" d="M744.32,97.28c-.41,1.02-.63,2.17-1,3h-3v-1c3.41,1.17,1.57-6.87,1-9-.44-1.92-.11-2.59,1-2,.87,2.79.32,6.43,2,9Z"/>
  <path class="cls-61" d="M342.32,50.28c-2.1,1.58-5.25,6.37-5.79,8.7-.92,4.02.91,8.34.51,10.66-.27,1.57-2.07,3.64-2.72,7.64-3.52-.72-7.8-2.39-11-4-2.08-2.34-6.28.28-8.54-1.98-1.6-1.59-.7-3.89-1.23-5.71-1.11-3.77-4.38-2.89,1.75-7.81-1.86-4.03-8.95.37-8.98-4.5.98-.46,2.07-1.66,3-2,10.17-3.67,22.67-4.39,33-1Z"/>
  <path class="cls-2" d="M323.32,73.28c4.19.45,7.38,2.03,11,4-.08.46-.53.88-1,1-10.72-5.32-20.87-5.77-31,1-.54-.3-.53-.64,0-1,7.45-5.2,11.41-6.02,21-5Z"/>
  <path class="cls-41" d="M339.32,83.28l-3-3c.34.2,1.35-.04,2.03.48,1.09.83.68,1.98.97,2.52Z"/>
  <path class="cls-98" d="M893.32,71.28c2.83,5.43,5.69,10.95,7,17-.96,0-8.07,2.1-8.96,2.54-3.33,1.63-8.07,5.46-7.57,9.43-6.79,5.3-9.03,12.88-13.47,20.03-3.66,0-7.34,0-11,0-.63.72-1.34.74-2,0l-2.08-1.25c1.86-9.41,6.03-16.57,15.08-18.75.15-.32.92-.66,1-1,.12-.53,0-1.36,0-2l2-1c2.13-4.86.83-3.32,1.6-7.81.14-.8,3.6-9.56,3.96-10.13,1.74-2.74,11.17-7.47,14.44-7.06Z"/>
  <path class="cls-16" d="M494.32,152.28c.38-2.64,1.12-2.48,2,0,.89.59,1.89,1.25,3,2,4.6.97,2.48,8.02.92,11.37l-4.97,8.61c4.52-.12,9.31,0,13.2,2.62l-.15,2.4c-3.1.27-7.92.29-11,0-4.52-.42-10.15-2.52-15-3-1.07-1.14-2.61-1.47-4-2,1.18-4.62,3.61-9.3,4.56-13.94.81-3.97-1.05-9.09,2.44-11.06l.64-.77c2.63,2.11,5.42,3.36,8.36,3.77Z"/>
  <path class="cls-212" d="M494.32,152.28c-.1-.01-.4.98-1.94.61-.88-.21-6.22-2.96-7.06-3.61-2.24-1.73-3.56-4.86-5-7v-1c2.48.31,4.84,1.84,7.1,4.59,3.76,1.68,6.06,3.81,6.9,6.41Z"/>
  <path class="cls-243" d="M732.32,153.28c-.98,5.02-4.96,6.11-7.55,8.95-1.12,1.23-6.65,7.41-6.98,8.11-1.25,2.63,1.84,6.03-4.47,7.94-6.02-.37-9.54-1.61-15-3-2.83-1.23-1.38-1.58-1.53-2.98-.56-5.42-.67-7.14,2.17-11.87,3.82-6.37,4.14-4.97,10.35-5.15,5.73-.16,11.18-.01,17-1,1.95-.33,4.01-.16,6-1Z"/>
  <path class="cls-138" d="M865.32,78.28c4.79,4.77,6.38,11.74,8,18-.26.59.18,2.12-.01,2.99h-.98s-1.01-1.99-1.01-1.99c.02-8.05-4.41-16.53-11-21,1.18-1.77,3.75.76,5,2Z"/>
  <path class="cls-223" d="M526.32,52.28c-4.8-.97-4.16,6.34-6.13,9.41-.73,1.14-2.36,1.4-2.91,2.29-1.58,2.55-1.99,8.2-1.95,11.3-1.05.85-4.22-.73-5-2-2.24.47-4.92.73-7,0l-5.7-.71c-.73-6.79,1.42-15.55,7.95-18.66-.77-2.45-.52-4.33.75-5.63,9.17.3,11.55.88,20,4Z"/>
  <path class="cls-11" d="M515.32,75.28c1.88.97,4.09,1.32,4,4-2.42-1.8-8.24-4.57-11-5-.28-.62.39-.95,2-1,1.03.16,3.9,1.43,5,2Z"/>
  <path class="cls-216" d="M302.32,78.28v1c-2.3,1.54-3.7,3.59-6,5,2.81-4.8,1.98-3.19,6-6Z"/>
  <path class="cls-10" d="M293.32,89.28c-.58,1.25-1.7,3.23-2,4l-1-1c.44-1.32,1.21-2.5,1.01-4.01l1.99,1.01Z"/>
  <path class="cls-135" d="M724.32,71.28c3.78,1.01,4.55,2.43,7,4h-1c-4.48-1.66-8.12-2.94-13-3l2-2c.38.02,4.4.84,5,1Z"/>
  <path class="cls-86" d="M738.32,80.28c-.09.61,0,1.36,0,2v1l-8-8h1c2.41,1.54,4.82,2.78,7,5Z"/>
  <path class="cls-73" d="M742.32,88.28l-1,2c-.52-1.95-2.57-4.11-3-7-.05-.32,0-.67,0-1,1.91,1.05,3.39,4.05,4,6Z"/>
  <path class="cls-147" d="M837.32,120.28c6.37-2.95,13.61-2.87,20,0,.67,0,1.33,0,2,0v1c-11.49,0-23.02.14-34.51.02-1.69-.02-4.45.64-5.49-1.02,3.49-.87,13.51.05,18,0Z"/>
  <path class="cls-60" d="M506.32,48.28c.99,1.81,1.57,5.59,1.06,7.39-.23.83-3.02.69-4.56,2.61-1.73,2.15-4.07,10.76-3.56,13.44.23,1.22,3.57-.07,4.06,1.55-1.78.8-4.07.45-6,0-1.45,1.25-5.17,2.48-7,2-.22-4.18-4.36-2.4-5.59-3.94s1.56-8.76,2.12-11.04c.32-1.33-.46-2.73-.07-4.04.66-2.22,3.62-4.12,3.54-6.98,5.73-.79,10.02-1.2,16-1Z"/>
  <path class="cls-23" d="M562.32,132.28c-.7,1.09-1.65,2.82-2,4-1.44-.28-6.46.44-6.96-.04-.17-.16-.11-2.88-.49-3.98-2.94-8.58-.97-4.73-.48-11.5.3-4.12-2.11-7.96-.84-12.75.36-1.33,1.97-2.41,2.3-3.69,1.4-5.48.21-10.97,6.46-14.04,4.4,15.86,4.23,25.83,2,42Z"/>
  <path class="cls-78" d="M527.32,141.28c-.32,1.13-2,8.61-2.07,9.47-.21,2.58,1.33,6.87,1,7.92-.44,1.45-2.91,1.3-2.89,2.06.03,1.24,3.68,12.03,5.96,12.55-5.99,2.59-6.61,2.74-13,4-6.23.88-9.04-.82-8.44-5.1,1.96-5.49,3.12-11.12,3.5-16.88l1.94-2.02c-.87-.28-.86-.62,0-1,.5-.14,7.89-5.43,8.49-6.01,1.01-.96,3.79-4.74,4.51-5.99l1,1Z"/>
  <path class="cls-172" d="M513.32,153.28c.48,7.52-2.1,14.33-4.07,21.38l7.07,2.62c-2.23.44-5.94,1.82-8,2-4.45-3.83-10.54-2.92-16-3.01,2.4-8.17,9.99-12.14,7-21.99,4.5-.69,9.16-1.02,14-1Z"/>
  <path class="cls-215" d="M478.32,52.28c-.44,1.09-2.6,2.84-3.51,2.98-.59.09-.43-.98-.49-.98,1.01-1.65,2.59-1.48,4-2Z"/>
  <path class="cls-99" d="M83.32,99.28c-1.31.52-1.43.93-3.38,1.07-11.79.87-30.32.76-42.17-.03-1.14-.08-1.94.39-2.45-1.04h48Z"/>
  <path class="cls-239" d="M870.32,100.28c-2.57,5.46-2.52,2.35-4.94,3.52-2.64,1.28-9.04,12.87-8.06,16.48-6.65.03-13.35-.07-20,0-.49-1.28-3.74-.23-2.5-2,1.31-1.88,8.8-11.92,9.79-12.71,2.19-1.76,12.88-4.97,15.72-5.3,3.14-.37,6.78.25,10,0Z"/>
  <path class="cls-1" d="M497.32,73.28c1.16-.02,1.83.32,2,1-3.12.36-9.19,2.32-12,4-2.34-.77,1.94-2.55,3-3,2.02-.85,4.85-1.76,7-2Z"/>
  <path class="cls-81" d="M532.32,112.28c-2-1.73-.68-5.5-1-8,.49,3,.88,4.51,1,8Z"/>
  <path class="cls-165" d="M531.32,122.28c.18-2.21-.85-5.59,1-7-.03,2.2.75,5.63-1,7Z"/>
  <path class="cls-242" d="M513.32,152.28v1c-4.59,1-9.31,1.31-14,1-2.28-.15-3.47.89-3-2,5.37.5,11.53,1.48,17,0Z"/>
  <path class="cls-189" d="M503.32,73.28c2.16,0,5.02-.3,7,0l-2,1c-2.05-.32-6.86-.25-9,0l-2-1c1.83-.21,4.08,0,6,0Z"/>
</svg>