<?xml version="1.0" encoding="UTF-8"?>
<svg id="Layer_1" data-name="Layer 1" xmlns="http://www.w3.org/2000/svg" viewBox="0 0 442.57 111.23">
  <defs>
    <style>
      .cls-1 {
        fill: #fe5f89;
      }

      .cls-2 {
        fill: #e453a0;
      }

      .cls-3 {
        fill: #fd955f;
      }

      .cls-4 {
        fill: #fe5c93;
      }

      .cls-5 {
        fill: #fd9c58;
      }

      .cls-6 {
        fill: #fcd551;
      }

      .cls-7 {
        fill: #fec456;
      }

      .cls-8 {
        fill: #f9cf60;
      }

      .cls-9 {
        fill: #fb7472;
      }

      .cls-10 {
        fill: #fe9953;
      }

      .cls-11 {
        fill: #e354a4;
      }

      .cls-12 {
        fill: #fc6a7a;
      }

      .cls-13 {
        fill: #f45e9b;
      }

      .cls-14 {
        fill: #f9ca43;
      }

      .cls-15 {
        fill: #fd51b0;
      }

      .cls-16 {
        fill: #fd6e76;
      }

      .cls-17 {
        fill: #fccc54;
      }

      .cls-18 {
        fill: #f9d843;
      }

      .cls-19 {
        fill: #feb84f;
      }

      .cls-20 {
        fill: #fc6c77;
      }

      .cls-21 {
        fill: #e857a3;
      }

      .cls-22 {
        fill: #fc8667;
      }

      .cls-23 {
        fill: #fbc454;
      }

      .cls-24 {
        fill: #fdd253;
      }

      .cls-25 {
        fill: #fd945c;
      }

      .cls-26 {
        fill: #fc6a62;
      }

      .cls-27 {
        fill: #ed529c;
      }

      .cls-28 {
        fill: #f8d246;
      }

      .cls-29 {
        fill: #fdaa55;
      }

      .cls-30 {
        fill: #f956ae;
      }

      .cls-31 {
        fill: #fcbd54;
      }

      .cls-32 {
        fill: #fcaf56;
      }

      .cls-33 {
        fill: #fd54a7;
      }

      .cls-34 {
        fill: #fe9555;
      }

      .cls-35 {
        fill: #fb995a;
      }

      .cls-36 {
        fill: #e25598;
      }

      .cls-37 {
        fill: #fc7b6d;
      }

      .cls-38 {
        fill: #fd50b2;
      }

      .cls-39 {
        fill: #fccf51;
      }

      .cls-40 {
        fill: #f47878;
      }

      .cls-41 {
        fill: #fdd74f;
      }

      .cls-42 {
        fill: #fd8168;
      }

      .cls-43 {
        fill: #fbc45d;
      }

      .cls-44 {
        fill: #fc7e6a;
      }

      .cls-45 {
        fill: #fc589c;
      }

      .cls-46 {
        fill: #e84e9d;
      }

      .cls-47 {
        fill: #fc589e;
      }

      .cls-48 {
        fill: #fcb655;
      }

      .cls-49 {
        fill: #f3ae6a;
      }

      .cls-50 {
        fill: #fc7b6e;
      }

      .cls-51 {
        fill: #f8b85e;
      }

      .cls-52 {
        fill: #facc5f;
      }

      .cls-53 {
        fill: #fdbc55;
      }

      .cls-54 {
        fill: #fa4ba5;
      }

      .cls-55 {
        fill: #e95293;
      }

      .cls-56 {
        fill: #fdad55;
      }

      .cls-57 {
        fill: #fcb156;
      }

      .cls-58 {
        fill: #fd52ab;
      }

      .cls-59 {
        fill: #fd766d;
      }

      .cls-60 {
        fill: #fcb557;
      }

      .cls-61 {
        fill: #fb9362;
      }

      .cls-62 {
        fill: #e66182;
      }

      .cls-63 {
        fill: #fc7374;
      }

      .cls-64 {
        fill: #f296c0;
      }

      .cls-65 {
        fill: #fb7b69;
      }

      .cls-66 {
        fill: #fbc355;
      }

      .cls-67 {
        fill: #fc776f;
      }

      .cls-68 {
        fill: #fc57a3;
      }

      .cls-69 {
        fill: #fb7272;
      }

      .cls-70 {
        fill: #fb995f;
      }

      .cls-71 {
        fill: #fcb753;
      }

      .cls-72 {
        fill: #ee9061;
      }

      .cls-73 {
        fill: #e6539e;
      }

      .cls-74 {
        fill: #fb915f;
      }

      .cls-75 {
        fill: #ef7968;
      }

      .cls-76 {
        fill: #fc50b9;
      }

      .cls-77 {
        fill: #fec55d;
      }

      .cls-78 {
        fill: #fd55a3;
      }

      .cls-79 {
        fill: #fdcf4f;
      }

      .cls-80 {
        fill: #fcc054;
      }

      .cls-81 {
        fill: #e955ac;
      }

      .cls-82 {
        fill: #fdac5a;
      }

      .cls-83 {
        fill: #fec747;
      }

      .cls-84 {
        fill: #fb56ab;
      }

      .cls-85 {
        fill: #e94ba3;
      }

      .cls-86 {
        fill: #fbcd46;
      }

      .cls-87 {
        fill: #fd5a99;
      }

      .cls-88 {
        fill: #f956a9;
      }

      .cls-89 {
        fill: #fc57a0;
      }

      .cls-90 {
        fill: #fd52b2;
      }

      .cls-91 {
        fill: #fd4fb1;
      }

      .cls-92 {
        fill: #f956ab;
      }

      .cls-93 {
        fill: #fd5e8f;
      }

      .cls-94 {
        fill: #fdc751;
      }

      .cls-95 {
        fill: #f556b1;
      }

      .cls-96 {
        fill: #f957a5;
      }

      .cls-97 {
        fill: #f27865;
      }

      .cls-98 {
        fill: #fe52ae;
      }

      .cls-99 {
        fill: #fd50b5;
      }

      .cls-100 {
        fill: #fd965c;
      }

      .cls-101 {
        fill: #fe944e;
      }
    </style>
  </defs>
  <path class="cls-93" d="M207.24,84.03l-1.75-3.31c.02-10.61-.34-21.18-1.06-31.73l-3.02,2.1c2.16,7.99,2.1,15.29-.17,21.91,1.25,7.14-.08,11.49-4,13.03-.51.5-1.51.5-3,0-.38-.15-1.28.32-1.85-.11l-.21-84.28c.48-1.8,14.79-3.51,16.04,2.91-.2,24.66.35,49.34.04,73.99-.02,1.69.64,4.45-1.02,5.49Z"/>
  <path class="cls-38" d="M37.24,25.03c2.74.05,6.47.95,8.93,2.52,7.16,4.57,12.46,16.85,12.99,25.13.24,3.77-.06,6.91-4.36,7.4-11.9,1.35-26.36-1.12-38.56-.06-6-.47,1.01-4.94,5.08-3.68l1.92-1.32c3.15-2.16,7.12-2.82,11.92-1.97.39-.56.75-1.56,1.08-3.03,1.62-.31,3.29-.64,5-1-1.37-1.72-2.42-3.89-3.12-6.5-2.24-2.12-3.86-4.28-4.88-6.5-2.02-.49-4.02-.83-6-1-4-1.16-1.39-4.66,2.76-2.67.12.06-1.66-.24-1.98-1.56-.89-3.74,6.61-4.99,9.28-4.8.18.01-2.79,1.72-.06-.98Z"/>
  <path class="cls-78" d="M132.24,56.03c-3.88,6.46-.26,7.92,6.64,8.29.46.03.91.33,1.36.71,1.52.13,2.64,1.79,3.38,4.98,7.57,3.46,4.09,8.72-2.38,8.02-.38,10.3-.71,20.63-1,31-2.57,3.39-14.92,2.44-15,0,.47-13.05.8-26.38,1-40,1.11-2.55,1.42-5.32.93-8.32l1.07-.68v-7c.53-3.97,1.86-5.3,4-4,2.07,2.25,1.74,4.56,0,7Z"/>
  <path class="cls-91" d="M23.24,55.03c-.56,3.03,1.53,1.92,3.45,2,2.34.09,4.73-.15,7.06,0,2,.13,2.89-.79,2.48,2l-19.46-1.95c-2.35,1.16-.49,2.49-.54,2.95-.54,5.84,1.43,7.88,4,13-1.73,1.53-5.53.34-7.74-.39l-2.26.39c1.39,1.35.77,1.93-1,1-.11,2.11.51,3.51,2,5,.3-.86.64-.85,1,0l2.22-1.93c-1.18-3.3,1.08-4.66,6.78-4.07.06,0,.21-1.11,1-.59.56.38.69,1.31,1,1.59,1.4.84,2.39,1.33,4,1,3.38-.16,6.17.4,9.57-.93,3.78-1.48,4.13-5.54,6.93-6.09,1.91-.37,11.13.71,12.09,1.96,1.05,1.37-.26,3.89-.86,5.29-3.02,7.02-12.37,12.02-19.72,12.77-2.6-.73-5.4-.77-8,0-11.23-.74-17.8-5.25-23-15-1.03-5.09,1.02-6.59,6.04-6-2.29-4.34.01-10.37,4.96-11,.59-3.03,6.84-3.98,8-1Z"/>
  <path class="cls-94" d="M420.24,24.03c.78.77,1.78,1.44,3,2,2.05.67,1.38,1.67-2,3-1.76,2.18-2.58,5.45,1.01,4.82,1.64,1.85,2.32,3.72,0,5.18l-2.23.86c-6.92-4.65-15.54-1.51-17.48,6.67,6.4.7,12.86.81,19.37.35l1.34,2.12c.97.58-1.3,2.59-1.5,2.66-4.84.24-9.97.42-15.36.55,9.81,5.51-3,7.64-7.14,3.79.49,1.85-.59,5.5-3,5q-1.88-2.32,0,0c1.91.52,1.92,1.42,0,2l.04,2.42c5.3,3.73-1.78,8.06-5.99,10l-3.05-3.42c-1.43-3.19-1.3-3.99-2-7v-1c.94-1.18,1.28-2.84,1-5-1.51-2.47-3.41-7.27,0-8,4.86-4.13,6.53-8.47,5-13-5.51,1.82,3.34-7.87,5-4,2.27-.01,2.27-.35,0-1-1.62-1.37-.95-2.04,2-2-1.94-1.52-.94-3.18,3-5,7.86-3.38,10.38-3.92,19-2Z"/>
  <path class="cls-98" d="M101.24,26.03c2.18-.4,16.05-.75,16.33.61l-1.33,2.39c-.52.61-1.39,1.54-2,2-1.5,2.73-3.16,5.4-5,8-3.81,5.17-6.51,10.98-10.52,16.01-.16.46,1.17,3.4,1.52,3.99l.67,3.72c4.98,4.46,5.6,7.14,1.85,8.05l-5.96-.13c-.61,3.02-2.79,2.48-6.55-1.64-.41-.02-1.45-1.18-1.86-.89-.3.21-3.3,4.78-4.14,5.89-3.11.69-3.12-2.11-2.14-4.55,2.6-4.44,3.39-9.22,2.38-14.33,2.65-1.99,4.07-4.12,4.26-6.38,2.44-3.03,4.95-4.94,7.5-5.74-.75-1.41-1.41-2.08-2-2-.61,2.88-2,2.66-3,0,.83-2.89,7.53-14.39,10-15Z"/>
  <path class="cls-99" d="M36.24,25.03c.33,0,.67,0,1,0,2.12,3.19.27,1.39-1.38,2.11-2.27.99-4.73,1.69-6.62,3.4l1.99.48c1.32,5.52-3.63,1.69-3.98,2-.22.2.13,1.43-.01,2.01.39.41.06.74-1,1l-.29,2.15c-4.2,2.21-6.77,5.83-7.71,10.85,6.11.44,12.11.77,18,1l4,4.99c-5.65.16-11.36-.19-17,.01-2.97.1-5.29.82-8,1-2.33,0-3.66,1.49-5.05,4.91-2.15.99-4.28.58-5.39-1.6-.5,2.39-1.5,3.35-3.56,1.69-.98-3.21-1.2-7.93,0-11-.41-3.25.8-9.08,3.74-10.86l1.26-4.14c.85-1.02.85-1.13,2-2,3.41-3.58,7.19-5.84,11.32-6.8,1.05,3.63,1.46,3.8,1.23.53,2.59-3.09,12.53-4,15.44-1.73Z"/>
  <path class="cls-87" d="M181.24,37.03c5.87,10.78,6.54,20.39,2.74,32.24-2.29,7.12-7.7,15.89-15.74,16.76l-.67-2.03c6.76-5.91,7.19-9.79,1.3-11.63-2.56,2.37-4.44,2.59-5.63.66l-.39-2.5c4.78-5.49,4.66-13.04,4.43-19.9l1.96-1.6c-.12-3.03,2.65-2.61,2.96,1.02l1.9.16c-2.18-4.22-2.05-7.27.39-9.15-4.32-2.4-1.41-7.87,2.75-6.03.71-1.32,2.04-.65,4,2Z"/>
  <path class="cls-15" d="M94.24,41.03c1.15.18,1.72,1.07,2,2-.66,2.45-4.35,4.57-5.44,6.05-.76,1.04-.27,2.78-.82,3.69-.51.84-2.98.87-3.61,2.96-.7,2.36.93,4.42.67,6.58-.24,2.01-3.11,7-3.59,9.68l.79,2.04c-1,1.32-2,2.67-3,4-2.6,3.4-5.26,6.07-8,8-3.99.93-9.66.7-14.03.21l-.97-1.21c6.85-8.93,12.31-18.83,20-27,1-1.81,1.22-4.01.34-5.92.26-.4,6.57-5.06,7.66-4.08-.3-1.78,1.03-3.44,4-5,.03-.51.82-1.37,1-2,.74-.16,2.76.23,3,0Z"/>
  <path class="cls-12" d="M226.24,29.03c7.22-2.9,14.08,3.9,4.28,7.32-1.82,1.61-2.05,2.82-.68,3.64-2.56,7.01-2.66,13.4-.33,20.56l-1.28,2.48c4.32,1.53-1.04,13.56-5.14,9.03,5.08,5.15,5.79,8.14,2.14,8.97-14.9-12.73-15.05-40.37,1-52Z"/>
  <path class="cls-90" d="M73.24,46.03c-4.52-6.9-11.01-13.25-14-21h18c.4,0,3.64,6.21,4,7,.77,1.83,1.77,3.49,3,5,.09.31-.09.7,0,1,1.14,1.84,2.47,3.51,4,5,.67,0,1.33,0,2,0-.02.38,1.52,2.49,1.01,2.99-.19.19-3.3.45-5.01,2.01-2.66.97-5.27,2.24-7.83,3.81-1.85-3.2-3.57-5.13-5.17-5.81Z"/>
  <path class="cls-100" d="M297.24,52.03c.82,3.53.82,7.2,0,11,.07,4.25,2.73,20.46.03,22.57-.85.66-2.08.31-3.03.43-.78.41-1.45.41-2,0-1.6-.75-3.38-.68-5,0-3.6.77-5.44-3.12-4-6,2.62-2.18,1.83-6.87.89-9.57-.74-2.53-2.17-7.92,1.09-7.87.98-2.43,2.32-3.94,4.02-4.56,2.49.18,3.25-.68,2.28-2.57l1.72-2.43c-1.45.74-1.84-.74-1-2,.59-2.62,1.59-3.96,3-4,1.23.68,1.9,2.35,2,5Z"/>
  <path class="cls-58" d="M117.24,84.03l1.02,1.25c.33,1.83-15.93,2.29-18.02-.25-3.65-3.47-7.3-11.47-10-16,3.69.22,2.08.29,4.99,3,.37-.99-1.74-2.66-.48-3,2.82-.76,6.6-.55,9.49-.01.22-5.31-7.36-2.76-4-9.99,4.51,7.6,11.81,17.33,17,25Z"/>
  <path class="cls-42" d="M275.24,48.03c-2.63-.73-3.95,11.12-3.61,12.75v1.53c2.09-.56,2.97.68,2.61,3.72-2.13,7.64-2.93,9.79-9,15h-1c-2.83-1.67-2.91-5.23-1.09-7.89-2.62-4.89-3.66-8.99-.59-13.69l-2.32-11.42c-.66-.29-.65-.63,0-1l.25-1.38c5.44.35,6.32-.18,4.75-5.62-3.58.66-4.17-5.07,0-5,.31-1.23,1.31-1.56,3-1,4.4,5.29,5.6,6.84,7,14Z"/>
  <path class="cls-41" d="M438.24,70.03c3.24,3.36-3.54,10.79-6.5,13-5.04,3.76-10.31,4.87-16.5,5l-8.91-1.46c-1.79-2.09,2.63-9.07,4.91-5.54,1.42,1.02,2.87,1.53,1,0-1.21-1.87.25-2.38,2.1-2.68l-1.1-1.32c-.87-.28-.86-.62,0-1,6.17-.24,9.84-2.18,13.94-6.91,3.71-.64,7.45.05,11.06.91Z"/>
  <path class="cls-57" d="M341.24,49.03c.54.96,1.54.96,3,0,1.62-3.26,14.01-3.15,16,0-.5,3.4-3.69,4.4-9.6,2.99.91,2,1.22,4.21-.82,5.59l.42,1.42c.87.28.86.62,0,1-4.32.05-8.68-.04-13,0l2,10-1.56,1.84c1.55,5.01.05,6.05-3.44,7.16,3.49.81,1.04,4.77-2,3-.72-.54-2.05-.37-3.54-1.93s-5.07-7.21-5.46-9.07c.45-4.01,2.37-4.51,5.71-2.58,1.25-1.66,2.27-3.61.38-5.1-2.98-8.15.12-9.15,7.19-11.09.07-2.11.97-3.19,2.72-3.23.32-2.66,1.24-2.54,2,0Z"/>
  <path class="cls-1" d="M207.24,84.03c-.31,3.14-.34,1.39-2,2-2.92.8-5.58.8-8,0,3.59-3.69,1.32-8.99,2.05-13.45.27-1.63,1.73-2.78,2.01-5.01.59-4.69-2.49-13.34-1.82-16.92.43-2.28,4.11-3.1,4.53-3.84.82-1.44-.48-4.44,1.73-5.77,2.3,3.41.56,7.58.69,10.5.48,10.51,1.85,21.92.8,32.5Z"/>
  <path class="cls-53" d="M377.24,44.03l-1.63.47c-.86,4.06-2.28,5.2-5.14,7.17,3.37.08,4.87,6.99,1.77,8.35-7.05.48-14.83-.08-22,0v-1l1.32-1.92c4.94-.84,7.75-4.07,9.68-8.08-2.02-3.45-2.35-6.45-1-9v-1c2.54-2.42,5.2-3.76,8-4-.83-2.8.23-3.73,3-3,3.68,4.2,4.52,6.88,6,12Z"/>
  <path class="cls-6" d="M400.24,60.03c-.87-.33-.87-.67,0-1,1.04-1.66,3.42-2.07,7.15-1.22,2.11-1.58,5.19-2.1,9.24-1.55-3.13-4.61,5.92-6.56,8.85-5.9.13.03-2.41.42-1.24-1.33-2.7-.99-1.82-3.18,1-3,2.34,1.82,3.85,1.67,4.55-.44,2.73.33,4.55-.7,5.45-3.09-.59-2.97.08-4.79,1.99-5.47,2.18,4.03,8.81,19.68,3.01,22.5s-31.86-1.14-40.01.5Z"/>
  <path class="cls-47" d="M173.24,28.03c3.97,3.13,5.31,5.46,4,7-.5,1.36-4.13,2.03-2.9,3.92.13.2,2.97-.51,1.91,3.45-.18.69-1.98.61-2.06,1.22-.18,1.32,4.63,10.03.08,8.85-3.55-.92-4.73.19-4.04-4.46-.52.08-.83.99-.98,1.01-2.79,2.01-4.34-.88-1-2,1.05-1.54.38-3.2-2-5-2.28,1.31-8.13-2.79-9-5-.6-.84-.67-1.67-.1-2.48,2.79-.75,6.81-2.51,9.38-3.96,1.18-.67-2.04-2.56-3.93-.78l-3.93-2.47c-4.73.36-6.87-.75-6.42-3.32,8.49-2.64,14.13-.71,21,4Z"/>
  <path class="cls-45" d="M163.24,73.03c.79-.32,1.62-.22,2.53-.93,1.92-1.49,1.92-3.96,3.46-4.07-1.46,3.4,5.13,3.94,5.89,6.63.83,2.92-4.54,9.68-6.88,11.37-5.35,3.85-11,3.36-17,1,.16-1.89,1.6-2.7,4.31-2.41-3.21-2.75-4.32-5.62-3.31-8.59,1.56-.37,3.23-.71,5-1,.46-3.13,3.75-4.17,6-2Z"/>
  <path class="cls-68" d="M152.24,24.03c1.7,1.78,4.68.7,7.06,1.44,2.58.81,4.17,5.03,5.42.55.96,1.02,2.92,1.19,3.4,2.65,1.58,4.73-2.64,3.66-4.85,4.95-.69.4-.8,1.88-1.27,2.16-1.3.78-3.94-.44-4.77,1.26l-1.54,1.9c-5.89-.64-9.22,3.64-12.07,8.15l-2.4-.05c-4.76-1.69-1.72-6.89,1.69-9.61-3.71.4-6.09-3.36-2.69-5.39,4.82-1.81,6.6-6.32,12-8Z"/>
  <path class="cls-79" d="M423.24,26.03c7.58-.96.88,7.07-2,3l2.07,1.17c2.88-2.52,4.86-2.91,5.93-1.17.29-.06.69-.01,1,0,1.22,1.21,2.55,2.21,4,3,1.57,1.87,1.95,3.06,3,5v7.01c3.61-2.11,2.61,1.33-.99,2l-1-3.01.99,4.99-5.51-1.01c-1.91,3,1.44,4.36,1.51,7.01-5.64.52-5.07-3.51-7-7.99-3.42-.86-4.67-3.92-3-7-.55-1.14-.19-2.54-1.32-3.74-.21-.22-4.83-2.6-5.67-2.27l5.99-3.99c.01-.41-1.15-1.22-1-1.99.95-.62,3.66,2.96,3-1.01Z"/>
  <path class="cls-56" d="M346.24,36.03l-.46,2.26c-3.75,2.38-6.66,6.25-6.54,10.74.06.24-.95,4.7-1.13,4.87-.31.3-6.45,1.46-7.86,3.15-2.88,3.45,4.03.54,4.99,0l-5,5.5c4.52.59.84,8.24-1.49,8.24-1.01,0-2.56-3.41-5.52.25-.07-.31.04-.67,0-1-3.31-10.02.03-19.36,9.74-23.86-2.54-4.01,1.33-8.19,4.26-11.14.25-.87.58-.85,1,0,.69-3.46,8.7-2.79,8,1Z"/>
  <path class="cls-31" d="M361.24,72.03c4.77-6.71,11.61-4.01,8.28,3.93-4.58,1.2-5.2,4.65-3.28,8.07-.72.42-1.24.67-2,1-.77-.32-1.9.26-3,2-6.11,1.78-12.05,1.1-18,0l-.08-1.39c-5.24-3.9-4.32-8.2,2.29-8.45-.68-1.25.35-1.84,1.79-2.16,5.6,2,9.28-1.15,14-3Z"/>
  <path class="cls-16" d="M231.24,63.03c3.31-.5,7.27,7.22,6,10,1.46,1.16,1.22,1.82.34,3.11,8.47,3.91,3.67,6.77-2.91,6.87l-1.43,2.02c-.54.37-1.2.37-2,0-3.23-1.59-3.32-1.71-6-4,2.72-3.47-4.88-6.06-4-9.48,2.13-2.93,2.88-.7,4.99.48-.38-3.52,2.49-5.08,2.01-9-.48-5.28,2.45-4.81,3,0Z"/>
  <path class="cls-39" d="M409.24,75.03c1.53.1,2.86.43,4,1v1c.47,2.45-4.71,3.94-6,2q-2.8-2.1,0,0c2.57.64-1.04,5.62-2.69,5.77-3.95.36-5.41-2.72-4.31-5.77-.39-.96-1.39-.62-3,1,.43,1.66-.23,1.66-2,0-.74.16-1.74-.17-3-1-2.87-2.98-3.18-2.94-5-7l2.49,2c1.74-3.14,5.83-1.6,6.22-5.62.2-2.13-.35-2.36.29-5.37,1.28-2.07,2.61-3.07,4-3,.56,7.05,1.85,12.04,9,15Z"/>
  <path class="cls-89" d="M141.24,47.03l1.98,1.33c-.67,9.73-1.3,19.05,8.41,24.37l.61,2.3c.87.28.86.62,0,1,1.45,2.27,2.78,5.76,5.07,7.38,1.94,1.38,4.39.93,4.93,2.6l-10.99,1.01c-3.37-1.32-6.91-4.06-9-7-1.55.79-1.44-.53-1-2,1.15-1.63,5.08-3.11,5.99-4.99-1.06-.88-5.78-1.81-6-2.04-.31-.34.84-2.33.76-3.39-.12-1.46-1.44-1.94-1.75-2.59-1.76.55-2.98-.12-3.65-1.8-.38-.94.32-21.41,4.65-16.2Z"/>
  <path class="cls-32" d="M358.24,24.03c3,1.06,1.94,2.9-.51,4.35-.54,3.06.22,5.19,2.27,6.41l-.76,2.24c2.74-.33,3.08.34,1,2v1c-2.03,2.16-6.93-1.29-6-4-5.57-.36-11.52-2.55-16.19-5.49-2.16,1.09-4.31.03-3.81-2.51,8.29-5.05,14.16-6.43,24-4Z"/>
  <path class="cls-38" d="M1.24,61.03c4.04-1.33-.66-10.39,1-12.01.27-.26,2.45-.26,3.08.59,2.17,2.94-1.42,12.59,4.71,9.19.61-.34.82-3.05,2.94-3.69,1.32-.4,2.14.92,2.26.91-2.22,1.44-3.89,3.92-3.98,6.63-.11,3.44,3.04,3.41,2.97,6.37H5.25s1.99,1.99,1.99,1.99l-2.99,2.01c-1.33-2.5-1.18-2.35-2-5-.65-2.41-.99-4.75-1-7Z"/>
  <path class="cls-82" d="M337.24,35.03c2.13,2.66-3.65,6.09-3.74,7.49-.07,1.12,2.35,2.56,1.32,4.52-.75,1.44-4.75,2.43-6.65,4.42-4.13,4.35-5.59,12.79-4.93,18.57-2.7-4.82-3.29-12.19-3.04-17.58.06-1.32,1-2.15,1.04-2.42,2.68.51,8.96-10.22,8.5-10.76-5.47-.35.81-7.71,2.65-7.58.33.02,5.09,2.85,4.85,3.34Z"/>
  <path class="cls-48" d="M339.24,70.03c1.42.74,6.72,4.08,8,5,.12.09-.31,1.46.13,1.82,1.55,1.29,7.83-1.85,6.86,2.17-8.16.18-19.8-.83-7,6.52l-3.99,1.48c-4.81-.89-4.08-.96-8-3l-1.36-1.36c2.05-1.19,2.37-1.93.36-3.64-.05-2.81,1.9-1.69,2.05-2.65.32-2.03-1.56-4.84-.04-7.36.87.52,2.15.56,2.99,1Z"/>
  <path class="cls-66" d="M361.24,72.03c-.39-6.5,14.07-3.94,14.93-1.37,1.02,3.07-3.43,9.53-5.69,11.39-1.41,1.16-3.05,1.28-4.24,1.97-1.53-1.59-8.89-.26-8.98-2.5-.08-2.05,3.56-.5,4.25-.66,2.78-.65,3.16-3.64,1.73-5.83h5s0-6,0-6c-3.36-.47-5.29.64-6.17,3.91-.48,0-.77-.94-.83-.92Z"/>
  <path class="cls-59" d="M251.24,76.03c7.14-2.7,9.88,5.29,5,10-3.78,1.33-3.11,1.55-8,2-1.93-.68-4.06-.7-6,0-.65-.05-1.37.09-2,0-2.17-1.46-6.52-4.53-2.96-5.99,4.85.36,5.55-1.42,2.76-5.2.25-1.18,9.77-1.81,11.2-.81Z"/>
  <path class="cls-80" d="M377.24,44.03c2.34,8.12,5.82,15.27-5,16l-1.01-7c-2.07.87.04,2.11-3.49,2-3.94-.13.37-2.78.89-3.98.47-1.08-.8-3,1.12-4.02,3.88,7.49,2.42-9.73,7.49-3Z"/>
  <path class="cls-35" d="M303.24,41.03c-1.85-2.55-.5-3.9,2-2-.09-.5-.14-.99-.01-1.42.14-.49,8.19-3.65,9.01-2.58-.16-.85-.14-1.91.53-2.25,2.18-1.11,2.2-1.58,1.47-3.75-2.71-.31-2.55-1.13,0-2-1.61-1.4-2.94-1.73-4-1,.66,4.76-4.8,8.87-8,5l-2.89,3.12c.55,6.35-4.62,5.89-5.11-.12-.79-1.1-.29-1.49,1-1,8.03-12,27.43-16.68,21.56,5.06-1.09,1.57-12.52.59-15.56,2.94Z"/>
  <path class="cls-67" d="M246.24,27.03c-5.78-3.13,4-3.84,7.49-2.44,2.2,1.65,3.61,2.68,6.51,2.44.66.35,1.22.48,2,1,.66,2.2.33,3.87-1,5,1.69,3.39.5,3.69-2.79,4.14,1.32,3.48-.86,6.14-3.21,2.86-1.24,2.68-5.96-.36-5-3-3.89-2.16-5.23-5.49-4-10Z"/>
  <path class="cls-29" d="M331.24,30.03c3.85-1.02,13.18,1.18,7,5-.33-.04-.67.04-1,0-2.51-.32-4.76-2.14-4.98-1.99s-.42,2.85-3.53,2.98c-1.37,1.86,3.01.55,3.46,2.58.4,1.78-6.3,11.01-7.89,12.8-1.5,1.68-2.49-.15-3.06-1.37.57-4.53.39-4.64,2-9,1.78-1.87,3.12-4.2,4-7,1.54-1.97,2.11-2.46,4-4Z"/>
  <path class="cls-60" d="M371.24,32.03c-.77,1.24-2.01,2.02-3,3-2.47-.16-4.77.88-6.92,3.12l-2.08-1.12c-1.53-2.09-3.45-3.46-5.99-4.02-.87-3.33,2.46-1.46,2.99-1.98,2.01-1.99-3.66-1.82-2-3.98.42-.55,4.85.09,4-3.01,5.24,1.29,9.43,3.92,13,8Z"/>
  <path class="cls-22" d="M275.24,48.03c1.59,8.12,1.15,10.28-1,18l-1.99-2.99-.51,5.99c-5.29-7.7,1.26-16.24-1.49-24.99l4.99,4Z"/>
  <path class="cls-69" d="M252.24,74.03c1.56,1.18.85,2.38-1,2l-10,1.01,6,5.98h-9.99s2.99,5.01,2.99,5.01c-1.83-.27-2.22-.79-3-1-1.51-.46-2.84-1.13-4-2-2.73-6.6,5.55-2.9,6.99-4.01,2.31-1.76-5.65-3.55-5.99-4.01l2.99-3.98c1.77-.92,4.11-.94,7.04-.05,3.78-.88,6.43-.53,7.96,1.05Z"/>
  <path class="cls-84" d="M139.24,26.03c-.6,1.87-.61,3.92-.03,6.16-5.74-.78-7.67.18-5.79,2.89-3.57,3.15-4.67,7.84-3.3,14.06l-1.87,3.89c-.06,2.33.06,4.67,0,7l-1.09-.27c-.73-10.93-.7-21.84.09-32.73l1-2c1.6-.59,9.75-.26,11,1Z"/>
  <path class="cls-24" d="M407.24,79.03c.29-.14,5.68-1.93,6-2,1.94-.41,6.69-.37,5,1.99-.34.47-5.13.51-6,2.01-.1.9-.45.85-1,0-3.24.41-2.26,2.21-4,4.99l8,2.01c-8.35.18-11.33-.78-18-5-1.51-1.01-2.18-2.01-2-3,.49.16,1.37-.11,2,0,.86-.82,1.86-1.15,3-1,.16.17,1.45-.27,1.78.13.24.29-1.57,2.92.75,3.88,2.9.35,4.19-3.87,4.48-4.01-1.42,1.32-6.3-2.62-4.99-3.99.89-.93,6.43,2.66,4.99,3.99Z"/>
  <path class="cls-23" d="M398.24,31.03c-.29.58-1.58,1.27-2,2,.87.28.86.62,0,1-.34.02-5.9,2.16-5.96,2.5s.99,1.15.96,1.5c1.67,4.4,0,8.73-5,13-.26,1.21-1.47,2.39-.99,4l3.99-.48c-.17,1.91-2.1,2.77-3,4.48.32,1.71.48,4.03-1,5v1c-2.5-10.72-2.88-21.52,5-30l3-4c.34-.32.64-.71,1-1,2.8-1.38,4.13-1.04,4,1Z"/>
  <path class="cls-27" d="M128.24,25.03c-.12.04-.76,1.52-1,2-.55,13.52-.65,27.13-.29,40.83l-.71,1.17c-.02,12.19.13,24.41.07,36.61-.01,2-1.07,3.21-1.07,3.39l-.05-80.55,3.05-3.45Z"/>
  <path class="cls-72" d="M285.24,25.03c.45,2.48.06,7.44-2,9l1.25,1.56c.41,9.33.28,18.84.13,28.38,0,.57-.61,1.14-1.38,1.7,2.18,5.51,2.18,10.3,0,14.36.24,3.21-.03,5.18,4,6,1.56-.72,3.46-.79,5,0,.66-.02,1.36.08,2,0-3.17,2.15-11.25,1.57-12-2.5l-.71-54.88c.53-2.43,1.33-3.23,3.71-3.63Z"/>
  <path class="cls-61" d="M297.24,33.03c-.2.3-.8.55-1,1,1.14,1.79,1.14,2.79,0,3-1.6,2.33-2.47,1.74-2-1-2.75-.45-2.6-2.07,0-3-.34-.88.33-1.55,2-2-.65-.56-1.32-.55-2,0,.51,1.34-.87,1.73-2,1l-1.17.71c-.62,14.81-11.37,12.29-4.83.29-2.88-1.93-1.39-7.01,2.35-6.34l1.65-1.66c7.36.31,7.42-.43,7,8Z"/>
  <path class="cls-9" d="M260.24,27.03c-5.09,3.06-5.52-1.72-6.69-2.02-1.07-.27-6.57-.2-7.11.28-.46.4-.09,1.68-.2,1.75.05,4.69-8.96,2.08-10,0-1.95.12-2.29-.55-1-2,10.52-3.26,15.22-3.16,25,2Z"/>
  <path class="cls-25" d="M304.24,31.03c2.3,1.72.94,2.64-1.1,3.54l1.1.46c2.82.67,3.66,2.31,1,4-1.33.61-1.3,1.1-2,2-.9,1.15-3.6,5.71-4,7-.28.87-.62.86-1,0-1.1-.4-1.77-1.4-2-3-1.17-1.46-.85-2.47.34-3.62-3.1-.77-3.87-4.8-.34-4.38.1-.89-.23-2.48,0-3,6.06,7.14,1.19-.58,8-3Z"/>
  <path class="cls-20" d="M235.24,25.03c1.01-.09,1.12,1.26,1,2l1.06,1.45c4.52.07,6.81.31,2.71,4.59,4.11-.01,5.48,2.84,1.23,3.97-.39,2.18-4.78,5.76-7,5-1.06-3.33-4.89,6.91-3,11,2.84,1.95,3.09,8.22,0,10-.35-.5-.99-2.01-1.5-2.01-.73,0-.82,1.63-1.5,2.01-.29-2.31-1.71-4.39-1.92-6.59-.7-7.32,1.06-12.43,1.93-19.42-4.34.28-4.39.49-4-3.99,2.68-.96,1.59,1.79,2.64,2.01,4.19.88,7.67.7,6.36-4.01l-7.01-2c3.68-2.67,5-2.76,9-4Z"/>
  <path class="cls-82" d="M334.24,28.03c1.92,1.55,14.06,3.9,14.86,5.15.15.24-.97,1.77-.86,1.84l6.01,1.01c-.83,2.77-7.14,2.76-8,0-2.2-1.91-5.38-.69-8-1v-4c-4.91,4.57-3.22-.8-7-1,1.52-1.24,1.57-1.13,3-2Z"/>
  <path class="cls-38" d="M8.24,33.03c-.24-2.07,3.89-4.49,5.29-5.21,6.24-3.23,12.19-5.06,19.26-4.78,1.92.08,4.01-1.04,3.45,2-4.47-.01-13.53-1.83-13.99,4,7.76-1.05,3.72,3.99-2.39,1.88-2.31-.8-.75-4.89-3.11-3.87-2.05.89.13,3.94-2.02,4.99-.56-4.35-4.15.75-5.75,1.77-.32.2-.7-.8-.75-.77Z"/>
  <path class="cls-50" d="M259.24,64.03c3.55,2.56,1.68,7.3-1.94,9.64,2.89.06,5.2,2.52,6.94,7.36h1c-4.1,3.52-3.86,3.19-9,5-3.75-2.11,2.64-3.48,1-5-.42-.39-2.62.65-3.01-.51-.77-2.32,2.93-.79,2-2.97-1.99-4.65-3.98,3.12-6.99,1.48l3.01-2.01c.21-.72-1.02-.9-1.01-.99.02-.35.72-1.5,1-2-1.24-3.23,4.12-9.71,7-11v1Z"/>
  <path class="cls-98" d="M73.24,46.03c.47-2.5,3.62,1.06,3.69,1.24.16.46-1.84,2.6,2.87,2.66.39,0,2.29-5.63,6.44-1.9-1.22,1.11-2.83,4.37-4.52,4.73-.38.08-1.27-.83-1.47-.74-.31.14,1,2.81-2.01,6.01,1.41-3.64-2.87-8.74-5-12Z"/>
  <path class="cls-24" d="M438.24,70.03c-3.23.53-8.47-.77-11.28,0-.91.25-1.24,2.11-2.33,2.85-4.41,2.98-5.85,3.51-11.38,3.16-2.33-.15-2.09-.21-4-1,3.34-.15,6.74.48,10.04-.46,4.06-1.16,5.76-6,8.49-6.53,2.36-.46,8.77.23,10.47,1.99Z"/>
  <path class="cls-74" d="M290.24,25.03l.99,4c-5.87-1.52-4.24-.25-4.99,4-.9,2.78-1.9,3.11-3,1,.12-3.33-.71-6.35,2-9,1.33-.22,3.53-.06,5,0Z"/>
  <path class="cls-38" d="M20.24,73.03c.29.07.66-.04,1,0-5.14,2.77,1.49,1.69,1,2.5-1.87,3.04-5.47-2.04-6.99-.49-.94.95,3.63,6.01-3,3.99l-.74-1.13c1.11-1.97.69-3.6-1.26-4.87,5.08-3.15,4.93-1.23,10,0Z"/>
  <path class="cls-65" d="M268.24,34.03c-1.5,3.26-1.96,1.02-3,1-1.89,4.34-5.88,2.04-4-2-.9-1.91-1.51-4.33,1-5,4.06,2.68,3.57,3.09,6,6Z"/>
  <path class="cls-64" d="M142.24,80.03c-3.18,6.03,1.3,24.63-2,29,.77-9.11-1.01-19.7-.06-28.61.17-1.62.37-1.42,1.06-2.39.37.63.58,1.41,1,2Z"/>
  <path class="cls-95" d="M6.24,35.03l1,8.99-3.98-2.99c-.27,3.2-1.7,5.73-2.01,8.99-.28.87-.62.86-1,0,.5-5.81,2.29-10.53,6-15Z"/>
  <path class="cls-92" d="M101.24,26.03c5.36-2.28,12.27-.42,18-.99-.27,1.97-2.05,2.87-3,3.99.86-5.24-2.45-1.74-5.44-1.95s-6.39-1.82-9.56-1.05Z"/>
  <path class="cls-17" d="M420.24,24.03c2.58.58,9.34,2,9,5-3.13.62-5.52,3.03-8.49,4.01-1.36-.84.44-2.58.49-4.01,2.18.07,4.41-.57,3.99-2.99-.66-.04-1.33.03-1.99,0-2.31-.11-3.46.85-3-2Z"/>
  <path class="cls-13" d="M181.24,37.03l-4-2c.05-.14-1.29-1.52,0-2.99l-2.99,1-1.01-5.01c4.96,3.41,5.07,3.62,8,9Z"/>
  <path class="cls-73" d="M100.24,85.03c.76-1.39,2.45.91,4.44,1.06,2.76.21,6.27.06,9.1-.06,1.92-.08,4.01,1.03,3.45-2,.26.38,2,.93,1.98,1.5-.06,2.06-14.22,1.88-16.49,1.48-2.13-.37-1.72-1.26-2.49-1.98Z"/>
  <path class="cls-30" d="M81.24,78.03c-1.7,2.25-4.01,8.32-7,9-.93-.04-1.26-.37-1-1,2.64-2.55,4.29-7.45,8-8Z"/>
  <path class="cls-92" d="M109.24,39.03c1.29-2.71.75-3.77-1-5.99,4.26.96,4.05-.55,6-2.01.6,3.93-3.43,5.87-5,8Z"/>
  <path class="cls-81" d="M1.24,61.03c.16,2.36,1.16,4.59,1,7C.18,61.36-.38,57.31.24,50.03h1c-.3,3.14-.22,7.8,0,11Z"/>
  <path class="cls-46" d="M73.24,86.03c.47.07.89.52,1,1-4.05.93-10.96-.69-15.43.01l-.57-2.01c4.74,2.02,10.28.31,15,1Z"/>
  <path class="cls-3" d="M297.24,63.03c-.06-3.63-.16-7.38,0-11-1.31-1.34-1.25-4.25,1-4h1c-1.46,4.69.01,10.94-2,15Z"/>
  <path class="cls-43" d="M401.24,26.03c-3.29,1.95-2.06,3.12-3,5l-4-1c2.95-2.4,3.69-2.58,7-4Z"/>
  <path class="cls-51" d="M334.24,79.03c5.62-.51,1.82,1.65,1,5-1.81-.94-1.63-.97-3-2,4.91-1.54,2.03-1.48,2-3Z"/>
  <path class="cls-98" d="M84.24,38.03c2.49-.49,3.32,2.96,4,5-4.83-.02-2.88-1.32-4-5Z"/>
  <path class="cls-49" d="M323.24,41.03c1.46-3.95,1.55-3.87,4-7-.95,2.69-.28,7.12-4,7Z"/>
  <path class="cls-8" d="M430.24,29.03c1.85.08,2.75,1.51,4,3l-4.99,1,.99-4Z"/>
  <path class="cls-62" d="M197.24,86.03h8c-4.09,1.5-6.77,1.68-11,0h3Z"/>
  <path class="cls-26" d="M248.24,88.03c-3.06.28-2.86.26-6,0,.95-1.61,4.99-1.64,6,0Z"/>
  <path class="cls-52" d="M395.24,80.03l2,3c-2.89-1.83-2.51-1.42-5-4,1.53-.68,2.51.84,3,1Z"/>
  <path class="cls-54" d="M35.24,88.03c-2.3.23-5.64.16-8,0,1.54-1.67,6.42-1.68,8,0Z"/>
  <path class="cls-21" d="M84.24,37.03c-3.19-.85-2.33-3.54-3-5,1.78,1.41,2.38,2.9,3,5Z"/>
  <path class="cls-40" d="M233.24,85.03c1.38.34,2.87,1.12,4,2-3.11-.82-2.82-.43-6-2,.64.09,1.44-.14,2,0Z"/>
  <path class="cls-36" d="M140.24,32.03c-2.17.91-2.66-.11-1.45-3.05-2.38-1.29-2.23-2.27.45-2.95,1.71,1.72.93,3.71,1,6Z"/>
  <path class="cls-43" d="M390.24,35.03c-.04-2.51,1.81-2.85,3-4,.22,2.54-2,2.92-3,4Z"/>
  <path class="cls-2" d="M27.24,75.03c-2.03.1-.35,2.21-4-1l4,1Z"/>
  <path class="cls-66" d="M364.24,85.03c-.74.32-1.49,1.56-3,2-.56-2.25.94-1.96,2.51-2.97l.49.97Z"/>
  <path class="cls-4" d="M193.24,3.03c.32-.32,8.55-1.22,8.91-.91.17.15,1.03,3.97,1.01,4.47-.21,4.14-3.73,2.23-3.87,2.46-.26.43-2.87,8.8-2.99,9.53-.71,4.42,2.24,13.79-3.06,14.44.8-3.93-1.06-28.94,0-30Z"/>
  <path class="cls-85" d="M41.24,49.03c-.5,1.72-3.3.9-5,1-3.4.2-16.27.67-18-1h23Z"/>
  <path class="cls-11" d="M33.24,36.03c-1.24-.24-5.76-.24-7,0,.2-.38.94-.76,1-1,1.88.14,4.88-.77,6,1Z"/>
  <path class="cls-33" d="M139.24,26.03c-.81,2.6.55,4.29,1,6,.36,1.35.06,3.15,1.47,3.73,5.29-1.51,5.32-3.8,11.52-.72-.51,2.83-6.32-.61-6.99,0,3.09,4.97-3.68,1.19-3.02,7l-1.97-1.02c-.68,2.03,0,4.29,0,6.01-.35.5-1.6.24-1.99,2.48-.49,2.84-.74,9.82-.89,13.08,0,.17.98.57,1.87,2.44-3.42,1.78,1.17,4.05-3.99,5,1.44-6.07-4.23-4.5-5.78-6.24-1.23-1.38-2.56-8.28,1.77-7.76.77,1.41,1.71,1.82,3,1-.76-1.51.13-3.63,1-5-2.36,2.01-3.37.75-3.05-3.77l-.95.77-4,4c.13-5.02-2.21-18.78,4-18.01-4.79-5.62,1.19-5.69,5.99-3.99,1.2-5.19-2.64-1.38-3.99-3.98l4.99-1.01Z"/>
  <path class="cls-88" d="M128.24,60.03c-.08,3.01,1.14,7.72-2,9,.02-11.87-1.39-28.42-.06-39.6.18-1.52.65-1.57,1.06-2.4l1,33Z"/>
  <path class="cls-96" d="M132.24,49.03c.03-2.55-.46-5.66.5-7.99,2.8,2.35.9,6.32,1.55,9.25.2.9,1.86,1.4,1.96,1.74-.92,1.57-1.25,3.24-1,5-.58,1.82-.74,4.34-2.99,5-.05-1.99.04-4.01,0-6-.05-2.32-.03-4.68,0-7Z"/>
  <path class="cls-76" d="M12.24,79.03c-.33-.1-.76.12-1,0-2.23-2-2.9-3.67-2-5,.33-.31.66-.79,1-1,4.88-.25,4.95,2.78,2,6Z"/>
  <path class="cls-38" d="M11.24,79.03c-1.6-.83-2.76-2.22-3.98-3.5.39-.83,1.49-1.03,1.98-1.5l2,5Z"/>
  <path class="cls-79" d="M424.24,49.03c.14.01,2.38,1.19,2,1.99l-4.01.51,2,1.49c-3.51,2.06-6.59-4.33-6,2.01l6.52-.96c3.62,2.85-3.39,3.79-5.02,3.97-6.3.71-13.17-.23-19.5,1-1.81.09-1.42-1.61-1-3,2.33-1.42,5.52,2.41,9,.99,1.41-4.08-10.94-2.79-7.99-5.98,1.08-1.16,17.77-.93,20.58-.97,1.31-.02,2.26-1.03,2.42-1.04.32-.02.68-.03,1,0Z"/>
  <path class="cls-7" d="M386.24,51.03c1.32-6,4.58-7.11,5-13,6.46,3.69-.1,11.44-5,13Z"/>
  <path class="cls-86" d="M400.24,59.03c.02.33-.03.67,0,1l-3.5,6-.5-3c.13-.61-.15-1.44,0-2,.25-.93,2.16-4.49,3-5,1.31.51.94,1.9,1,3Z"/>
  <path class="cls-83" d="M386.24,59.03c1.74,1.69,1.91,5.97-1,5-.45-2.26.03-3.15,1-5Z"/>
  <rect class="cls-77" x="393.24" y="58.03" width="3.99" height="1.99" transform="translate(335.2 454.12) rotate(-89.85)"/>
  <path class="cls-14" d="M396.24,33.03c1.98.06,3.41-.73,3.01,1.49-.3,1.65-2.84-.5-3.01-.49v-1Z"/>
  <path class="cls-92" d="M106.23,37.05c.63.88-.64,2.38-1.49,2.96l-4.48-4.48c1.98-2.6,1.59-.73,2.96.05.91.51,2.91,1.33,3.01,1.47Z"/>
  <path class="cls-90" d="M94.24,41.03c.22-.21-.21-1.82,0-1.99,2.15-1.73,2.41,2.44,1.99,3.99-1.69.37-2.19-.39-2-2Z"/>
  <path class="cls-30" d="M74.25,77.03c-.68-1.62,2.79-6.91,3.49-6.98,3.99-.42-1.96,7.37-3.49,6.98Z"/>
  <path class="cls-98" d="M82.23,64.02h-1.99c-.24-1.84-.04-2.91,1.5-3.99l.49,3.99Z"/>
  <path class="cls-25" d="M292.24,32.03c.91-.18,1.82-.02,2,1-.18.84.26,2.42,0,3-.02,2.24.63,4.4,1.95,6.49l-3.95,8.51c.04.53.93,1.43,1,2l-.53,2.69c-1.56-.49-2.72.28-3.47,2.31,0,2.53-2.92,8.32-4.99,5.99-1.69,3.7,1.89,5.35,1.97,5.69.16.68.97,10.2.87,10.73-.71,3.88-1.95-1.01-3.85-.41-1.03-13.69-.52-32.08,0-46l3-1c-.17.97-2.14,10.99.99,8,.78-.75.91-10.06,3.66-10.01.65.01,1.21,1.04,1.35,1.01Z"/>
  <path class="cls-3" d="M289.24,58.03c-1.36-3.01-2.28-9.42.99-11l1.02,7.49,1.99-1.49c.42,3.63.98,7.32.99,10.99l-4.99-5.99Z"/>
  <path class="cls-3" d="M296.24,37.03c-.05.46-1.28,1.68-1.01,1.99.3.33,4.05.55,4.02,1.53-.06,1.61-2.07,2.93-3.01,4.49,1.42,1.44,1.01,2.29-1,2-.86,1.41-1.37,3.22-3,4-.32-4.78,1.9-6.61,1.97-8.5.07-1.77-2.09-3.29-1.83-4.88.17-1.03,1.76-1.41,1.85-1.62l2,1Z"/>
  <path class="cls-34" d="M296.24,45.03c2.61-.46,2.12.63,2,3-.05,1.06-.95,2.95-1,4-2.24-.66-2.17-3.08-2-5,.38-.63.62-1.37,1-2Z"/>
  <path class="cls-101" d="M292.24,86.03c-1.42.05-3.78.25-5,0,.66-1.58,4.34-1.58,5,0Z"/>
  <path class="cls-44" d="M260.24,48.03c2.99,1.59,4.57,9.56,4,12.31-.08.4-3.78,1.66-1.85,7.08.48,1.36,2.4,1.34,2.71,1.82.4.61-.88,2.23-.45,2.84.81,1.15,3.32.73,3.59.96,2.7,2.26-3.61,1.91-3.9,2.09-.7.43-1.03,4.84-.1,5.9-2.95.65-4.05-4.87-4.93-5.56-.52-.41-4.51,1.51-5.07-.95-.37-1.6,3.06-2.85,4.23-4.76,1.73-2.82.68-3.87.77-5.73.89-2.08,1.14-3.97,0-6-2.72-1.9-2.74-4.11,0-6-.04-1.67.29-3,1-4Z"/>
  <path class="cls-37" d="M261.24,33.03c1.87,3.95,3.1,1.98,4,2-1.68,2.16-.04,4.19,0,5,1.33,4.7,1.12,6.22-3.92,5.63l-2.08,1.37c.82.52.58,1.25,0,2-3.3,1.23-5.44-6.41-4-9,4.73-.07-.45-2.75,0-4.99,1.26-1.31,6.87,1.58,5.99-2.01Z"/>
  <path class="cls-44" d="M265.24,40.03c3.2,6.39.37,6.25-5,7-.28.87-.62.86-1,0,.03-1-.03-2,0-2.99l5.99.99c-.05-1.65.1-3.34,0-5Z"/>
  <path class="cls-97" d="M260.24,48.03l-1,4c-2.72-.9-2.73-2.09,0-3,.03-.66-.02-1.33,0-2h1v1Z"/>
  <path class="cls-18" d="M412.24,81.03c1.33-.01,2.67,0,4,0,1.08.81-6.03,4.44-5,0,.32-.04.67,0,1,0Z"/>
  <path class="cls-71" d="M361.24,49.03c-.04.61,1.36,1.64.3,3.72-1.52,3-7.65,7.02-11.3,6.28l-11.99-1.99,11-1.02c.91-3.97-2.68-3.65-4-5.98,4.54-1.11,11.43,2.11,14.99-1.01h1Z"/>
  <path class="cls-56" d="M344.24,49.03c-.77,1.9-3.19,4.1-5,2.5l2-2.5h3Z"/>
  <path class="cls-19" d="M368.24,35.03c-2.7,2.66-3.67,5.11-8,4-.38-.61-.59-1.43-1-2l1.32-.03c1.76-2.61,5.82-6.19,7.68-1.97Z"/>
  <path class="cls-87" d="M166.24,42.03c.65.51,2.01-.02,3.37,1.97.77,1.12.91,4.19-1.37,3.03-.67-1.67-1.46-3.29-2-5Z"/>
  <path class="cls-55" d="M157.24,75.03c-1.54.51-2.76,1.74-5,1v-1c1.45.28,3.44-.19,5,0Z"/>
  <path class="cls-6" d="M432.23,45.02h-3.99c.02-3.98,3.99-3.93,3.99,0Z"/>
  <path class="cls-28" d="M397.24,80.03c2.9-6.73,2.61-1.41,3-1-1.24,3.32-2.39,1.1-3,1Z"/>
  <path class="cls-70" d="M312.24,26.03c1.39-1.9,2.93-.33,4,1,.07.6-.15,1.84,0,2-1.11,2.48-3.11,3.81-6,4,1.22,4.06-4.39,5.7-6,2-.5.11-.94,1.38-1.02,1.99-3.62-1.21-.26-3.6,1.02-5.99,1.47-.52,5.74-.85,5.94-1.07.44-.5-.42-2.8.29-3.72.4-.52,1.66-.08,1.78-.2Z"/>
  <path class="cls-10" d="M310.24,33.03c3.42-3.2,7.99-.98,4,2-1.3.56-2.24,2.05-3.77,2.73s-3.79.61-5.23,1.27l-1-4c3.48-.75,1,2.87,6-2Z"/>
  <path class="cls-5" d="M316.24,29.03c.1.11,1.74-.43,2.02.65.39,1.51-.24,3.68-.02,5.35-1.61-.28-2.36-.71-4,0,.44-2.76-1.89-2.09-4-2,1.81-1.76,3.12-4.52,6-4Z"/>
  <path class="cls-5" d="M312.24,26.03c.13-.13-.44-1.68.67-2.01,4.41-1.28,3.12,1.14,3.33,3.01-1.55,1.38-2.61,0-4-1Z"/>
  <path class="cls-63" d="M246.24,27.03c5.62,1.57,1.56,2.37,1,5.99h4.99s-1.99,4.01-1.99,4.01c-1.43-.34-7.31-.23-9,0,1.34-1.87,1.54-2.67-1.23-1.73-1.74.59-9.43,5.16-9.76,4.73-2.48-3.18,4.81-4.78,5.91-5.58,1.45-1.06,2.75-4.02,5.08-4.92l-5.99-.5c-.38-1.04.96-1.78,1-1.99.55,1.89,9.57.29,10,0Z"/>
  <path class="cls-25" d="M296.24,31.03c-.71.96-1.54,1.22-2,0,.77-2.4-1.83-1.83-1.98-2.01-2.1-2.59,4.99-3.56,3.98,2.01Z"/>
  <path class="cls-74" d="M296.24,31.03c-.18.98-1.01,1.76-2,2-.68.17-2.1-.03-2-1,.61-.09,1.38-.86,2-1,.57-.13,1.36.09,2,0Z"/>
  <path class="cls-78" d="M135.24,57.03c-2-1.16-1.19-4.44,1-5,.68,2.29-.49,3.41-1,5Z"/>
  <path class="cls-12" d="M234.24,42.03c-2.4,3.71-2.7,6.77-3,11-6.08-1.68-1-2.19-.97-2.49.25-3.35-1.61-2.23-1.82-2.66-.58-1.25,2.78-4.82,3.97-6.17,1.38-1.58,1.95-3.15,1.82.32Z"/>
  <path class="cls-100" d="M287.23,53.03c.23,1.84.06,2.93-1.51,3.98h-1.48s0-3.99,0-3.99h2.99Z"/>
  <path class="cls-75" d="M259.24,64.03c.02-.33-.01-.67,0-1,.05-1.66-.03-3.34,0-5,2.4,1.49,1.86,4.21,0,6Z"/>
</svg>