<?xml version="1.0" encoding="UTF-8"?>
<svg id="Layer_1" data-name="Layer 1" xmlns="http://www.w3.org/2000/svg" viewBox="0 0 463.31 640.05">
  <defs>
    <style>
      .cls-1 {
        fill: #a5c5ef;
      }

      .cls-2 {
        fill: #91c7ed;
      }

      .cls-3 {
        fill: #92caee;
      }

      .cls-4 {
        fill: #7ed1e8;
      }

      .cls-5 {
        fill: #bdc1f3;
      }

      .cls-6 {
        fill: #9ac6ef;
      }

      .cls-7 {
        fill: #89cde9;
      }

      .cls-8 {
        fill: #80d1e7;
      }

      .cls-9 {
        fill: #89ceeb;
      }

      .cls-10 {
        fill: #96c8ee;
      }

      .cls-11 {
        fill: #9dc6ee;
      }

      .cls-12 {
        fill: #83cfea;
      }

      .cls-13 {
        fill: #abc3f0;
      }

      .cls-14 {
        fill: #8dc9ed;
      }

      .cls-15 {
        fill: #abc0f2;
      }

      .cls-16 {
        fill: #b0c3f1;
      }

      .cls-17 {
        fill: #bac2f2;
      }

      .cls-18 {
        fill: #8ecced;
      }

      .cls-19 {
        fill: #bcc2f2;
      }

      .cls-20 {
        fill: #7bd3df;
      }

      .cls-21 {
        fill: #8ccceb;
      }

      .cls-22 {
        fill: #8bcdec;
      }

      .cls-23 {
        fill: #bfc2f2;
      }

      .cls-24 {
        fill: #88ceec;
      }

      .cls-25 {
        fill: #80d2e4;
      }

      .cls-26 {
        fill: #7dd2e4;
      }

      .cls-27 {
        fill: #a8c2f0;
      }

      .cls-28 {
        fill: #7cd2e6;
      }

      .cls-29 {
        fill: #b6c2f1;
      }

      .cls-30 {
        fill: #7bd3e1;
      }

      .cls-31 {
        fill: #98c6ef;
      }

      .cls-32 {
        fill: #b7c1ec;
      }

      .cls-33 {
        fill: #90caec;
      }

      .cls-34 {
        fill: #a3c1f0;
      }

      .cls-35 {
        fill: #8bcbec;
      }

      .cls-36 {
        fill: #b9c2f2;
      }

      .cls-37 {
        fill: #b0c0f2;
      }

      .cls-38 {
        fill: #a9c3f0;
      }

      .cls-39 {
        fill: #a6c0f1;
      }

      .cls-40 {
        fill: #b3c2f1;
      }

      .cls-41 {
        fill: #7ed1d9;
      }

      .cls-42 {
        fill: #84d0e9;
      }

      .cls-43 {
        fill: #b2c1f1;
      }

      .cls-44 {
        fill: #96c4ee;
      }

      .cls-45 {
        fill: #87cee9;
      }

      .cls-46 {
        fill: #9fc7ef;
      }

      .cls-47 {
        fill: #a0c3f0;
      }

      .cls-48 {
        fill: #96c8ed;
      }

      .cls-49 {
        fill: #aec1f0;
      }

      .cls-50 {
        fill: #93caed;
      }

      .cls-51 {
        fill: #8ecbeb;
      }

      .cls-52 {
        fill: #9dc3f0;
      }

      .cls-53 {
        fill: #b5c0f2;
      }

      .cls-54 {
        fill: #a4c3ef;
      }

      .cls-55 {
        fill: #a1c5ef;
      }

      .cls-56 {
        fill: #9ac8ef;
      }

      .cls-57 {
        fill: #86cceb;
      }

      .cls-58 {
        fill: #7fd0e8;
      }

      .cls-59 {
        fill: #c1c2f2;
      }

      .cls-60 {
        fill: #83d0e6;
      }

      .cls-61 {
        fill: #b8c0f2;
      }

      .cls-62 {
        fill: #7cd1da;
      }

      .cls-63 {
        fill: #b9c1f2;
      }

      .cls-64 {
        fill: #9ac6ed;
      }
    </style>
  </defs>
  <path class="cls-26" d="M329.08,407.09l4.56-2.55c3.63,1.76,6.43.57,8.64-2.73-.79-4.5-1.63-9.53,4.43-6.82-1.14-4.85,2.24-6.99,6.31-4.07l2.43-1.33c1.56-7.51,4.81-9.72,9.76-6.63,1.12-4.06,4.71-5.57,7.52-2.08l4.04-.77c-.66-6.75,4.34-12.56,6.02-3.48,2.18,1.05,4.15,2.25,3.95,4.96l2.45-.59c2.17-3.48,4.69-6.42,7.55-8.8-1.66-8.25,4.72-8.48,10.39-5.16.78-4.98,2.81-8.14,6.07-9.49-4.98-2.61-1.46-6.66,3-7.56-1.74-5.56-1.49-11.85,5.69-7.89,2.33-7.36,5.33-10.87,10.35-2.67l-2.17,4.66c-1.42,4.82-3.56,7.01-6,11-1.6.53-3.34,3.28-3,4-1.69,2.67-3.19,5.33-5,8-1.76-.03-3.2,3.13-3,4-28.76,41.04-77.67,83.79-97,128-3.2,1.72-2.38-3.58,0-4-3.18-2.02,1.92-10.07,5-9-.47-2.55.53-4.88,3-7l-.44-2.36c4.7-3.05-4.47-10.1-1.57-2.54-2.29,8.15-10.65,8.17-17.49,6.58-.26,6.71-3.82,7.14-10.67,1.32l-5.74,6.3c1.99,8.89-6.52,12.16-7.17,2.09-1.25,5.61-3.3,7.58-6.16,5.9.67,5.43-4.58,6.62-7.73,2.7l-7.11.39c-4.67,5.18-7.81,5.8-9.44,1.87-2.09,3.75-5.48,3.98-10.17.69-4.1,1.58-7.87,2.27-11.33,2.07-6.55,7.14-13.8,10.19-21.73,9.13,1.29,1.24,2.02,3.58.61,4.98-.9.9-12.78,2.68-14.86,2.81-5.27.33-13.98.68-17.99-1.94-3.27-2.66.21-5.23,3.46-5.77.62-4.87,7.33-8.96,11.86-6.93,3.84-3.77,8.34-6.79,13.49-9.06-3.57-4.54,5.58-9.55,10.06-10.07.87-3.9,3.82-6.34,8.09-6.63,3.46-5.33,10.76-3.9,15.88-2.26,2.13-5.23,9.12-4.08,13.15-1.98-.36-6.6,1.19-8.95,8.48-8.5,1.05-1.43,2.28-2.72,3.71-3.88.09-3.72,1.81-8.98,5.89-5.6,1.51-5.21,6.27-5.03,6.94.57,2.87-.49,5.67-1.63,8.05-3.31,2.04-4.3,4.82-9.76,10.03-5.96,1.07-3.59,3.75-2.84,8.04,2.24l.24-7.6c2.99-4.53,4.53-8.94,4.64-13.25-6.47.02.32-9,4.76-2.3.96-3.29,3.39-2.67,6.03-1.92,1.55-5.67,3.74-12.85,9.65-14.87-2.16-2.57-2.02-5.46,1.57-4.92Z"/>
  <path class="cls-30" d="M324.08,479.09c-2.2,2.04-3.2,4.37-3,7-1.99,3.41-3.54,4.7-5,9-1.6,2.93-2.6,6.26-3,10-.01.33.02.67,0,1l-1.58,1.2c-.7,4.21-1.26,7.04-6.29,5.51,2.44,4.71,1.07,9.67-5.12,8.14-2.17,2.34-4.41,4.23-6.72,5.64l-1.46-.91c-1.37,7.45-5.11,10.08-12.64,8.39l-5.29,1.34c-3.96,8.01-7.63,9.38-11.01,4.11l-1.98,1.17c-4.72-1.33-9.34-2.17-13.85-2.52.11,6.55-5.41,6.13-9,2.01-6.95,1.87-12.82,1.05-17.61-2.46l-1.16,1.49c3.74,6.1-4.94,7.83-8.47,3.52-7.09,4-16.11,2.12-20.94-4.34-4.71-.31-8.34-2.08-10.88-5.29-5.25-1.7-11.81-8.99-15-14-1.15-4.14,3.3-2.71,5.47-.48,2.74-1.66,4.58-1.5,5.53.48,6.91-.79,15.18.53,22.35-.35,3-.37,6.09-2.58,9.65-1.65.27-2.96-5.87-3.33-.96-5.52,2.7-1.2,4.29.69,6.44.52,3.05-.25,11.87-6.27,14.48-8.6.97-.86,1.08-3.76,3.01-2.34.14.1-.08,2.04.49,1.93,3.31-.62,7.18-4.17,11.9-2.69,1.5.47,2.47,2.5,3.13,2.51,1.96.05,4.65-4.85,5-4.83,4.19.25,1.29,3.82,1.52,4,4.2.53,3.44-3.29,7.46-4.54.42-.13,8.42-.55,8.85-.47.77.15.62,1.78,1.35,2,5.82,1.76,1.59-4.05,3.35-5.98.35-.38,3.56,2.69,4.98,1.99-1.08-4.96,2.51-8.31,7-7.5-3.79,2.19-1.84,9.24,1,6.51.53-.51-.08-5.57.26-6.41.46-1.12,5.35-5.43,5.97-7.38,5.04-1.26,6.04,3.69,9.76,4.78-1.02-10.38,6.18-4.78,10.33-5.31,2.3-.29,8.3-2.96,7.67-6.17-.35-1.8-4.36.35-2.99-2,1.02-1.76,5.18-2.44,6.49-4.49,2.86,2.56-.37,6.02,4.49,4.99.33-2.23-.74-6.24.48-8.03,1.07-1.58,7.26-2.68,7.54-2.98.43-.47-1.8-2.78-.08-5.53,2.26-3.61,5.24-.06,7.58-3.46,1.5.77.12,1.73-.49,2.51-5.35,6.88-13.43,19.31-19.02,24.48Z"/>
  <path class="cls-29" d="M176.08,92.09c4.46-.79,6.91,9.04-.41,7.67-.06,3.99-.45,8.72-4.35,10.64,1.19,4.14-2.09,4.88-5.44,3.27-2.21,2.55-4.3,4.31-7.83,5.02,3.39,1.62,7.1,6.49,3.02,8.41,3.72,3.51-1.83,5.82-5.74,4.84-.77,4.51-3.06,10.54-8.26,7.16-1.88,4.51-3.36,7.64-8.77,4.99-.37.14-3.56,4.79-3.24,5.17,1.9.36,3.49,1.07,3.05,3.18-.25,1.19-11.14,7.83-11.86,7.7-1.32-1.81-2.75-2.44-4.28-1.87,3.03,8.14-2.28,9.19-9,9.9-.51.46-2.22,4.62-.8,5.27-1.06,3.29-6.22,8.8-9.99,9.95.35,3.92-2.2,5.61-5.87,5.91,2.5,6.58-7.38,5.41-7.23,3.73.26-2.92,6.09,4.78-1.26,5.11-4-2.41-7.45-.52-10.33,5.65-2.93.21-5.09,1.34-6.5,3.4-5.46,1.25-5.65,1.68-7.14,6.7-5.04-.39-9.48.14-14.04,2.89-.76,3.83-2.98,5.04-6.7,4.55-3.35,5.2-9.8,9.16-16.24,7.9-.45,5.88-7.12,6.18-9.37,1.65,1.85,10.68-7.48,6.44-12.5,1.87,1.17,7.27.87,14.05-.91,20.35.79,2.32,2.37,10.49,2.03,12.54-.21,1.27-.61,1.93-2.03,2.46-3.17-12.65-2.3-25.74-4.08-38.5l2.08-28.5c1.27-.53,2.13,5.04,1.99,5.99-.07.45-.69-7.22-.55-8.94.44-5.2,1.89-13.28,4.56-17.05,2.78.97,2.82,3.04,0,4,2.05.68,1.9,2.04,0,3,1.04,1.66,1.81,3.7,2.34,6.11,4.14.65,7.2,2.57,9.19,5.77l3.53-1.38c1.53-3.39,3.74-3.82,7.09-3.03,1.44-3.34,4.37-3.9,8.78-1.66,2.25-1.94,4.55-3.47,7.17-1.14,3.71-4.36,10.11-9.32,15.84-5.62,1.04-5.58,3.17-9.75,9.24-10.57-.8-4.8,1.83-7.08,6.09-4.29-.85-4.74.22-6.62,3.23-5.65.64-2.65,2.61-3.39,5.93-2.22.54-.12,9.32-4.54,9.74-4.89,1.91-1.6,4.27-7,2.89-9.23l1.95-1.21c2-1.01,4.11-1.9,6.33-2.68,1.36-4.18,2.84-5.93,6.88-7.82,2.92-6.42,6.99-9.04,12.22-7.86,1.07-4.79,4.44-8.44,10.09-10.95-1.81-5.06,6.8-11.21,11.02-8.43.65-3.63,2.64-6.7,6.03-8.4.12-4.12,4.66-8.78,7.39-4.15,3.02-2.75,6.03-4.99,9.04-6.71,3-1.8,5-1.8,6,0Z"/>
  <path class="cls-12" d="M402.08,254.09c3.39-2.95,5.39-6.13,5.99-9.53l5.33-3.58c1.67-.25,2.64-1.48,2.91-3.68,4.47,1.22,7.19-.74,8.16-5.9l12.03-5.25c6.25-2.93,12.07-6.59,17.5-10.06-.47-5.77,1.69-16.79,5.28-6.42l1.15.66c2.79,6.96,2.33,16.23,1.66,23.75.16,11.18-1.15,21.04-3,32l-2.32-1.15c-.51-5.57-.18-11.14,1.01-16.69-2.7.81-5.62.96-8.75.47.17,4.61-3.04,5.85-7.15,5.29-.31,3.23-3.06,4.03-5.44,1.82l-4.09,1.46c1.23,3.7-4.81,6.49-8.29,7.07-1.26,4.78-3.1,6.26-8.39,6.36-1,5.25-4.78,8.69-11.34,10.31.63,2.24.3,3.84-.99,4.78-6.31,1.69-12.5,5.03-16.8,10.07,1.33,1.88,1.38,2.58.65,4.7-.31.9-13.44,10.41-15.31,10.88-1.7,5.99-3.23,9-9.71,10.04.76,3.52.78,5.25-3.33,5.52-.67,3.24-2.73,5.04-5.53,2.54-5.34,1.6-6.12,2.56-7.9,7.55-7.26,1.13-9.78,4.52-7.56,10.17-2.39,2.2-4.85,4.29-7.38,6.28.83,3.89-2.42,4.3-5.47,3.42,4.37,2.43,5.86,7.64-.19,7.52-1.96,3.15-4.67,4.62-8.15,5.43l-1.39,5.1c1.96,5.81-1.78,8.79-5.68,3.44-2.61,1.74-4.77,3.94-6.48,6.59.83,2.99-.76,3.21-3.52,1.9-1.46-.7-6.23-14.63.58-13.03-.8-4.56,1.13-6.42,5.71-6.46-3.76-1.59-3.67-5.46.16-6.73.63-3.69-.93-6.73-3.14-9.61,1.24-1.83,1.64-3.52,1.2-5.07-2.64-3.01.22-3.89,3.2-4.53,2.65-3.19,5.45-4.46,8.86-5.69,1.03-3.65,2.42-7.07,4.17-10.27,2.57-.81,4.93-1.92,7.09-3.32-.36-7.86,8.03-12.53,15.59-14.57,4.11-5.13,8.96-7.61,14.54-7.45,1.55-4.79,3.19-9.05,5.3-13.18,3.05-.81,5.87-2.03,8.46-3.66,2.31-3.61,4.14-6.74,5.47-11.32l8.59-5.89c2.38-3.82,5.39-5.37,9.03-4.66,1.73-4.6,4.29-7.09,7.68-7.47Z"/>
  <path class="cls-19" d="M225.08,2.09c3.9,1.28,8.04.8,12,0,.54-.76,1.31-.5,2,0,3.65,2.84.83,4.96-8.47,6.36-6.24.7-12.34,1.91-18.29,3.65-.78.6-4.7,7.04-4.31,8.97-1.73,1.18-2.35,2.71-1.86,4.59-2.27,1.69-4.02,4.23-5.25,7.63,2.92,4.36.93,6.33-5.96,5.89,5.75-.22,5.78,7.31.04,6.88-1.2,4.91-3.56,6.99-7.09,6.25l-3.88,2.8c.79,5.81-.76,7.57-4.66,5.29-1.53,3.34-5.52,8.57-9.29,7.7-1.21,1.59-3.25,2.11-6.12,1.57,3.02,3.85.67,6.52-7.03,8.02,1.2,4.91-.61,7.23-5.44,6.96-1.93,2.52-3.31,4.74-4.53,7.84-6.3-.56-8.33,1.46-10.7,7.19-2.28,2.82-5.66,5.53-9.46,4.81-3.11,4.88-6.93,7.97-11.47,9.25-1.91,2.52-3.05,3.64-6.25,3.62.37,6.73-2.59,13.49-10.31,15.26l-1.96,4.65c-4.78,2.93-9.25,4.73-15.12,5.44-2.06,6.12-4.91,8.49-8.53,7.11.37,5.5-.92,9.16-7.18,8.22-1.28,5.35-4.82,7.56-9.68,4.34l-6.04,2.31c-2.99,3.14-7.45,3.43-13.38.87,1.79,6.12-1.64,11.17-5.91,3.73-6.54-.81-11.95-3.09-16.25-6.85-.82,5.13-2.71,9.02-5.66,11.68.39,2.16.41,5.82-1,6-1.46,2.45-2.28,1.67-2-1,3.54-16.08,9.11-33.07,16-48,.86-.67,1.86-1,3-1,4.24-2.66,9.35,4.7,2.45,6.59l2.04,4.25c3.35-5.52,8.55-5.59,15.61-.22,2.21-2.62,4.19-3.95,7.79-3.48,1.04-2.89,3.62-3.11,7.75-.64,2.29-4.22,5.25-5.73,8.88-4.54.01-7.94,2.62-11.1,7.83-9.48,1.16-6.75,2.79-15.98,9.26-5.81l1.39-.66c-.17-.79-.23-1.66.3-2.32,1.24-1.55,11.39-6.33,13.63-6.6,1.59-3.2,3.54-4.86,6.8-4.28.71.13.94-1.04.52-2.1,4.2-2.7,7.4-6.05,9.6-10.04-1.13-4.01,4.31-6.43,7.88-6.15.47-1.29,1.73-2.43,3.76-3.41,1.61-5.28,6.7-11.39,12.63-10.31,1.81-6.52,5.03-9.73,9.65-9.63-1.72-4.92,3-8.53,6.05-3.91,1.26-4.58,2.66-6.22,7.83-4.06.2-3.06,2.25-4.59,5.27-4.22-2.93-2.75-2.26-5.92,1.8-6.14-.53-3.36,1.51-7.74,5.31-7.81-.22-2.38,1.27-3.91,4.46-4.58-.7-2.74.65-4.57,3.28-5.56-6.06-3.31-.55-7.39,4.09-8.75-4.27-4.55-.11-9.51,4.51-5.1-.92-2.31-1.33-4,1.6-4.02-1.32-2.96,1.45-3.56,8.31-1.79.38-3.04,3.2-5.02,4.69-2.21,1.43.14,2.77-.19,4-1,3.23-.91,6.89-.91,11,0Z"/>
  <path class="cls-59" d="M175.08,6.09c6.47,2.07-1.15,4.9-5.31,5.7-2.18,3.49-6.04,6.08-10.46,5.18-5.32-3.9-4.9.82-4.46,5.41-1.29,3.28-2.11,6.52-2.46,9.72-4.08,2.72-7.14,6.09-9.2,10.1-3.92,1.84-7.82,4.66-8.75,9.06-3.14-1.23-5.61-.41-7.42,2.48,3.34,5.35.71,6.61-4.26,7.52,1.97,4.66.27,7.84-4.85,5.34-4.72,4.03-8.09,9.13-10.1,15.29-2.96-.9-4.8-.33-5.51,1.71,3.19,3.11.08,5.88-3.77,6.14.83,5.77-5.23,5.28-9.46,4-1.07,3.45-3.64,3.04-5.96.6-4.21,6.52-9.57,10.9-16.11,13.14l-2.87,9.74c-4.25,5.87-7.49-.11-9.13-4.53l-4.55-1.6c-4.03,5.1-9.77,5.96-12.29-.92-4.1,5.62-7.5,11.81-10.2,18.56l-2.89,1.37c-.96,1.94-1.21,2.5-3,1C50.51,69.51,108.7,21.29,175.08,6.09Z"/>
  <path class="cls-43" d="M276.08,6.09c3.97-.55,8.31-.21,13,1,.52-.12,2.54-.13,3,0,1.24,1.8-.12,2.43-2,2,2.54,3.67-3.11,7.83-6.16,3.69,2.71,3.99,2.16,10.79-2.43,12.59.89,4.06-1.46,6.22-7.05,6.5,1,8.25-1.73,8.7-8.6,8.81.88.79,1.56,1.61,1.68,2.84.05.51-3.26,8.55-3.83,8.91-4.56-.07-4.94,1.63-1.12,5.08-3.61,4.12-7.38,8.23-11.3,12.31,3.55,4.77,1.4,8.06-6.47,9.87-1.66,5.59-4.99,6.84-10.14,8.74-1.56,4.6-3.42,9.18-5.58,13.72-2.79,1.26-3.96,2.08-6.02,3.93l-.89,2.25c-3.97,1.2-5.94,3.31-5.93,7.48-4,.31-5.75,1.73-5.26,4.27-3.63,2.62-7.4,5.15-11.3,7.57-1.19,5.33-8.27,6.68-13.11,6.33-3.67,6-8.74,10.84-15.22,14.51l-4.98,5c-4.87,1.35-8.07,4.9-9.62,10.67-1.46,2.07-4.18,5.54-6.69,3.92l-2.85,2.1c-6.2.73-9.64,4.42-12.31,10.01l-2.86,2.11c.83,2.86-4.82,8.11-7.3,8.44l-4.69-2.66c-5.68.84-5.07-2.99-.86-5.59l2.64-4.89c-3-3.58-2.02-5.89,2.27-6.99.83-3.01,2.83-7.83,5.03-9.2,3.97,1.73,6.72-2.75,8-5.81l2.3-.7c.16-5.28,3.13-8.81,8.93-10.57-1.59-1.96-2.02-3.71-1.3-5.25,1.45-.63,3.43-.94,4.53-2.03s1.17-5.93,2.67-6.76c2.74-1.53,5.38,2.29,6.8-3.21,1.65-1.08,2.04-2.35,1.17-3.82,3.56-4.51,8.12-8.11,13.18-11.07.56-3.51,1.84-5.48,3.83-5.92,1.2-3.67,5-5.57,11.4-5.68,2.86-3.73,5.52-5.37,7.96-4.92.3-3.89,2.98-5.76,8.05-5.61-3.09-5.19,2.49-10.15,7.52-8,2.82-3.69,4.48-3.84,8.56-3.99.54-4.32,2.03-8.5,6.87-8.9l2.95-3.97c-3.19-4.68,1.53-9.07,5.9-5.67-1.26-5.1,2.97-9.67,7.76-8.62,2.88.63-.94,3.59-.06-1.49.59-3.42,1.5-4.9,5.12-3.2l1.72-2.45c-3.56-3.65.44-8.82,4.02-10.77,1.78.63,2.94-.28,3.47-2.72,6.27-4.27,9.97-9.48,7.78-17.35.3-1.69,1.48-2.94,2.71-4.02-1.8-4.15,2.54-5.05,5.07-2.83Z"/>
  <path class="cls-20" d="M313.08,506.09c-.36,5.97-4.91,16.48-6,24-.71,1.55-1.05,3.22-1,5-.09.99.07,2.01,0,3-.93,4.04-.93,8.37,0,13,.05,1.33-.09,2.68,0,4,.68,1.92,1.01,3.92,1,6,.49,2.94,1.26,6.1,2,9-2.83,7.23-5.49-3.76-5.46-8.13l-2.66-.31c-4.5,10.24-8.63,12.92-12.38,8.04-3.17.62-6.4-.03-9.46-.73-6.11,7.39-11.04,9.35-20.41,7.08-7.42,2.45-14.29,2.19-20.62-.79-2.33,2.72-9.54-1.82-9.13-5.55l-7.75-.21,22.55,17.8c1.84,2.31.51,5.05-1.67,2.8-10.57-7.27-20.75-15.62-30.48-24.02-5.14-4.44-9.72-9.63-14.52-13.98-5-5.38-10.34-10.71-16-16-1.33-.47-2.73-1.69-2-3,.75.23,2.08-.16,3,0l-1.01,1.98,9.28.93,7.18,6.7c2.76-1.39,5.4.37,7.82.17,2.02-.17,5.9-2.8,6.24-2.77.5.05,1.88,5.2,7.48,1.96.46-1.69-1.89-.49-2.04-1.5-.31-1.99,2.51-5.57,4.54-5.51.85.03.6,1.83,1.52,2.52,3.76,2.84,12.62.5,16.42.5.65,0,.56,1.74,1.79,2.33,5.6,2.67,2.89-1.43,4.23-3.37,2.59-3.74,11.85,1.7,14.25,1.86,1.31.08,2.16-1.64,3.36-1.39,2.37.48,2.97,3.7,3.44,3.58,3.85-1.01,3.79-5.95,6.56-7.48.25-.14,5.25-1.46,5.53-1.5,2.75-.4,4.95,2.57,5.44-2.01,1.38-.51.86,4.01,2.97,1.99.23-.22,2.77-5.42,2.83-5.73.32-1.52-1.35-4.76-.81-5.26,2.7-2.54,4.12,4.13,4.49,3.99,2.81-1.06-.33-5.89.52-6.99,1.5.56,3.21,1.2,3,2.99h.97c-.81-3.75,5.2-1.24,6.01-2,.18-.17.24-4.87.02-4.99-1.14-.61-4.54,1.37-4-1.49,1.64-4.33,7.48-.35,8.91-1.6.25-.22,1.09-5.36,2.08-6.4l2,1.49Z"/>
  <path class="cls-16" d="M120.08,188.09c3.06-2.4,4.65,1.05,5.51.98,1.21-.11,1.18-3.27,1.75-3.78.81-.74,4.08.81,2.74-2.69-.56-1.47-3.93-.67-2.99-3.5,9.28,4.97,6.21-8.04,13.99-8.01.7-2.15-2.41-2.92-2.69-4.46-.35-1.94,2.33-3.62,3.7-2.52.32.26-2.35,3.5,1.98,4.6,2.68.68,4.41-2.8,6.02-.6,3.83,2.03.52,6.45-2.42,7.9,3.52,2.04,2.08,4.58-1.18,5.99-1.91,3.76-4.25,6.99-7.01,9.71,1.8,4.48-5.01,12.48-8.82,14.81-6.05,1.08-11.06,4.23-11.94,10.42l-4.63,2.17c-.47,2.5-2.89,4.33-7.26,5.49-1.74,5.58-4.78,9.65-9.11,12.19-5.25-1.95-6.77.08-9.3,4.52l-5.84,2.43c-2.4,3.58-5.41,6.12-9.01,7.6,1.33,4.57-1.29,7.75-5.75,5.16-1.19,2.33-3.07,4.28-5.64,5.85-.59,2.35-2.52,4.36-5.79,6.03.31,2.41-1.59,3.56-5.7,3.45l-5.81,5.5c-3.05-.55-5.02.47-5.93,3.08-2.37-.53-3.75.61-4.12,3.42l-9.1,3.98c-.89,4.23-3.53,5.64-7.71,5.64.04,3.49-.32,4.6-2.95,6.73,1.93,3.8,2.27,7.11,1.01,9.94,1.72.33,1.57,2.52,1,4,1.35-1.36,1.92-.77,1,1,4.36,4.36,7.94,14.02,9.72,20.37l-.72,3.63c1.13.46,1.32,1.82,1,3,1.41-1.34,2.03-.72,1,1,3.07.96,4.17,4.42,1,6-10.41-20.43-18.82-43.48-23.51-65.99-.99-4.75-2.49-10.2-2.49-15.01,0-5.17.4-9.16,0-15,3.32-.92,4.81,1.7,4.48,7.88,1.39-1.33,3.1-1.32,5.14.05,1.82-4.05,5.15-4.49,9.97-1.32l3.83-3.24c-1.21-5.6,3.64-8.12,8.52-9.01,1.87-4.94,7.21-6.53,12.15-7.13.59-4.07,2.29-5.65,5.11-4.72,1.44-3.9,4.41-7.71,7.98-3.47,1.07-5.27,2.58-10.76,8.71-7.44,1.19-5.17,3.42-7.46,6.66-6.86,1.44-1.82,2.92-2.4,4.45-1.72,1.58-1.07,2.58-2.1,3-4-1.21-3.6,5.56-7,8.35-4.32.76-2.95,7.36-7.39,9.61-5.29-1.78-3.54,2.43-8.65,6.04-6.39,1.96-1.73,3.5-2.41,6.02-2.58,1.25-2.97,2.91-4.45,4.98-4.42-1.57-.85-1.23-1.18,1-1Z"/>
  <path class="cls-28" d="M336.08,392.09c.19-3.77,3.08-5.58,6.86-5.01-.23-4.05,1.79-7.56,6.24-7.6.52-3.52,1.96-6.28,5.85-4.78-1.37-3.48-.27-5.67,3.69-5.18-.73-6.53,2.59-11.95,9.97-16.28,2.57-6.34,6.26-10.54,11.07-12.59.25-4.3,2.95-6.4,8.09-6.3l9.16-7.55c1.23-5.97,4.86-10.92,11.67-9.92,1.94-3.87,5.91-6.36,11.91-7.45,3.3-11,6.87-20.6,21.01-17.98,1.82-3.3,7.73-9.85,11.17-4.94,1.45,2.07-14.26,41.83-16.7,47.56-1.69,3.34-3.1,7.79-6,10,.1-.33.17-3.63,1-5-2.89.44-3.44-.11-3.01-3.01-4.94.86-2.06,12.43-9.99,6-2.53,2.83,1.33,8.66.99,8.99-.24.23-5.68,1.71-6.02,2.5-1.49,3.47,1.77,1.77,2.04,2.01,1.53,1.41.93,3.6.97,5.5-6.35-6.69-5.07,7.74-8.63,8.05-2.16.19-6.36-4.11-8.44-1.45-.89,1.14-1.19,3.72.58,4.4l1.98-2.99,4.51,4.98c-2.43-.39-6.26-1-8.54-.07-4.73,1.94-4.45,12.05-13.46,9.07,2.37-3.92-1.47-3.52-3.11-5.45-1.42-1.67,1.93-4.15-1.87-3.54l-.02,9c-2.84-2.31-5.38.04-7.43.05-.47,0-.53-3.23-3.05-2.04-1.77.83-1.03,3.94-2.05,4.05-2,.23-6.11-2.24-6.39-2.04-.83.6-2.04,6.34-3,7.58-.82,1.05-2.75,1.19-3.01,1.53-.34.45,2.05,4.41-.57,4.87s-3.68-3.53-.49-3.49c-7.48-6.32-3.54,2.88-4.01,3.46-2.29,2.83-3.85-3.24-6.49.04,2.66,4.83,2.48,6.17-2.55,9.44-4.29,2.79-5.74-1.82-10.94.56-1.12-1.98-.17-3.72,2.86-5.23.54-4.73,2.25-6.65,5.14-5.77l1-1c-2.6,1.48-3.8-.77-2-3Z"/>
  <path class="cls-1" d="M144.08,242.09c.38,1.51,1.05,2.84,2,4l2.69,2.85c3.78,15.64,12.86,29.29,24.3,40.41l1.01,3.74c-3.23,1.89-11.91-4.31-11-8-1.58.57-3.28-.67-5.1-3.73-5.62-.5-8.26-2.46-7.92-5.89-3.58,3.33-7.27,4.61-11.09,3.82-1.71,5.13-4.25,6.9-7.61,5.34-2.93,4.86-5.57,5.82-7.93,2.88-3.34,1.73-10.42,5.8-8.77,9.75-.32,1.69-1.83,2.93-4.55,3.72-2.89,4.55-6.35,6.43-10.37,5.65-1.14,4.54-2.74,8.95-8.26,6.57,1.07,3.67-.84,5.13-5.73,4.37l-2.09,3.12c-.43,3.38-4.78,8.84-8.73,7.49.38,4.59-2.23,7.23-7.81,7.91-1.44,7.79-4.45,10.74-9.04,8.87l-1.19,1.7c-.34,4.68-1.12,5.33-5.7,4.04-2.88,2.71-5.91,3.58-9.08,2.63.63,3.84-.18,6.49-2.44,7.94,4.71,5.47,5.51,9.07,2.41,10.81-4.33-7.66-8.75-14.73-12-23-.12-.3-.15-3.89-1-6,.79-1.54,1.53-.67,1.44-.7-3.27-1.31-1.93-17.85,6.48-13.2.49-5.93,4.16-9.25,9.21-4.65-.87-5.33.59-7.69,4.4-7.06,3.5-6,6.97-7.98,10.4-5.92.4-5.79,2.3-12.22,9.29-11.22.78-2.9,2.93-5.34,6.47-7.32l1.4-2.93c.32-6.85,4.41-11.51,7.37-2.71l1.4-.66c-.43-4.75.47-9.58,6.34-7.47.89-3.56,3.75-5.12,8.58-4.7,3.22-6.02,10.56-10.84,16.75-13.7.63-4.64,1.68-7.31,6.8-4.9,1.53-3.51,4.72-4.8,9.57-3.85.34-2.61.4-5.28.18-8.03.73-1.01,8.72-4.85,8.92-1.99Z"/>
  <path class="cls-23" d="M215.08.09c3.74.34,7.41.68,11,1,1.64-.74,3.34-.74,5,0,4.21-.32,8.54-.65,13-1,5.69.27,12.22,1.4,18,2,2.16.65,2.5,1.31,1,2-1.34,2.56-5.65,2.44-6.18-.37l-8.82-.63c-1.95,2.43-7.68,2.05-9-1-.66-.04-1.34.03-2,0-3.94.83-8.09,1.28-12,0-3.58.08-7.53-.32-11,0-1.75,1.3-3.08,1.63-4,1-.39.14-1.26-.3-1.81.15-.91.75-.44,3.54-1.85,3.9-2.68.69-5.61-.93-7.88-.91-.82,0-1.33.86-1.46.86l-.87,2-12.09.05c-.35,3.17-2.57,6.44-6.01,5.32-.33,5.1-1.61,7.9-6.77,9.15.93,3.33-.8,5.25-5.19,5.76-.04,4.69-2.63,5.89-6.89,5.88-1.29,2.43-3.15,4.19-5.09,5.89,2.14,3.07.99,6.44-2.68,7.34-.59,2.65-2.55,5.06-5.9,7.21,5.12,4.68,1.24,6.55-4.19,6.61,1.49,3.38,2.64,7.34-1.76,8.66-4.38-.67-10.26-.53-11.61,4.51l-5.91,3.16c7.48,5.12.65,7.63-5.1,9.28l-1.08,3.7c-2.31,2.52-5.53,5.93-7.87,7.48.56,1.49.4,1.8-1,1-.54.64-.42,1.4.08,2.24-5.39,5.09-11,7.75-18.47,9.22,1.64,2.38,1.44,3.89-.61,4.53-.33.54.89,4.03-1.49,2.99-1.66-.73-2.39-4.46-5.02-4.97-1.33.15-1.09,6.85-1.8,8.43-2.01,4.52-6.59.53-7.7,1.55,1.41,1.24-.64,9.63-1.01,10-.57.57-3.82-.93-5.05-.47-3.28,1.23-2.48,8.7-10.46,2.49l-1.99,4.95c-3.75-5.29-6.43,1.73-7.98,1.76-1.79.04-9.47-4.81-10.04-4.81-2.19,0-3.9,5.73-6.93,5.05-1.04-.23-3.92-7.65-3.56-7.97l4.98-1.5-4.98-3.5c3.86-7.78,7.04-16.1,12.51-23,2.54-.64,2.3,5.04,5.19,5.87,4.2,1.21,5.17-3.95,7.78-3.88.33,0,6.07,1.98,6.33,2.2.34.29,2.11,8.89,5.19,5.81.41-.41,1.71-9.09,3.5-11,1.68-1.79,5.33-1.33,6.25-2.27,2.45-2.5,3.44-4.07,6.9-7.09,3.01-2.63,2.96-7.78,7.86-1.65,1.89-8.24,4.53.85,8-3.99,2.62,5.76,1.77-2.7,1.97-3.01.68-1.07,4.38.54,5.52-2.5-4.68-1.32,1.44-9.47,4.99-4.5-.49-4.58,7.1-16.79,11.53-16.67.24,0,4.26,3.29,2.98-.29-1.42-3.98-3.37-3.5,2.44-5.42.86-.29,2,.48,2.05.38,1.93-3.57-2.95-5.15-2.97-5.5,2.62-2.44,5.98-.97,3.98-5.5,2.68-.41,4.78.73,6.99,1.99-1.07-6.58,1.16-4.2,3.41-5.89.98-.74.32-2.54.74-2.92.63-.57,2.76.07,3.88-.66,1.03-.68.98-2.98,1.98-4.09,1.09-1.21,6.64-5.13,7.01-5.96.73-2.12-1.74-1.04-2.02-1.99-.6-2.07,1.89-1.27,2.81-3.17,1.61-3.32,1.46-7.34-.79-10.32,1.56.57,10.9-4.94,7.99-.02l4.93-.07c1-1-.08-3.81.08-3.92,2.37-1.56,1.96,3.21,2.98,1.98.29-.35.17-1.96,1.59-2.91,1.91-1.29,5.62-1.44,7.91-2.09l-1.49-1.99c11.93-2.73,27.83-5.26,40-6Z"/>
  <path class="cls-58" d="M459.08,266.09c-1.24,7.3-3.07,13.9-5,21-2.96-.31-5.27-3.58-6.83-6.72-3.17-1.85-15.4,2.59-18.93,4.23-1.51,5.42-5.55,5.65-10.49,5.63-2.22,2.72-4.52,5.45-6.91,8.18-5.87.18-8.77,3.09-8.69,8.72-3.27,3.67-7.46,6.06-12.58,7.17-2.92,2.08-5.77,4.01-8.56,5.8.63,2.39-.96,2.63-3.01,2.82l-1.99,2.18c-1.15,3.33-3.82,5.66-8,7-4.1.16-6.44,1.5-7,4,2.8,1.17,2.72,2.78,0,4,.84,4.07-2.61,6.06-10.35,5.95.85,3.7-1.09,5.65-5.82,5.85,4.42,1.34,5.68,6.96.36,7.21-3.85-2.71-12.19-2.02-11.71,3.53-3.73,2.87-5.12,7.3-4.17,13.29l-2.45,2.38c-3.33.99-5.5,3.19-6.49,6.6-5.58,1.04-8.64,2.67-6.49,8.82-2.59.7-3.82,1.97-3.7,3.8l-2.48,1.51c-2.3,6.92-5.98,9.79-9.08,2.19.15,3.02-.23,6.79-3.87,5.75-.59,4.47-4.41,4.96-7.89,2.87-3.1,1.42-6.67,2.51-6.87-1.75-5.19.68-.84-6.38,3.2-6.45.45-1.97,1.84-3.71,3.92-4.2-1.31-5.74,1.5-6.97,6.33-4.51,1.43-4.06,4.05-6.99,8.51-4.93,1.59-.9,1.93-1.87,1.05-2.9-3.21-2.63,5.59-8.74,6.63-8.9,2.19-.34,2.58,5.05,4.37,2.89.27-.32-1.02-2.78-.81-4.26.06-.44,1.63-6.43,1.89-6.66.33-.3,5.49-.45,7.34-4.03.78-1.52-2.49-3.07,4.58-1.04,1.05-3.14-5.84-4.62-4.98-6.48,1.17-2.55,5.21-1.51,6.98-.52-2.07-6.04,1.25-3.74,2.74-5.27.6-.62.29-2.27,1.21-3.18.36-.35,2.48.4,3.05-1.07.83-2.16-2.39-1.17-1.99-1.97,1.01-2.03,1.28-3.93,1.61-4.54,2.01-3.76,7.06-3.49,8.46-4.41,1.31-.87.46-3.96,1.92-5.08.32-.25,7.12-3.23,7.53-3.2.91.07,1.91,2.13,2.48,1.71.75-.55-.29-5.11,5.01-4-3.47-7.22,3.31-5.13,5.95-7.47,2.31-2.05,1.42-5.55,3.48-7.59,1.5-1.49,4.04-1.46,5.52-2.48s1.93-2.92,3.13-3.87c.95-.74,6.71-4.24,6.91-4.6.36-.68-2.18-1.84-1.92-3.35.11-.61,4.51-4.88,5.46-5.6,2.81-2.14,6.45-3.45,9.7-5.33,1.03-.6,3.65-.56,3.78-.7.17-.17-1.62-2.33-.59-4,1.19-1.92,8.12-2.62,10.21-6.33.94-1.66,1.18-5.46,1.38-5.68.08-.09,1.29.71,2.27.6,7.88-.93,3.35-2.91,6.17-5.63,1.95-1.88,5.6.71,4.55-3.96l3.99,1c-2.55-6.21,2.18-4,4.79-6.17.11-.09-.73-2.82.71-2.81s.37,5.08,3.5,3.98c-1.45-5.52,4.81-1.35,6.56-3.96.7-1.04.1-3.46.55-3.93,1.13-1.19,8.54.18,8.88-.12,1.19-1.01-1.67-8.27,3.52-8.99,2.22,9-2.98,19.24-.51,27.99Z"/>
  <path class="cls-48" d="M210.08,312.09c0,7.18-5.3,8.85-11.96,8.86-2.75.23-4.91,1.78-6.47,4.66-7.53,2.28-11.01,4.61-15.18,11.19-4.43.09-6.61,2.05-6.51,5.9-3.1,4.78-17.53,9.67-23.46,11.65.88,2.97-.17,5.67-2.75,7.43-3.55,1.37-5.84,3.61-6.88,6.72-5.28,1.65-7.23,3.34-7.5,8.61-4.52,1.51-7.7,3.95-9.55,7.33-3.21.05-5.03,1.88-5.44,5.49-3.94,2.13-6.55,4.77-7.83,7.94-3.28,1.14-6.43,2.31-9.16,4.52.71,5.11-1.51,8.84-7.03,7.33-1.63,5.53-4.81,11.93-8.25,15.89,1.01,1.17,1.34,2.34.97,3.49,4.16,3.94,8.25,8.12,12.28,12.56l-.28,2.44c2.92-1.4,4.52,3.39,2,5-9.57-10.19-18.41-21.28-26-33-1.41-1.81-2.08-3.48-2-5,.75-5.51,1.52-11.1,2.31-16.75,4.19-1.57,7.68-4,10.47-7.26.07-3.2.7-5.07,4.34-5.25,1.8-6.41,4.97-9.3,9.52-8.69.5-3.78,6.99-8.74,10.37-7.05-.5-2.35-.42-3.14,2-2,2.16-2.22,4.16-4.55,6-7,1.23-6.04,3.57-7.04,7-3,.58-2.55,1.58-4.89,3-7,4.05-3.58,8.87-6.58,14.45-8.99,5.31-3.74,10.5-7.35,15.58-10.83,1.36-2.41,3.45-2.54,5.82-1.57.29-4,3.25-7.29,7.39-5.91.33-3.5,1.98-7.45,6.03-5.91-1.28-6.8,11.92-8.68,16.07-5.68.64-1.43,1.53-2.62,2.68-3.57.98-.2,16.87,5.83,17.99,7.46Z"/>
  <path class="cls-47" d="M378.08,53.09l1.07-.74,6.93,4.74c1.05.59,2.02,1.31,3,2,.99,1.07.99,1.74,0,2,3.94,6.3,3.44,10.5-1.5,12.6-.15,3.63-1.47,6.11-3.95,7.45,3.81,2.97,1.18,10.58-2.68,12.4,1.74,4.59-.2,7.71-5.83,9.37,2.2,4-1.36,7.59-4.65,9.53,1.44,3.33-.85,4.86-3.81,5.77,1.14,4.02-.84,7.51-5.93,10.45-.3,4.37-3.39,4.57-7.1,4.07.5,3.1-1.97,4.49-7.41,4.15-3.21,4.07-5.85,4.91-7.92,2.51.52,3.66-.02,7.67-2.73,10.4.56,3.01-1.33,5.28-5.68,6.8l-4.7,6.54c-1.94,1.02-3.13,2.85-3.57,5.49-6.39.02-5.53,6.67-3.43,11.07l-.63,1.41c-2.31-.38-4.14.62-5.5,3,3.64.16,3,9.32-1,8-5.62-7.33-11.18-15-16.66-23.01-4.12-1.69-6.32-4.98-.8-5.79.37-4.74,5.31-7.93,9.46-8.89l.46-.88c-6.3-5.21,1.18-12.61,7.27-13.84-.99-1.38-1-2.25.26-3.58l.62-2.71c.98,1.08,9.43-1.2,9.24-2.3-2.93-3.74-.61-7.03,6.97-9.89-.48-4.27.89-7.81,5.44-8.52,1.17-2.85,3.9-4.01,8.18-3.47,2.93-4.18,5.88-5.47,8.83-3.85.56-2.93,2.79-4.95,6.68-6.03.13-7.4,3.39-8.49,9.8-8.05-2.06-4.48-1.12-6.6,1.85-10.76-.34-5.66,1.52-9.55,5.57-11.65-.88-1.79,0-16.58.83-16.84l2.99,1.08Z"/>
  <path class="cls-53" d="M263.08,4.09c3.24-1.01,6.91-1.01,11,0,1.31,0,2.71-.12,4,0,1.59.87.92,1.53-2,2-6.84-.32-2.43.64-3.11,3.29-.29,1.11-2.01,1.91-2.58,3.37-.81,2.09,1.44,5.91.17,9.28-.17.46-5.13,7.03-5.75,7.77-.55.66-2.04.83-2.77,1.72-.88,1.08-.76,3.16-1.07,3.42-.83.71-3.74-.44-4.76.26-.48.33-.47,2.32-1.08,3.2-.57.82-1.93.64-1.99.73-.81,1.28,2.35,2.93,1.81,5.19-.17.72-2.93,4.62-3.36,4.64-.21,0-3.29-3.42-3.47-.4-.13,2.2,3.64,5.26-2.02,6.52l-2-4.01c.19,2.54-3.03,2.91-3.64,4.48-.78,1.99,2.06,9.12-3.37,7.52,1.6-4.21-4.26-3.32-3.71-.47.23,1.2,3.18,2.77,2.7,3.45-3.19-.24-3.97,3.72-5.3,4.71-1.12.83-4.57,1.12-4.71,1.32-.16.22,1.39,2.24.96,2.88-.85,1.26-4.84-.14-.95,4.1-3.12.18-5.41,4.22-6.49.01-2.1,3.32-4.86,4.04-6.01,7.99l-1.99-4.99c-.54,2.11-4.35,3.74-4.5,4.01-.32.58,1.4,1.38,1.55,2.44.82,5.57-4.89,2.41-7.64,5.04-.83.8.59,6.1-3.43,7.5l.5-3.99c-4.45.13-2.17,1.26-3.32,2.62-4.85,5.75-9.81,2.72-12.47,4.57-3.41,2.38,1.47,2.26.79,4.8l-4.99-1c1.61,9.62-10.44,6.17-8.01,13-1.19-2.24-5.82,1.8-6.01,2.53-.41,1.59,6.45,6.32-2.99,3.48.93-3.61-3.03-7.22-7-7.5,1.62-3.37,5.51-2.94,7.56-4.45,3.65-2.68.16-5.49,8.44-2.07-2.1-5.09,1.28-3.92,2.34-6.23s1.89-7.4.67-9.75l6,.98-3-5.99c-.04-6.15,1.77-8.61,5.41-7.37l14.38-12.76,4.48-.63c.96-4.82,2.87-8.82,8.35-9.24.61-2.23,2.31-2.73,4.41-2.46.47-7.33,3.39-11.56,8.76-12.71,2.37-4.3,5.95-7.88,10.75-10.76.26-6.27,2.62-9.63,7.08-10.07-2.41-4.45-.2-6.46,4.02-7.77.66-4.54,2.67-11.24,8.35-10.25l-.39-2.12c-2.84-.32-4.04-1.29-3.61-2.88,5.11-.61,10.01.62,15,1Z"/>
  <path class="cls-15" d="M278.08,63.09c.76-1.85,2-3.7,3.74-5.53.74-6.29,5.03-8.54,10.74-10.1.77-3.99,1.6-7.32,5.96-8.55,1.5-5.35,2.95-10.42,7.04-14.23-2.93-3.23-3.17-6.26,1.57-7.34-2.24-6.68,6.09-3.58,8.39-.63,7.02,2.41,13.87,4.87,20.55,7.37,12.02,5.86,21.11,11.4,32,19,.42.31.41.64,0,1-.53,2.65-1.11,2.5-2,0-2.57.6-8.91-2.93-9-6-3.69.44-10.11-3.78-11-7h-1c-2.8.56-5.12-.02-6.96-1.75-1.63,2.1-3.13,4.22-4.5,6.35-5.08-.31-2.9,6.13-1.35,9.2-2.28,3.96-5.31,7.3-9.08,10.01,2.18,2.68.85,4.64-2.49,5.03l-1.59,4.23c-4.05,5.01-8.36,10.07-15.06,8.93l-2.25.93c2.82,3.83-1.13,5.28-4.41,6.47.84,4.49-.61,7.29-5.44,5.7-3.34,4.12-7.18,8.01-11.52,11.67,1.36,3.62-.15,5.85-4.53,6.69-3.68,6.38-6.84,7.54-9.49,3.49l-.89,1.48c2.89,5.13,2.22,7.25-2,6.36-2.29,6.78-6.56,10.4-13.26,11.15-2.03,5.55-4.36,11.86-11.19,8.05-5.47.48-6.04-5.09.67-6.33-6.52-3.88-7.14-6.95-1.85-9.21,1.41,1.04,9.99,5.45,10.08,1.6-2.47-3.34-1.77-6.39,2.31-7.62.07-2.9,1.89-4.34,4.75-4.38l.59-2.61c-4.08-3.63-1.05-8.18,2.58-10.91-4.61-3.78-2.34-6.2,6.81-7.27-5.07-4.02-2.08-9.94,3.28-5.37l1.41-.42c-2.03-2.99-1.05-5.69,2.95-8.12-.41-3.07,1.71-5.18,6.35-6.33-1.58-2.25-1.89-3.93-.93-5.03Z"/>
  <path class="cls-52" d="M389.08,61.09c1.78.81,3.12,1.47,4,2,11.46,10.25,21.15,21.42,30,34-3.31,3.79-9.78-4.32-8-8-1.2.29-2.7-.76-2-2-3.05-1.79-4.15-.99-3.31,2.38l-1.69,1.62c.67,1.51-.22,3.68-2.68,6.51,1.31,2.69.37,4.58-2.81,5.67-1.62,4.88-4.02,7.31-7.2,7.27.21,6.78-.62,9.99-7.19,11.79l-3.89,9.38-10.07,6.81c-2.55,6.57-7.31,8.21-13.65,9.52.97,5.38-2.4,7.38-10.09,6.02-2.9,5.03-6.86,7.51-11.88,7.43-.17,7.29-4.5,10.91-11.3,7.64,2.72,4.96.09,8.45-5.15,9,.02,3.72-.06,5.44-3.94,6.65-.41.13-4.98.77-5.2.58-.38-.34-.68-.78-.95-1.25-.2-2.8-1.6-6.15-2-8.99,3.11-.64,1.6,1.54,2.19,3.26.62,1.81,3.14,2.38,3.81,1.72,1.1-1.09-1.93-4.2-1.97-5.49-.01-.35,2.26-6.31,2.51-6.56,1.54-1.54,4.14-.67,4.48-.95.31-.25-.93-2.2-.53-3.06.49-1.03,2.32-1.33,3.22-2.3.99-1.06,3.67-5.47,4.79-6.62,1.47-1.52,10.33-3.88,2.5-5.51.84-1.64,2.54-.33,3.43-1.5,3.66-4.8.9-9.45,2.02-11.03.69-.98,3.03-1.45,3.54-.98.49.44-1.17,3.66,1.49,3,2.52-4.53,5.74-5.46,10.5-4l-.99-4.99c1.49.27,5.95,1.36,7.07.48.82-.63.13-2.11.86-3.03.63-.79,2.05-.97,2.75-1.77.63-.72.32-2.42,1.26-3.18.51-.41,1.99.59,2.04.5.91-1.42-1.08-5.65-.91-5.89.27-.39,4.58-1.82,4.85-2.23.51-.75-1.39-3-.87-3.75.11-.16,2.07-.75,2.95-1.57,5.81-5.43.99-5.66,1-7.06,0-.8,7.23-3.68,7.88-4.61.15-.22-1.52-3.14-.79-5.26.42-1.21,2.2-1.27,2.61-1.9.18-.28,2.03-5.92,2.01-6.25-.07-1.21-3.16-2.26-2.73-3.97.24-.93,2.88-1.48,3.49-2.53.91-1.57.15-3.78,1.44-5.56s6.05-1.84,3.07-5.73c-.73-.96-1.93-.62-1.98-.71-.13-.23,1.78-3.02,1.99-4.98Z"/>
  <path class="cls-62" d="M242.08,590.09c.45.11,1.07-.17.98-.49-.57-2.02-24.42-18.13-26.98-22.49,2.03.64,13.52.19,14.42.87,1.31.98.07,3.01.71,3.97.54.8,4.45.28,3.88,3.15,1.67.43.6-1.39,1.12-1.81,1.43-1.17,7.07,2.33,9.38,2.66,3.02.43,9.65-1.68,13.03-1.88,2.61-.15,8.05,1.56,10.81.73,1.37-.41,8.64-7.67,9.24-7.68,3.11-.04,7.24,2.01,11.4-.01l1.49,4c4.01-.9,6.97-11.58,7.57-11.99.54-.37,3.79,2.18,4.93-.52.79-1.88-2.01-1.34-2.04-2.04-.02-.49,1.26-5.45,1.55-5.45,2.06,5.72,1.73,11.93,3.2,17.82.58,2.33-.29,2.87,2.3,1.19,1.14,4.48,2.33,9.74,4,14,.34,1.23.2,2.48-.42,3.73,5.05,9.41-.48,13.38-9.44,14.24,2.05,5.36-5.06,6.9-9.22,6.31-4.74,2.27-9.18,1.53-14.63.02-5.18,1.27-9.94.84-14.3-1.29-7.8-5.35-16.4-10.01-23-17Z"/>
  <path class="cls-55" d="M42.08,372.09c1.54-3.35-4.05-8.61-4.99-11.52-.82-2.52,2.39-.98,2.89-1.53.8-.88-1.22-7.12,1.68-7.8.8-.19,2.54.9,4.48.47s3.5-5.35,8.92-1.62c-1.47-4.6,1.53-5.8,2.58-8,.64-1.33-2.05-1.94-1.08-3l4.51,2.02-2,2.97c7.02-.08,2.7-6.77,7.42-10.07,2.07-1.45,4.79-.52,5.45-1.05.58-.46,1.23-6.5,1.13-7.87,1.87-.67,2.67,2.21,4,1.57,1.24-.59,2.56-3.84,5-3.6-3.5-4.04-.78-2.32.67-4.3,2.64-3.6.11-4.51,7.33-2.69-2.6-8.92,3.39-3.88,4.39-4.04,2.5-.4,2.72-5.54,3.84-6.75,1.37-1.49,4.25.3,5.74-.66,1.86-1.19,4.22-7.03,9.03-6.56-.55-2.37-1.61-1.03-2.51-1.09-2.76-.2,4.5-5.31,5-5.9.94-1.11,1.33-3.72,1.64-3.95.41-.29,1.95.81,2.9.41,2.58-1.08,2.21-4.92,6.48.52,2.09-4.03,4.06-7.68,8.49-3.98-.07-2.04,1.17-5.67,3.03-6.57,1.72-.83,3.14.54,4.36.32s6.28-4.39,8.11-4.77c3.05-.63.7,4.1,1.56,4.98.25.25,4.73.34,6.88,1.61,2.68,1.58,2.86,4.27,4.07,5.43.53,4.03-5.94,5.39-9.05,3.36-1.92,2.43-4.29,3.17-7.21,3.35-2.61,3.71-6.55,5.86-11.81,6.46,2.33,6.7-5.68,8.45-10.91,8.36-.29,3.74-1.19,6.02-5.13,6.98-2.31,4.15-7.17,11.01-10.09,3.66-1.23,7.25-4.62,11.18-10.18,11.79-1,4.07-7.49,7.94-11.15,8.13-1.27,2.72-3.43,4.69-6.47,5.91,1.12,1.83.2,4.19-2.78,7.08.08,4.2-1.72,4.95-5.38,5.47-.21,4-1.1,5.8-5.21,4.22-1.65,7.18-2.34,9.52-10.45,8.58l-3.15,2.29c-7.87-2.43-4.64,11.18-.18,14.02l-.86,2.33,3.52,1.95c2.47,3.08,12.62,17.59,12.7,19.9.03.71-.08,1.43-.22,2.15,1.12,1.8,1.84,4.76,2,5-11.32-13.33-20.38-28.75-29-44Z"/>
  <path class="cls-4" d="M381.08,320.09c.88-4.78,10.12-9.85,15.01-9.49,3.03-1.31-3.51-2.18-.01-3.04,1.15-.28,2.74.37,3.56-.35,2.55-2.22.93-6.65,2.85-8.13,2.37-1.83,6.19-1.4,7.59-2.49,1.14-.88.89-2.9,1.96-3.94.38-.37,2.03.32,3.1-.98.71-.86.06-2.69.88-3.14,1.19-.65,7.2-.05,8.63-1.32,2.17-1.93.31-4.62,6.21-5.95,5.17-1.16,3.82-1.12,8.22-2.7,1.76-.63,5.08.17,7.22-.56.63-.21,4.09-3.86,5.77-3.92.02,1.18,1.61,4.3,1.01,4.99-1.79,2.06-2.25-4.13-3.99-1.99-1.88,2.31,4.25,7.7,4.99,10-4.65,17.1-10,31.22-18,47l16-46.99c-6.11-1.23-7.26,3.31-9.01,7.99-2.16-4.11-10.99-1.34-13.92.56-4.01,2.6-4.44,11.35-7.03,15.06-1.06,1.52-9.2,3.27-10.07,3.85-1.1.74-.88,3.33-1.94,4.12-.64.48-5.75-.07-6.8.76-.23.18-3.55,4.36-3.67,4.63-.37.85.59,1.97.23,2.77-.3.67-10.5,9.09-11.19,9.34-3.58,1.31-8.78-.99-5.59,6.91-7.68-2.54-8.45,5.89-12.49,11.02-4.37,5.56-8.33,4.08-10.1,11.67-.08.33-.27,2.72-.22,2.85.17.47,3.48.64,1.81,2.46-.91.99-4.63.51-5.99.01,3.55,11.42-.74,4.98-3.51,5.02-1.41.02-1.68,10.82-3.99,4.98-5.7,2.29-2.76,7.27-3.5,8-.27.27-3.91-.36-5.39.14-1.59.54-.35,2.16-3.62,2.85.17,3.31-6.5,3.46-8.26,1.83-1.61-1.48-1.94-14.13,2.31-12.47,2.58,3.89,3.86,4.3,3.85,1.25-.34-6.76,1.58-11.08,5.77-12.96,1.08-5.07,4.65-12.66,9.9-7.49-.99-9.03-.26-16.23,9.59-18.22,5.63,3.27,4.53-1.01,1.84-3.95-.13-1.29.19-2.76,0-4-.24-2.46,2.09-3.8,7-4,.15-1.03-.25-3.71,0-4s2.04.87,3.03.47c1.52-.61,1.75-3.13,4.96-3.47l1.46-1.8c1.43.82,2.61-.24,3.54-3.2Z"/>
  <path class="cls-37" d="M297.08,9.09c9.5.51,29.88,10.55,39,15-.94,2.04-3.09.43-4.37-.13-4.25-1.85-8.21-4.28-12.85-5.23-2.24-.46-6.52.59-6.77.36-2.14-2,2.54-1.66,1.99-2.98l-5.98-2.01c3.38,6.7-2.85,4.68-2.99,6.49.57,1.17,3.67,4.35,2.91,5.42-.2.28-2.42,1.07-3.97,3.55-1.82,2.9-3.73,10.91-4.13,11.37-.33.39-2.31.16-3.33,1.13-1.49,1.42-1.78,6.19-2.71,6.83-1.63,1.11-6.11,1.61-8.82,4.75-1.06,1.23-.24,2.95-1.67,5.19-.69,1.09-3.63,4.28-5.3,4.26l-.96-.5c.04,5.39-2.99,9.72-9.07,12.98-2.62,3.92-5.57,7.28-10.47,7.96,1.53,5.63-3.34,5.46-7.53,4.98l-3.51,5.18c1.33,4.1-2.04,4.8-5.48,4.09-.78,2.85-2.25,4.12-5.19,3.69.06,3.29-.07,5.91-4.14,5.19-2.01,8.63-8.74,9.28-8.64-.57.26-7.33,2.43-3.69,4.03-4.46.59-.29.86-3.86,1.65-5.27.69-1.22,1.95-1.27,2.61-2.53.83-1.58,1.41-7.37,1.85-7.61.75-.43,2.35.18,3.07-.18.88-.44.67-1.38,1.61-1.88.65-.35,2.31.28,3-.24.34-.26,1.08-4.44,2.72-5.8,1.4-1.16,6.83-2.24,7.35-3.15,1.18-2.07-2.48-3.83-1.44-5.85,2.83-5.54,7.51-7.37,11.55-11.53-10.26-7.17.92-5.48,2.6-7.48.47-.56-.22-2.47.17-3.72.84-2.75,4.4-2.24-.74-4.79,3.17-6.48,3.67-2.8,6.05-2.96,6.42-.45,1.94-4.64,3.4-7.53,1.68-3.31,11.23.39,5.55-7l4.9-1.12c-1.1-1.95,1.12-3.7.88-5.19-.17-1.04-4.68-8.01,1.73-6.74,1.17.23-.33,5.52,4.49-1.96,2.12-.23,4.46-.23,7,0Z"/>
  <path class="cls-60" d="M261.08,423.09c4.1,1.93,1.28,5.29-2.66,5.66,1.33,6.13-.14,7.89-6.44,8.25.29,3.33-3.8,5.66-6.61,7.07-4,2-6.11,1.67-10.21.48l-1.04,2.11c7.11-.43,9.69,5.13,1.53,6.37-3.31,4.08-6.36,5.18-9.15,3.31l-1.15,1.85c-1.53-1.01-2.47-.72-2.77,1-5.93-4.56-11.04-1.56-13.74,4.94-4.96-1.89-7.79.23-8.5,6.35-3.67-.69-5.89.19-6.66,2.64-2.81-.64-6.01,0-9.6,1.96,2.93,2.66-.46,6.19-4.32,4.79-2.61,2.12-5.67,2.7-8.92,1.94.37,5.65-3.9,8.88-12.81,9.68-.32,3.7-2.84,6.33-7.55,7.88l-1.89,2.08,15.26,14.65.22,2.99c3.9,3.82,10.15,12.51,15,14,.36,1.28,1.07,2.1,2,3v1c-13-12.28-26.96-24.26-39-38l-11.32-12.74.32-1.26c-1.06-2.68,5.04-10.22,6.55-10.81l4.13.66c.62-5.94,2.7-7.91,8.51-6.27.18-6.84,6.47-7.07,10.81-5.58,1.41-1.15,3.05-2.6,4.91-4.34,1.89,1.2,3.76,2.21,5.61,3.03-.26-4.21,6.14-10.27,10.65-8.01,2.14-1.9,5-1.85,8.58.14.25-5.44,5.27-8.58,7.34-2.41,1.24-.99,2.41-1.23,3.92-.41q1.75,1.81,0,0c-4.18-2,.83-5.05,3.83-6.12.46-4.37,3.63-4.8,9.5-1.27l2.32-1.62c-1.62-4.39,1.11-4.6,4.82-4.09,3.13-5.28,6.01-6.17,8.61-2.66.94-2.52,3.03-2.35,5.3-1.69,3.67-1.94,7.14-2.57,10.41-1.89-1.09-2.47-.13-4.5,2.66-4.58-.49-5.58,9.08-7.71,11.55-4.07Z"/>
  <path class="cls-2" d="M399.08,162.09c.68-4.25,2.79-6.6,6.34-7.06-.24-3.92,2.2-6.92,7.3-8.99,2.15-6.13,5.73-10.52,10.74-13.17.17-6.36,2.42-10.17,6.76-11.43-1-5.75-.05-7.84,2.85-6.28,2.76,5.33,5.76,10.31,9.01,14.92,5.35,11.79,9.77,24.45,13,37-.11,3.12-1.97,3.11-2,0-3.12-1.88-4.73-5.61-4.84-11.18-.69-2.24-3.02-9.45-5.26-6.94,2.75,5.66,1.02,8.56-5.3,8.71-2.05,4.52-5.89,8.09-11.53,10.72-1.1,3.16-3.42,4.75-6.96,4.77.13,3-.69,4.66-3.59,5.59.26,3.81-1.75,4.81-5.21,4.13-.37,4.18-1.76,8.26-6.57,7.66-2.51,3.07-4.42,3.59-5.73,1.55-3.99-3.64-4.13,1.78-1.19,4.51l-.81,1.49c.68,2.75-.21,3.2-2,1-3.83,4.52-8.33,1.09-6.69-4.36-5.94-1.65-8.54-6.35-2.31-9.64-2.24-2.73-3.35-5.61.84-6.85-.99-6.56.66-8.56,6.01-11.09l4.1-1.71c-.92-3.24.42-5.95,3.05-3.34Z"/>
  <path class="cls-41" d="M313.08,584.09c3.03,7.71,9.69,19.09,15.03,25.47,4.58,5.47,20.05,15.49,20.03,21.03-.07,17.84-31.34,5.64-40.04,1.98-15.51-6.51-29.3-16.08-43.01-25.49,4.57,1.17,9.98-.73,14.38-.7,2.76.02,7.86,3.03,11.89.67,1.15-.68.16-2.86,2.67-1.88-1.36,3.39,7.84-.03,7.92-.56.09-.61-1.44-2.69-.86-3.5,2.25-3.19,17.45,1.14,8.93-14.43l3.07-2.59Z"/>
  <path class="cls-31" d="M408.08,91.09c-.65-1.09-.27-7.72,0-8.01,1.67-1.74,4.79,2.72,5,4.01.34,1.2,1,1.87,2,2,2.9,3.41,2.97,7.28,8,8,.16.22-.16.78,0,1,.28.95-.06,1.28-1,1-.77,5.97-8.6,7.5-7.55.56l-.47,2.87c2.13,8.3.91,14.02-3.65,17.17,3.26,5.69,1.31,9.01-4.57,10.9-2.42,2.33-6.74,7.26-5.81,10.26l-1.76,2.13c2.49,5.56-.11,6.57-5.23,7.4-1.84,3.34-3.89,6.23-7.13,8.45,2.12,2.56,3.21,5.95-.83,6.26-1.17,6.38-6.67,9.03-12.23,11.56l-3.08,6.93c-.41.54-7.7,5.25-8.37,4.46-2.76,3.13-6.56,5.4-10.69,5.91.51,4.44-1.37,5.76-5.37,4.26-.93.23-15.72,9.07-16.33,9.8-1.16,1.39-3.07,6.76-3.55,8.83-2.39,2.35-4.18,1.43-5.39-2.75-3.36-2.04-3.38-12.25.5-13.61,4,1.14,5.74.49,5.23-1.94,5.61-2.05,10.32-4.94,10.3-11.61-1.86-6.34.7-8.47,6.96-6.68.15-3.03,2.03-4.52,5.01-3.51,1.07-2.4,3.15-3.8,6.23-4.21l7.71-11.61c3.39-1.94,5.65-4.21,6.78-6.79,8.36-1.29,10.86-4.1,7.51-8.41l.83-1.58c2.32-.16,4.04-1.8,5.18-4.94,7-3.2,10.54-7.92,10.61-14.15,2.09-1.22,2.52-2.05,2.98-4.37l4.69-10.12c4.52-2.94,6.16-7.43,4.9-13.48,2.38-2.25,3.24-4.25,2.59-5.99Z"/>
  <path class="cls-35" d="M453.08,167.09c.37.06.91,1.14,2,0,3.35,13.02,5.8,26.59,7,40-1.1,5.51-2.13,4.79-4.14-.32-.75-22.53-3.77-26.28-9.06-11.27l-4.1,1.26c-3.74,4.98-8.93,8.2-15.58,9.66,1.83,4.31-1.29,6.95-4.78,8.99-4.7,1.67-7.8,4.3-9.27,7.91-3.51.47-5.86,2.05-7.07,4.77-.38,2.12-2.67,5.42-5,4-.4,2.9-2.01,2.66-3,0-1.11,2.49-3.42,4.33-6.93,5.5-2.11,2.73-5.15,3.86-9.12,3.39-.86,3.87-1.72,7.33-6.04,3.59,1.09,7.15-4.05,7.98-10.07,6.9-.69-.12-.87-1.44-.83-2.37-2.48-1.32-.99-4.54.37-6.54,5.3-3.6,8.83-8.11,10.59-13.53,2.99.54,4.18-.4,3.55-2.82l2.49-1.11c.23-2.15,2.24-3.95,6.04-5.41,1.56-4.34,4.1-7.12,7.62-8.35.98-4.81,3.4-7.13,7.24-6.96,2.38-4.51,6.28-7.23,11.7-8.16,1.14-3.61,4.31-5.95,9.51-7.03,3.18-4.2,6.98-6.9,11.39-8.09-1.18-4.39,3.39-11.98,7.79-10.61.14-5.86,4.13-8.13,7.71-3.39Z"/>
  <path class="cls-57" d="M408.08,228.09c-.35-.53-.4-1.77-.56-2.49.67-3.67,5.23-2.92,6.36-3.71.77-.54.49-2.66,1.47-3.55,1.88-1.71,10.33-4.93,12.25-8.26.9-1.56-1.22-3.58-.11-5.05.37-.49,8.87-3.04,11.31-4.67,1.83-1.22,3.6-4.4,4.99-5.32,1.19-.79,3.6-.57,4.11-1.14.23-.26.7-3.95,2.33-6.17,6.29-8.56,7.58.2,8.58,6.13.84,5.02,1.05,11.09,1.28,16.22l1.99-2.99c.5,5.6.71,11.76,1.05,17.45.16,2.72.62,7.3-1.05,9.55-.05-3.32-.37-17.79-.92-20.32-.22-1-2.05-.94-2.51-1.64s.83-4.46-2.56-5.04c.27,1.78.36,10.59-.05,10.96-.29.27-2.29-.19-3.27.22-1.47.61-1.4,2.26-1.92,2.57-2.96,1.78-9.36,4.81-13.43,7.09-2.36,1.33-11.82,4.76-12.22,5.3-.43.56.27,4.49-2.96,5.76-2.64,1.04-2.94.72-5.15-.9,1.63,6.26.58,2.81-2.77,4.67-.55.31-4.98,3.19-5.22,3.42-.34.33.97,2.05.48,2.96-.21.4-5.89,5.99-7.5,4.95-2-.31-.72-12.52-.25-13.05,2.95-.28,4.51-1.61,5.17-4.43-1.83-2.36-1.47-5.2,1.08-8.52Z"/>
  <path class="cls-51" d="M167.08,382.09c2.32,1.71,3.65,4.71,4,9,2.56,1.15-.84,9.24-3.51,9.81-4.61-.35-7.71,2.08-9.3,7.28-5.21.88-8.03,1.66-12.39,4.78.45,2.26.04,3.96-1.14,5.87-.72,1.18-13.07,10.85-15.26,9.61-1.14,1.77-2.95,2.76-5.44,2.97-.59,5.61-2.7,8.09-7.36,11.21-1.05,5.27-3.89,8.59-7.65,2.96-3.87,3.18-5.54,11.14.97,12.31l2.08,5.19c2.36.62,8.12,7.2,3,7-6.85-6.18-12.53-13.75-18-21-.51-.68-.9-3.53-2-5-.68-1.76.56-3.72,3.71-5.89-.4-5.1,1.38-7.55,5.32-7.34,3.26-7.03,7.88-10.42,13.86-10.17.72-7.23,2.41-9.47,9.71-10.9-.14-3.31,2.21-5.22,7.04-5.72.38-7.85,4.67-8.98,11.49-8.24l4.99-7.77c2.6-2.93,12.38-7.64,15.88-5.95Z"/>
  <path class="cls-44" d="M385.08,165.09c2.29-4.41-1.78-4.72-1.98-5.02-1.02-1.47,4.05-4.59,5.36-6.11,2.52-2.92,1.94-7.19,8.63-5.88.13-2.71.59-3.61-2.03-4.5-.54-2.02,2.89-1.99,3.1-3.16.27-1.46-1.16-3.98-.99-4.23.11-.16,2.09-.65,2.94-1.54,1.67-1.77,3-4.28,4.45-5.59s4.78-1.23,5.39-3.67c.57-2.3-2.16-5.43-1.83-6.75.4-1.6,3.4-.95,3.98-2.27,2.77-6.34-4.37-19.32,4.98-20.29l-.98,6.99c1.98-1.32,4.07-2.6,5.99-4,1.5,1.52,3.17,3.19,5,5,5.55,8.7,10.68,16.49,15,26-2.85,1.94-1.49.67-2.42-1.04-.81-1.48-6.37-13.19-7.07-12.96-2.81.93.3,2.71.06,4.03-1,5.41-3.14,2.95-3.4,3.12-3.5,2.31-3.71,11.35-4.18,11.8-.18.17-2.31.03-3.52.98-4.23,3.29-5.15,8.71-7.41,11.41-.27.33-6.46,3.92-6.86,4.87-.59,1.42.99,3.05.4,3.83-.78,1.04-3.66.88-5.21,1.9-1.43.94.44,3.84-3.37,4.05-2.17-2.6-3.43-2.33-3.77.81l-2.23,1.68c.47,6.02-11.01,6.06-7.99.5Z"/>
  <path class="cls-7" d="M160.08,422.09c2.88-1.14,5.4-2.44,7.56-3.9,2.21,1.56,3.69,4.2,4.44,7.9,6.7-.02,4.34,9.19-2.04,4.47.25,3.16-.47,5.72-4.18,4.65l-3.08,2.59c-.68,5.5-3.86,6.48-8.79,5.45-1.37,3.99-4.3,5.49-8.26,6.28-.91,6-2.58,7.84-8.62,9.23,1.33,4.07-1.6,5.49-5.26,4.54-.64,2.31-2.27,3.99-4.89,5.03,1.37,2.95,2.54,7.19,2.23,10.26l-2.11.5c-.58,1.31.09,2.03,1,3,2.46-.7,4.14.36,3,3,3.41,4.38,7.9,10.46,11,14-8.32-8.86-20.31-19-27-29-.03-.05.72-.52.44-1-1.52-2.61-2.84-1.46-3.44-6-4.93-8.09-.71-8.9,6.64-10.08,3.41-6.29,8.23-10.1,14.46-11.43.99-3.78,2.84-4.88,6.54-5.55-2.06-4.39.99-7.29,9.13-8.72l5.17-4.69c2.96-2.63,4.98-2.8,6.06-.53Z"/>
  <path class="cls-17" d="M8.08,180.09c.87.33.86.67,0,1-1.82,8.52-4.7,17.04-4.01,25.99l-1.99-5.99c1.42-7.3,2.4-14.74,4-22l2,1Z"/>
  <path class="cls-39" d="M386.08,57.09c-.42-.24-6.15-1.78-8-4-3.05,1.36-10.88-5.45-10-9v-1c6.17,4.31,13.1,8.23,18,14Z"/>
  <path class="cls-30" d="M181.08,536.09c4.64,4.5,9.73,8.65,14.54,12.95.79.71,2.62,1.88,1.46,3.05-5.41-4.89-10.64-9.93-16-15v-1Z"/>
  <path class="cls-5" d="M274.08,4.09c-3.75-.02-6.33.35-11,0l-1-2c3.8.4,8.75.4,12,2Z"/>
  <path class="cls-20" d="M316.08,495.09c-.42,1.22-2.05,3.19,0,4-.85,1.96-.86,4.54-3,6,.04-1.15-1.18-2.81-.98-4.44.23-1.88,2.79-3.13.98-5.55h3.01Z"/>
  <path class="cls-41" d="M306.08,551.09l-1.01-7-1,4.99c-3.74-2.42.67-6.14.79-6.49.21-.65-1.41-3.4,1.22-4.5-.27,4.05-.16,8.91,0,13Z"/>
  <path class="cls-5" d="M289.08,7.09c-.77.18-2.71,1.92-3.54,2-.37.04-.31-1.66-1.19-1.94-1.88-.58-6.12-.96-8.28-1.06l2-2c3.05.29,7.85,2.15,11,3Z"/>
  <path class="cls-52" d="M427.08,104.09c-1.38,2.14-3.92-3.8-5-5,.36-.26.63-.73,1-1,1.51,2.18,2.57,3.75,4,6Z"/>
  <path class="cls-32" d="M244.08.09c-3.33,1.85-8.89.98-13,1-.87-.28-.86-.62,0-1,4.3,0,8.71-.21,13,0Z"/>
  <path class="cls-32" d="M226.08.09c.87.28.86.62,0,1-3.46-.02-8.36.84-11-1,3.63-.22,7.36.07,11,0Z"/>
  <path class="cls-5" d="M292.08,7.09c.28.08,2.24,2.5,5,2-.65-.03-4.55,2.07-7,0,.45-.69,1.46-1.29,2-2Z"/>
  <path class="cls-28" d="M416.08,367.09c-1.07,1.58-2.12,2.74-3,4l-.98-.49c1.33-2.14,4.12-8.44,3.98-3.51Z"/>
  <path class="cls-39" d="M393.08,63.09l-.49.97-3.51-2.97c.07-.65-.05-1.34,0-2,2.13,1.49,2.62,2.77,4,4Z"/>
  <path class="cls-28" d="M424.08,355.09c-1.07,1.74-2.33,2.94-3,4l-.98-.49c1.27-.68,3.08-5.86,3.98-3.51Z"/>
  <path class="cls-41" d="M307.08,561.09c-.34-2.05-.8-3.23-1-6,1.77,1.12.86,4.12,1,6Z"/>
  <path class="cls-41" d="M306.08,535.09c.06-1.6-.62-4.15,1-5-.23,1.58-.96,4.52-1,5Z"/>
  <path class="cls-5" d="M231.08.09v1c-1.67,0-3.33,0-5,0V.09c1.66-.03,3.33,0,5,0Z"/>
  <path class="cls-8" d="M361.08,340.09c5.32-.43,3.71,4.58,4.06,4.94.59.62,3.27-.91,2.93,1.05-2.01-.88-4.71,1.64-5.5,1.63-1.09,0-4.69-3.77-7.02-.6-1.33,1.81,1.16,4.34-3.47,1.98-.66,6.08-1.1,10.34.07,16.42.33,1.72,1.89,2.9,1.9,3.08.03.37-.97,2.01-2.42.44-1.29-1.4-4.25-7.4-6.05-6.94-1.73,3.11-4.95,6.3-3.52,9.99-8.46-3.02-3.29,13.12-8.63,14.88-4.06,1.34-1.09-4.08-5.37-3.86,3.75,6.7-5.11,11.75,8,8.99.73.84,1.27,2.28,2,3,.28.95-.06,1.28-1,1-3.6,2.8-1.99,4.52-3.55,6.95-.85,1.32-3.02,1.61-4.45,4.05-.59,1.02-1.3,1.63-1,2.99l6.99.99c-2.21,1.73-8.81,2.93-10.13,4.45-1.05,1.22.49,3.27.14,3.55-.3.24-2.13-.37-2.77.18-.47.41-2.39,9.12-3.32,9.78-1.01.73-4.3-1.39-4.9-.95-.41.3-.37,5.1-2.51,4-1.36-.7-1.94-4.47-4-3.99-2.6,1.5-.47,2.82-.51,2.99,1.66,2.47-1.87,10.47-6.03,9.54-1.42,3.85-4.38,3.2-7.63,2.29-3.39,3.41-7.96,7.96-10.87,1.59-2.58,2.06-5.41,3.85-8.61,4.78,2.66,6.22-14.89,9.7-17.47,7.95-.67-.45-.81-1.41-.86-2.2-.06,3.93-3.38,5.58-7.09,4.44-1.89,2.58-9.1,3.8-10.39.52-3.07,4.12-9.3,3.99-13.52,1.89-2.7,2.59-6.13,3.72-10.3,3.37-1.72,5.51-3.06,9.23-10.07,7.39-1.61-2.95-3.47,3.59-3.53,5.97-1.45,3.17-12.92,3.61-12.33-1.18-2.54.83-5.17.9-4.31-2.33.14-.22-.4-1.16.24-1.78.3-.29,1.55-.14,2.33-.61.44-.27.49-1.49,1.15-1.62,1.79-.34,3.57,1.34,5.63-.05,1.24-.84,2.58-3.88,3.15-3.9.21,0,2.39,2.92,3.5,1.97,2.06-1.76-2.19-2.07-1.99-2.49,3.67-3.35,4.89-7.54,9.98-3.51-.31-6.75,11.59-11.69,14.51-5,1.66-1.27,2.65-2.84,2.52-5,1.87-.89,3.82,3,4.49,2.98.57-.01,5.09-7.54,9.5-4.99-.65-5.53-8.07.79-7.98-2.49,0-.34,2.66-5.85,2.92-6.07,1.71-1.39,5.59,3.33,10.68-.41,1.59-1.17.22-2.93.38-3.02.78-.44,4.09,2.4,4.84-.62.15-.6-.87-1.84-.66-2.23.92-1.72,6.99-1.49,7.74-2.25.3-.3-1.5-6.27.07-7.45,1.06-.79,4.71,1.84,4-3.46,1.61-1.65,4.2-2.68,7.78-3.08l4.15-8.21c2.87-.63,5.22-1.87,7.07-3.71,4.83,2.81,5.12-1.03,5.46-1,1.99.18,6.52,4.74,7.54-.49-6.68-6.35-.5-5.5,2.99-.52,1.13-2.99.75-4.38-.99-6.99,1.69-.06,3.38-.23,4.99.5,3.61,1.63-.61,4.81,2.5,4.49,2.98-4.05,5.39-4.72.51-7.98l6,.98c-1.62-3.86.26-4.15,4.01-4l-3-2.49c1.43-1.26,2.25-4.43,3.52-5.48,1.76-1.45,5.92-1.47,6.35-2.18.52-.87-.32-2.93.28-3.68.27-.33,6.26-2.25,7.41-4.18.79-1.32-.68-3.03-.54-4.45.03-.36,1.77-6.13,2.01-6.78.49-1.36,2.59-1.17,2.87-2.33.23-.93-1.25-2.9-.9-3.43.28-.42,9.18-2.74,9.68-2.79,1.68-.15,5.07,2.76,6.33,1.77.14-.11-1.04-2.82-1.75-3.03-1.5-.45-5.14.98-3.03-2.77,1.04-1.86,6.51-1.96,6.79-2.2.43-.38-1.43-3.56-1.01-3.98,2.06-2.07,8.79-.87,9.78-1.23.23-.08,2.34-3.71,3.23-3.78Z"/>
  <path class="cls-25" d="M307.08,431.09c3.2-.44,1.86,1.19,1.54,3.09-.84,4.89-3.33,7.58-4.24,10.57-.14.45.17,9.06-.29,9.33-4.9.29-5.44-3.26-7.99-5.99.48,3.34-1.12,5.05-3.51,6.99-.04-2.12,1.14-5.98-2.51-4.51-2.32.93-3.17,5.12-4.52,6.48-1.61,1.61-9.35,5.04-11.46,3.57l-.5-4.53-2.54,1.54,3.03,7.45c-3.36,1.39-6.4-7.52-7.99-5.99.36,1.25-1.38,4.46-1.01,4.97.19.27,4.3.7,4,1.52-.82,2.24-3.79.09-5.32.58s-1.68,2.8-2.7,3.47-6.23-.5-7.86,1.63c-.84,1.1,2.27,8.49-.63,9.81l-.48-2.98c-3.31,1.52-4.29-2.02-4.57-2.03-.8-.01-1.95.89-3.05.94-1.84.08-2.78-1.54-3.89.08-.2.29.57,1.58.3,1.82-3.63,3.15-5.64.26-7.36.19-5.11-.22-9.69-.88-10.44,4.99-3.71-3.19-4.91-1.27-1.99,1.99-9.11-3.93-1.61.41-6.43,3.07-2.17,1.19-4.03.52-5.32,1.21-.52.28-2.21,3.66-4.77,3.72l-.46.51,2.96,3c-5.57,4.25-13.57,5.78-16.49,12.5-.96-3.96-4.47-2.35-7.4-.41-4.59,3.03-1.81,5.21-2.08,5.41-.78.57-5.55-.81-6.01,4-3.62.41-4.7,1.61-6.53,2-.27.06-2.19-4.41-4.47-2-5.67-5.55-13.52-11.94-18.38-17.96-.56-.7-1.05-.51-.61-2.04,3.72,2.1,2.29.07,4.23-1.32,1.66-1.18,5.02-2.55,5.75-3.2,1.57-1.39.42-3.71,1.61-4.6,1.97-1.47,11.04-2.52,11.97-3.82.21-.29-.41-5.83-.57-7.05,6.35,1.69,8.01,1.76,12.99-3.01l.51,3c1.4-.99,1.69-2.67,2.5-4,2.7,2.82,8.23-2.87,8.99-2,2.16,2.46-3.69,3.61-2.99,5.99,1.5-.68,7.37-.03,8-.45,3.36-2.26-1.66-3.02-3.02-5.03-2.1-3.1,2.61-1.86,3.84-1.16.47.27-.44,2.07,1.17,1.64,3.78-13.3,3.52-4.18,5.11-3.08.73.51,4.52-.25,5.3-.81,1.16-.83.44-4.52,2.07-6.14,1.88-1.88,6.34-.27,8.87-1.88,1.51-.96,1.41-3.87,1.68-4.09,2.07-1.63,2.12,2.48,3.6,2.91.33.1,6.41.15,6.9.11,1.91-.17,5.44-7.69,6.98-.03,1.59-3.22,7.59.6,6.01-3.99l-2.49,1.99c-.43-1.73,1-4.45,2.5-4.99,2.26-.81,2.16,5.3,5.5,3.54,2.56-1.35,1.77-5.34,1.99-5.56,1.79-1.83,4.09,1.32,3,4.01,5.34-.98,10.19-1.49,14.99-4.02.88-2.88-2.4-1.75-2.99-3.97,6.4-.45,9.79-3.15,14.51-7l2.01,4.99c1.8.05,6.75-4.93,7.19-5.01,1.84-.33,4.58,1.01,5.34.53s1-2.4,1.92-2.98c.7-.45,2.21.79,3.51-.48.46-.45,3.3-6.19,3.52-7.06Z"/>
  <path class="cls-25" d="M218.24,492.92c-2.91-5.07,2.96-4.24,4.82-.33-.74,2.11-4.37,1.11-4.82.33Z"/>
  <path class="cls-20" d="M321.08,486.09c-3.52-5,.71-4.88,3-7-.54,2.48-1.74,4.84-3,7Z"/>
  <path class="cls-28" d="M424.08,351.09h-1.99s0-3.99,0-3.99c1.99.53,2.24,2.13,1.98,3.99Z"/>
  <path class="cls-26" d="M295.08,486.09c-.39.4-4.63-.84-3.99-1.98,2.31-1.96,5.2.74,3.99,1.98Z"/>
  <path class="cls-26" d="M315.08,484.09c-.37.34-3.74.63-2.99-1.48,1.11-3.09,4.03.51,2.99,1.48Z"/>
  <path class="cls-20" d="M275.58,522.11c1.5,0,1.5,2.96,0,2.96s-1.5-2.96,0-2.96Z"/>
  <path class="cls-40" d="M147.08,139.09l3.99,4.49c-1.71,4.7-6.06,3.46-8.07,5.93-1.49,1.83-1.32,6.69-2.16,7.41-.63.54-2.52-.05-2.77.16-1.9,1.62,3.39,2.69,3,3.98-1.18.74-5.43-.08-5.77.18-2.54,1.94-.52,3.6-7.22,1.84l1.98,2.49c-4.19,1.38-3.26,4.8-4.46,6.54-.96,1.38-4.5.24-3.51,2.45,1.16,2.6,6.19-.57,7.99,2.01-1.34,2.05-3.1.15-4.93.97-2.71,1.22-3.17,4.35-4.4,6.21-.33.5-6.26,3.96-.66,4.33-.34.27-.59.77-1,1-.94,1.27-2.7,1.51-5.29.72-.72,3.51-2.62,5.6-5.71,6.28-2.29,2.55-4.16.64-4.67,5.66-.26,2.57,2.69,3.82-2.33,3.35l-.5-3c-.8,3.25-5.18,3.86-6.09,4.99-.4.51.79,4-.91,3.98-.62,0-2.82-2.45-4.02-2.61-.33-.04-4.97,3.16-5.49,3.63-.26,1.84-1.45,3.09-3,4-.9.93-2.51,3.07-2.99,3.39-.98.65-4.47.1-4.94.69-.65.81,1.09,3.7-1.69,5.87-2.55,1.98-4.23-1.34-5.4-.51-1.97,1.39-3.27,8.08-2.98,10.57-2.5.91-3.37-3.86-4.48-3.96-2.58-.23-2.77,4.68-4.47,5.47-.84.39-2.62-.76-2.98-.5-.49.35-.61,4.24-1.26,4.81-.61.53-3.99.46-5.45,1.01s-1.14,1.64-2.03,2.07c-.33.16-1.72-.79-2.38-.41-1.35.77-1.38,3.76-2.17,4.31-1.28.9-6.3.77-8.28,4.23-1.45,2.53,2.61,3.46-4.09,7.39-.46.27-.42,1.67-.96,1.64-.65-.03-6.59-2.91-6.96-2.89-1.02.06-2.38,4.13-4.01,4.83-1.89.82-1.37-3.74-3.47-1.99-.32.27-.37,3.05-2.01,2.99-3.36-4.39.29-8.78-4.01-12-.41-6.07-.77-12.16-.96-18.54-.14-4.76-2.45-9.4-.03-14.45,2.07.11.56,3.78.96,5.3.28,1.07,2.4.93,2.89,2.35.39,1.13-.92,3.35.03,4.68.28.4,8.76,4.01,9.11,3.66-.78-1.5-.83-7.15.02-8,.14-.14,3.66,1.11,3.8,1.26,1.22,1.3-1.66,3.09,2.49,2.53s1.56-2.51,2.71-5.78c7.04,3.27,9.48.21,14.88-3.62.89-.63,1.29-2.23,2.1-2.78,1-.68,3.69.12,4.79-.81.94-.8.31-2.82,1.98-3.8,3.03-1.78,11.39-5.38,14.23-2-1.14-8.28,5.87-5.96,7.8-8.28.58-.7,0-2.45.23-2.69.45-.48,3.5,1.13,5.25.05,1.28-.79,2.68-4.34,4.09-5.72,3.95-3.89,4.75.5,9.64-.37l-2-3.98c2.92.15,3.61-2.28,4.48,1l3.03-2-3.52-1.01.02-4c1.51,2.13,6.69,1.19,7.78-.22.59-.76-.02-2.71.68-3.78.61-.93,3.22-1.25,4.59-2.44,2.34-2.03,2.44-5.3,5.94-4.57-3.53-3.27.02-4.2-.49-8.06,1.79-1.47,8.72-1.38,9.59-2.54,2.27-3.05-2.13-7.55-.09-9.38,2.19-1.95,1.55,2.48,2.97,1.99,1.51-5.52,2.87-1.74,3.51,2,2.25-5.41,7.15-3.81,10.5-7.5-2.75-.65-6.85,2.53-6.99-2.49,4.44,2.2,2.17.24,3.55-1.89.46-.7,3.34-4.83,3.6-4.98,1.34-.78,4.81,1.57,5.79.85.37-.27.49-3.17,1.18-3.84.1-.1,1.51.45,2.87-.14Z"/>
  <path class="cls-63" d="M248.08,3.09c.32.05,1.17.86,2.43,1.03,1.55.22,6.11-.37,6.56-.03,1.71,1.33-3.89,3.11-4.99,3.99l-2.08.96c-8.15-1.48-22.89,1.2-23.73,11.25-2.74,1.45-3.84,3.44-3.29,5.97-1.33,3.42-11.65,14.14-16.11,14.57l-1.25,3.88c5.34,4.36.08,7.19-4.15,9.07-.12.05-.17-.29-.11-.28,8.79,1.19,4.15,12.95-4.47,8.82l-1.28.74c.27,5.1.57,12.53-7.12,9.2-4.24,3.13-8.54,7.21-9.29,12.69-1.93.5-3.74,1.02-5.41,1.57,3.08,4.23.02,4.91-3.71,5.56-.52.8-.32,2.74-1.51,4.03-.68.74-2.01.24-2.49.65-2.43,2.1-7.24,8.42-7.01,1.31-3.14,1.7-4.83,5.22-1.99,8-7.51-3.46-7.43,7.45-8.01,8.01-1.93,1.87-3.26-2.05-3.5-2.04-.62.02-6.17,2.94-6.6,3.46-1.93,2.32.83,5.86.1,6.57-.2.2-1.64-.31-2.14.04-2.83,2.03-3.23,1.89-5.58,3.24-2.76,1.59-3,7.41-3.28,7.73-.23.26-5.37-1.51-6.97-.52-1.08.67-3.63,5.78-5.49,7.5-1.47,1.36-4.19,1.73-5.03,3.05-.69,1.09-.07,2.6-1.18,4.04-1.92,2.49-5.47,3.05-8.32,1.93-9.53,2.21-1.44-6,3.5-7.77,1.11-4.2,2.22-7.67,6.25-9.99.6-2.97,1.45-4.05,4.25-2.24-.93-1.57.63-1.48,2-1-.34-2.11-.28-2.44,1.7-2.66,1.44-5.09,6.72-10.21,12.47-9.75,1.06-2.09,2.95-3.59,5.67-4.49-1.08-2.69-1.25-5.71,2.16-5.11,1.13-2.79,2.75-1.96,3,1,.65-2.33,1.99-4.47,4.38-2.96.13-4.37,2.17-8.64,5.88-11.08-.28-1.73-.7-3.39-1.26-4.97-3.23-1.52,1.45-5.77,3.79-2.59,2.3-2.19,4.14-4.73,5.53-7.63l2.39-.33c-.76-2.89,1.38-4.19,6.44-3.89-1.7-3.21-1.41-5.07.85-5.56.54-1.35,4.68-4.24,5.67-5.34,2.13-2.35,1.35-6.74,7.32-2.67l-2.98-7c5.57,2.24,4.83-5.23,10.99-2v-4.01s2,1.01,2,1.01c-1.33-6.43,3.1-3.1,4.02-4.01.11-.11.12-2.74-.02-3s-6.21,1.48-4.98-1.48,5.57-4.01,7.98-1.51c.88-1.73-2.2-5.59-1.96-5.96.07-.11,1.65.28,2.3-1.24.77-1.79.69-3.89.68-5.8l3.97.5-2.98-4.49c6,1.12,3.63-2.2,5.04-5.21.49-1.04,1.69-1.1,2.31-1.9.75-.97.73-2.68,1.65-3.4,1.48-1.15,4.43-.53,6.1-1.08,1.16-.38,2.16-1.64,2.98-1.84,6.03-1.49,11.81-.72,17.97-1.92l.94-3.66c3.11.19,6.33.56,9,1Z"/>
  <path class="cls-36" d="M115.08,129.09c-4.1,1.93-3.02,2.57-4.99,5.51-.6.88-2.99,2.66-2.99,2.99.01,1.11,4.08.83,2.97,3.5-4.08-2.37-2.42.36-4.45,2.01-2.42,1.96-5.16,2.66-7.53,4.5-.41.92,2.42.06,3,1.5.25.64-.18,2.12,0,3.01l1.98.47c-2.06,3.3-4.94,5.11-3.99,9.52-5.68-3.32-11.05,8.26-15.98,3-1.52,1.95,5.39,5.64-5.01,3.01-.26.21,3.05,2.31.5,6-1.34,1.95-3.38-2.04-5.5-1.01.49,8.32.15,4.77-4.27,6.2-4.96,1.61-4.16,10.31-6.25,10.79-4.47-3.93-6.58-2.42-11.41.58-2.29,1.43-3.86,4.21-4.13,4.37-1.16.67-2.66-1.55-3.45-1.61-1.33-.1-2.78,2.16-4.14,2.4-1.89.33-4.72-1.66-5.92-1.48-.95.14-1.19,2.24-2.14,2.85-1.5.96-3.41-.34-4.63.05-1.38.45-1.34,2.29-2.36,2.89-7.43,4.42-6.27-.46-8.98-2.11-3.83-2.33-7.56.34-8.12-7.78-.11-1.51.81-2.05.81-2.16.88-1.3.88-2.3,0-3,.06-1.33-.04-2.67,0-4,.07-.32-.07-.68,0-1,.43-1.95.52-4.07,1-6,3.2-1.26,3.27,1.06,2.72,3.89,2.7,2.13,4.94,4.86,6.71,8.2,4.02-3.12,7.58-3.51,10.67-1.17-2.09-5.56.93-6.42,6.11-5.81,1.99-2.02,5.05-2.87,9.16-2.57,5.09-3.28,10.86-5.3,17.28-6.05,1.16-5.19,2.48-7.61,8.45-6.74,1.2-3.46,3.98-5.93,8.34-7.41,0-3.95,1.54-6.01,5.29-3.95-3.47-5.22.27-8.48,5.68-6.47,2.81-4.81,7.01-8.52,12.61-11.12,1.27-3.39,3.3-5.49,6.11-6.31,1.37-6.87,6.54-3.7,6.87.51Z"/>
  <path class="cls-61" d="M252.08,8.09c-.56.45-4.83,4.46-4.99,4.77-.92,1.76-.48,5.1-1.93,6.82-.98,1.16-6.48,1.67-4.08,4.4,2.06,2.35,2.84-1.92,3.01-1.98,2.65-.98,1.12,3.97-1.07,5.48-.6.41-5.64.44-6.71,1.75-.7.86-1.16,6.86-1.85,7.78-1.39,1.86-6.77,5.03-8.82,7.05-1.12,1.1-1.16,3.3-2.61,4.39-1.29.98-3.87.89-4.98,2.02-1.7,1.74-2.16,8.63-3.47,10.58-.95,1.42-2.82-.02-3.53.41-1.03.62.39,4.66-2.49,5.52-3.15.56.12-2.44-.49-2.98-1.52-1.35-2.6,3.12-4.82,2.12.29,10.16-4.71,6.29-7.99,8.08-1.96,1.07-8.28,11.58-13.66,12.39-.87.13-3.1-1.01-3.53-.6-.3.28,2.66,4.05-2,5.99-1.44.6-4.41.54-6,0,1.29-1.98,2.88-1.88,2.99-2.03.8-1.1-1.97-3.28-1.96-3.48.01-.23,2.92-3.22,3.13-3.3.69-.25,2.6,1.19,3.83.81-2.35-3.69,8.25-13.75,10.27-13.77,1.02,0,4.11,1.38,4.73.77.25-.25.63-5.86.99-7l-7.99,1.99c.02-4.75,3.59-1.91,5.38-2.24,1.44-.26,2.85-3.24,5.23-3.48,1.72-.17,4.76,1.53,6.26.6.46-.28,1.47-4.42,1.09-4.84-.14-.16-2.56.02-4.01-1.5-1.87-1.96,1.62-2.65,1.04-3.51-.09-.14-2.91-.57-2.98-1.52-.34-4.68,3.27,1.44,3.52,1.5,1.08.27,3.6-1.58,4.45-2.51.63-2.7-2.49-.98-3-1.49-.29-.29,1.94-7.49,2.23-7.78.58-.58,2.53-.37,3.46-.99,5.06-3.37,5.44-4.65,8.63-8.86.73-.97,2.55-1.12,3.22-2.34,1.47-2.66-1-6.51-.53-7.02.33-.36,2.03,1.19,3.53.11,2.33-1.67,1.82-4.84,2.82-6.79,1.66-3.24,14.57-6.86,18.16-7.06,2.08-.12,5.81.12,7.47,1.74Z"/>
  <path class="cls-17" d="M8.08,185.09c4.66-.8,3.78,2.54,0,3,0-1-.05-2.01,0-3Z"/>
  <path class="cls-42" d="M304.08,346.09c7.09,2.02.05,3.8.02,4.5,3.4,1.24,4.81,8.61,3.66,11.07-.71,1.52-3.51.96-2.67,2.92,1.08,2.49,9.78.6,6.99,3.5-1.78,1.84-9.32,1.23-9.87,2.15-.59.98.39,3.59-.55,4.95-.8,1.15-3.39.75-3.57.93-.37.37,2.69,9.59,3.02,9.99s1.54-.98,1.99-1c5.52-.3.74,4.14-1.51,6-2.38-5.58-7.34,1.87-6.5,6-4.92-4.39-9.38-5.92-3.99,1.99-5.9.07-4.63,1.12-6.54,4.02-.18.28-3.27.64-4.48,2.78-1,1.77.04,2.11.02,2.22-1.29,8.34-2.38,3.13-5.83,5.17-.89.53-1.66,6.38-4.18,8.31s-5.7,1.08-9,1.51c-1.5.2-8.51.85-8.86,1.14-.53.44-.36,3.3-1.03,4.28-.77,1.12-2.85.36-3.12.59-.22.19,2.45,4.33-.56,4.92-.91.18-2.64-1.15-3.83-1-.44.06-4.24,2.11-7.1,2.6-.98.17-3.11-.9-3.49-.52-.19.19.6,4.01-2.51,3.97-1.49-.02-.26-4.55-2.98-3.97-2.12.44-2.71,7.62-8.51,4-.98,2.81,1.81,1.75,1.98,2,1.37,2.07-4.75,2.57-5.5,5.99-.79-.84-6.67-4.93-7.48-4.01-.13.15.12,1.99-.54,2.95-1.06,1.55-3.38,1.47-4.49,2.6-.9.92-.85,2.33-.99,2.47,1.38-.29,2.66.53,3,1.99h-2.99s0-1.99,0-1.99c-1.34,1.27-3.32,2.32-4.5,3.98-2.1-.54-.57-6.13-2.98-4.97s-1.12,5.49-1.52,6c-.78,1-7.48-2.21-8.41-2.1s-1.22,3.04-2.09,3.07c-.24,0-1.63-2.45-3.8-1.89-1.67.43-3.1,4.08-5.69,3.93l1.99,4.98c-.3.27-7.55-.85-7.92-1.08-.13-.08,1.19-2.22-.57-2.9-2.54,5.36-3.66,2.56-5.5,2.98-5.46-3.56,2.18-10.01,7.33-10.56-1.91-4.34.86-5.95,4.96-4.77-1.57-4.79,14.02-12.88,15.52-12.43.88.26,1.46,1.11,1.91,1.88,1.01-5.02,4.61-7.43,9.53-6.13,1.05-1.92,2.87-2.27,4.91-1.94,1.62-6.62,2.02-8.03,9.03-7.61,1.66-2.96,4.35-5.06,8.06-6.3,1.39-4.28,1.94-5.54,6.66-3.94-.17-4.37,1.75-6.13,6.04-5.74,2.8-2.1,5.94-3.69,9.42-4.77.54-1.52,1.87-4.89,2.79-6.13,2.14-2.9,4.31-3.98,7.72-4.8-2.03-4.44,6.37-7.57,10.14-7.75.18-1.71,2.02-3.26,5.5-4.67-.47-5.46.78-8.64,6.32-4.59.46-4.62,4.17-6.46,8.29-7.21.18-2.42,1.12-4.64,2.8-6.66-3.84-4.35,1.02-7.51,5.39-4.67-.77-3.02,1.18-4.79,5.86-5.31,1.56-2.1,3.17-3.06,4.84-2.88Z"/>
  <path class="cls-24" d="M408.08,228.09c.29.44,3.62,2.15,3,2.99-6.75.75-2.27,2.7-3.17,7.26s-4.26,3.3-4.74,3.83c-.64.71.66,3.57.39,5.04-.51,2.75-1.04,3.32-1.47,6.88-.18,1.53-7.25,6.7-6.01,11-6.72-3.8-5.35-.93-9.39,2.64-1.24,1.09-8.03,5.19-8.37,5.59-.47.56-2.24,7.34-2.24,8.78l-2.99-1c3.37,5.31-9.24,7.1-9.88,8.12-.52.84.15,2.87-.16,4.14-.19.82-1.63.81-1.9,1.49-1.24,3.16-.2,7.31-4.71,7.92-1.23.17-2.27-.77-4.3-.17s-5.33,5.27-8.18,6.87c-1.63.92-8.67,2.21-8.65,4.13,0,1.03,3.33,1.82-.74,4.49l-.5-3c-5.81-1.24-.12,5.17-6,4.01,5.59,5.67-6.48,7.59-6.85,8.17-.44.69.15,2.34-.2,3.03-.49.95-1.55.7-1.91,1.53-.72,1.65.39,4.69-3.09,6.72-.98.58-2.21-.26-2.98.13-.47.24-2.85,3.58-4.97,4.73-2.71,1.47-2.18-1.35-4,2.69-3.18,7.05-8.26,4.95-9,6.01-.54.78,2.05,4.52-.52,5-1.1.21-5.04-4.29-6.47-.5-.33.88,1.37.23,1.75.67,1.39,1.61-1.47,4.46-2.2,5.92-.59,1.18-.32,3.38-.7,3.76-1.49,1.52-9.56.25-7.87,9.14-2.16.22-5.45-4.34-6.99-2.99-.43.37,1.79,2.92.08,5.53s-4.48,2.07-7.09,3.46c-3.79,1.27-7.71.48-11.76-2.36l-1.48,1.06c-.22,6.61-2.74,12.72-10.44,9.34-3.37,2.32-7.42.6-5.32-3.04-.98-5.66,2.3-8.71,9.84-9.15-.62-4.35,2.3-6.93,8.75-7.73.94-3.3,2.79-5.36,5.55-6.17.65-3.27,1.72-6.51,3.18-9.71,3.76-2.24,6.91-4.22,10.38-6.76-1.1-3.47.95-4.98,4.1-5.62,3.53-8.12,8.61-11.95,15.23-11.5l.97-1.37c-.65-.53-1.43-1.23-1.33-2,.55-4.26,7.04-7.68,10.46-9.46,1.24-7.01,5.03-9.9,11.37-8.68,1.97-3.65,4.73-6.99,8.27-10,.06-4.46,3.17-6.24,9.33-5.34l2.6-2.62c1.28-5.57,3.25-6.49,8.81-5.93,1.13-3.79,4.16-6.3,9.08-7.53l12.47-14.01c1.63-1.54,3.99-2.61,6.07-1.54,4.93-7.76,11.05-14.02,18.38-18.78l.16-2.7c3.78-2.32,7.22-4.79,10.33-7.41,2.23,1.34,3.23,1.01,3-1,.38-.17,2.89-4.14,5-4Z"/>
  <path class="cls-42" d="M313.08,346.1l-2.5,8.97c-1.65.07-2.46-11.26,2.5-8.97Z"/>
  <path class="cls-42" d="M316.08,353.1c1.25.99.96,4.88-2.48,3.98-3.23-.84,1.18-5.01,2.48-3.98Z"/>
  <path class="cls-17" d="M170.08,68.09c-.51,1.29.73,5.4,3,5.5-2.45,2.27-6,3.23-8.99,1.51l2.98,9c-3.68-.9-4.27-1.06-4.48-4.99-4.66,1.32.52,4.45-4.51,5.02l2,2.97-4.98-.49c.78.66,2.79,2.62,1.98,3.49-1.5,1.61-3.62-3.62-4.51-3.99-2.12-.88-1.35,1.85-1.49,2,2.25,4.95,1.8,7.27-1.36,6.98-.94,3.5-2.21,4.88-3.81,4.13-.07,3.11-1.34,5.74-3.84,7.89-.16.02-2.19-.81-3-1-3.94,2.81-7.12,6.16-9.55,10.06-5.88.27-9.9,5.23-10.45,10.56l-2,1.38c-.45.86-1.4.72-2,1l-3.5-2.98c-1.99.85-1.16,4.56-1.55,4.93-.47.44-2.79-.4-3.78.2-.29.18-1.32,3.9-3.1,5.42-4.28,3.65-7.45,2.42-11.41,9.45-.43.76.43,1.92.34,1.97-1.58.94-5.54-1.44-7-.51-2.81,1.78,3.28,5.61,2,8.51l-6.99-2.99c2.86,6.58-4.68,6.17-6.72,8.29-.82.85-.3,3-2.32,4.22-1.11.67-4.4-.43-5.74.7s-.83,5.12-1.36,5.66-12.02,2.78-14.21,3.46c-4.36,4.7-7.77,3.14-12.02,3.62-.7.08-.54,1.84-1.31,2.03-1.85.46-4.34-.24-6.32.02l2,5.98c-2.9,1.33-5.96-1.98-7.52-2.01-2.16-.04-3.24,4.1-6.82,2.92-1.38-.46-3.75-5.33-5.12-6.95-1.08-1.28-3.35-1.88-3.46-2.04-.2-.29,2.23-4.05-.09-4.9,1.69-6.85,4.72-13.92,6.01-20.99l1.46,9.02c1.71.87,3.53,2.04,5.32,2.68s8.96,2.08,10.23,2.86c.94.57,1.69,3.33,2.47,3.42,2.99.32-1.04-4.99-.42-5.87,3.16-4.45,10.07.98,11.28.77.83-.14,2.47-2.36,3.93-3.09,1.59-.81,3.64-.94,5.05-1.77.91-.54.59-1.96.68-2.01.54-.35,4.15,4.54,7.32,2.08,1.4-1.09,1.03-4.45,1.79-4.97,1.09-.75,5.15.81,6.45-1.05,1.09-1.58-.5-7.67,1.96-8.08,1.35-.23,2.27,2.13,3.47,1.56,1.83-.86,2.05-6.47,5-7.9,4.27-2.07,9.81,1.66,10.01-6.65,5.42,7.62,3.23-1.35,7.02-3.47,5.47-3.07,3.76,2.11,7.55-6.45.44-1,2.06-1.72,2.13-2.58.03-.44-2.62-2.82-.22-5.52,1.29-1.45,3.39-.56,4.31-1.16s.97-3.65,1.22-3.83c.46-.32,2.38,1.23,3.95.56,2.76-1.18,7.08-7.8,9.02-8.97.73-.44,2.33.36,3.67-.32,7.01-3.56,5.11-6.59,8.38-9.71,3.89-3.72,7.61-1.28,7.96-1.54.67-.5-.01-3.75.15-3.86.56-.38,2.03-.15,2.9-.66,1.01-.6.03-1.94.27-2.26,1.04-1.36,4.88-2.47,6.69-2.23-4.58-6.52,2.38-7.8,8-8-5.33-8.9-1.6-6.6,6-5.99Z"/>
  <path class="cls-5" d="M197.08,7.09c-1.6,1.75,3.16,6.21-.51,6.99-2.06.44-3.25-4.26-5.49-2.49-.45,5.14,5.61,1.7,6,6.49-2.73-1.79-9.88,1.25-10.99,3.52-1.95,3.99,9.78-3.35,7.98.97-1.15,2.76-7.51,4.16-8.54,5.52-.68.89.87,2.75-.85,4.04-2.71,2.04-6.13-.44-1.6,5.94-6.41-1.91-5.26-1.34-8,4l3,.5c-.85,2.73-5.75,2.28-6,2.51-1.15,1.02,4.13,3.81,2.01,5.99-1.09,1.13-6.76-2.99-5.01,5l-6.45-1.98c-2.35.98.09,4.28-2.09,4.94-4.24,1.29-3.02-2.8-4.94-1.94-2.42,1.08-.25,3.77-.94,5-1.3,2.28-4.76.8-5.57,1.43-1.28.99-2.71,7.73-5.03,9.12-1.43.86-3.17-.53-4.02-.06-.34.19-5.41,4.48-5.69,4.75-1.25,1.24-.85,7.18-6.25,6.76l2.99,3.98c-4.06-1.51-8.1-3.37-10.99,1l5,1c-5.17-1.1-3.58,1.65-5.53,3.96-9.33,11.06-17.5,12.18-27.56,20.43-1.01.83-3.66,1.21-3.91,1.62.45-2.18-2.77-4.63-2.93-5.6-.66-4.07,3.59-.69,4.4-.73,1.69-.1,5.34-4.12,9.02-1.65l-.5-2.01c6.52,1.74,2.63.34,4.51-2.99.5-.89,3.33-2.17,4.49-3.01.64.07.94-.3,1-1,.55-5.74,5.44-6.91,6.51-9.02.62-1.22.28-3.66.55-3.91.36-.34,7.03.07,8.93-3.57-9.58-5.77.38-6.42,2.53-8.47,1.39-1.33,1.3-4.85,1.49-5.04.36-.35,6.11,2.7,8.49-2.97.8.03,1.76,5.57,4.02,1.99,1.66-2.63-6.37-9.23,4.97-8,3.35-.32-5.52-5.95-6.48-6.51,1.85-3.42,3.93,2.11,4.96,1.49.09-.05-.22-1.24.74-1.99,1.38-1.08,4-1.54,4.63-3.28.9-2.49-3.67-5.87,2.65-6.72l-1.01,3.48c3.83-.89,2.28-4.92-.96-5.98,1.34-1.62,3.45-1.54,5.06-2.92,1.24-1.06,1.94-3.51,2.94-4.06,1.55-.86,3.89-.19,5.05-.95,1.25-.82.64-3.53,1.41-4.59.91-1.27,5.58-1,5.52-2.47-.02-.39-1.91-1.47-1.9-2,.03-1.53,6.09-2.88,6.69-3.73.89-1.26,1.5-8.62,2.23-10.77l2,4c1.82-.03,4.35-4.76,2.41-5.01-1.25-.16-3.63.85-3.42-.97h18.99Z"/>
  <path class="cls-63" d="M237.08,2.09c-3.25,1.73-9.06,2.68-12,0,3.95-.08,8.05-.17,12,0Z"/>
  <path class="cls-63" d="M189.08,46.1c-.91,2.43-2.45,2.67-3.99.49l3.99-.49Z"/>
  <path class="cls-5" d="M214.08,2.09l-3.51,2.99-.49-1.99c1.05-.37,2.94-.9,4-1Z"/>
  <path class="cls-5" d="M156.08,67.09h-1.99c-.32-1.47.44-2.08,1.5-2.99l.49,2.99Z"/>
  <path class="cls-49" d="M223.08,106.09c.15-.02,1.64,1.22,2.99,0-2.96,9.05,4.66,5.49,3.02-2l4.99.99-.99-5.99c3.79.4,7.25,1.62,4.99-3,1.32-.9,6.73.21,7-.01.3-.26-.85-1.92-.45-3.02.14-.37,4.1-6.34,4.44-6.55.8-.49,6.05.98,7.02-.43.37-.54-1.11-2.65-.97-3.44.38-2.19,4.04-.07,4.95-2.06,1.08-2.35-2.69-1.17-2.99-1.49-.59-.62.91-3.86,1.01-4.99,1.73-.12.73,2.11,1.98,3.5,3.72,4.13,3.88-.1,4.69-1.24,3.11-4.43,8.07-6.28,9.09-7.5,1.1-1.31,1.21-10.15,5.24-7.76.16.77-1,1.55-1,1.99,0,1.37,3.58,2.56,2.9,5.31-.75,3.04-5.28,2.2-6.48,3.67-.52.63.32,2.23-.03,3.04-.62,1.43-4.19,3.46-4.16,4.46.01.39,4.22,4.84-1.91,5.36-1.72.14-2.38-2.38-4.32-1.84.06,3.49,4.88,4.15,3.99,7.99-3.45-1.34-7.42.41-10.99,1.01-.06,2.32,5.07,1.2,3.99,3.48-.78,1.64-7.16,4.28-4.98,9.51,2.51-2.49,1.66-3.01,5.5-2.97,3.12.03-4.06,4.9-4.23,5.25-.58,1.22.01,3.26-.34,3.64-.39.42-3.44-.41-4.51,1.05-.71.97.69,2.84.56,2.98-.21.21-3.57.04-4.56,2.03-.71,1.43,2.37,3.03,1.13,5.02-4.21,6.78-11.99-1.45-12.55-1l-1.02,3.99c7.39-.95,7.63,8.45.01,6.01l2.99,4c2.54,1.85.5,4.09-1.98,5.17,3.38.07,17.77,1.67,19.01,3.89,1.37,2.47.61,3.3-2.03,2.93l-3.62,1.24c-33.68-6.9-70.21,5.14-89.89,34.06l-3.48,1.7c-1.98.97-3.05,2.68-3.21,5.12-6.54,6.6-13.2,13.73-19.98,21.41-.56,1.92-1.02,2.94-2.37,4.42-2.14,2.33-15.15,7.01-17.43,4.06,1.4-2.16,5.86-2.76,1-4.49,1.03-2.42,6.73-2.47,3.99-6.5,5.99.72,2.94-1.19,3.51-2.01,1.15-1.66,2.75-.06,4.54-.45,6.72-1.43,7.53-7.63,11.96-12.06-6.99-1.31-.5-2.96,1.03-4.97,1.67-2.21,2.75-5.62,4.96-8.04,1.09-1.18,2.79-1.29,3.01-1.49,1.14-1.03-3.49-1.21-2.99-3.47.27-1.22,3.35-2.1,4.06-3.22.87-1.38.61-3.79.94-4.29.52-.8,3.99-3.4,4.63-4.36,1.55-2.36,3.28-8.74,6.61-10.38,4.48-2.22,1.69,1.13,6.12-3.9,3.35-3.8,9.72-6.96,13.17-10.33,1.28-1.24,4.3-6.61,4.68-6.82,1.29-.71,4.1.08,6.06-.45,2.73-.74,9.83-3.9,4.75-4.78.37-2.48,2.62-.85,3.93-1.51,1.19-.59,2.26-2.38,3.72-3.32,1.16-.75,5.03-2.07,5.18-2.31,1.73-2.84-3.28-6.03,6.17-4.85-2.12-4.56,3.77-8.32,7.99-8.99Z"/>
  <path class="cls-53" d="M247.08,61.09c-.67.62-3.96-.47-3.98-1.49-.03-2.98,5.88-.28,3.98,1.49Z"/>
  <path class="cls-30" d="M192.08,543.09c-.82.82-3.98-2.01-3.97-2.49,0-2.62,4.65-.17,3.97,2.49Z"/>
  <path class="cls-41" d="M306.08,527.1l-1.99,7.99c.69-1.93-1.91-8.71,1.99-7.99Z"/>
  <path class="cls-13" d="M157.08,184.09l.15,3.69c-9.13,16.6-12.54,36.17-9.73,54.91l-1.42,3.4-1.99,1c-.18-1.61.21-3.43-.01-5-2.81-3.44-4.02-8.11-3.64-14,.81-10.99-.2-13-3.03-6.02,1.32,8.68-1.04,11.64-7.07,8.89-1.1,3.42-3.16,6.23-6.89,6.94-.62,2.62-3,3.8-5.57,3.72.66,5.13-6.77,8.7-11.37,7.98-.7,4.23-1.69,7.43-6.7,5.97-.96,5.91-5.91,8.05-11.38,7.42,1.15,4.94-.6,8.34-6.48,6.26-.99,2.71-2.27,4.1-5.38,3.5-1.56,4.5-3.94,6.77-7.15,6.82-1.21,3.26-5.44,7.67-8.91,6.05-1.96,2.35-4.3,3.77-7.02,4.25-.45,3.22-2.01,5.15-4.54,6.96-.74,5.47-3.18,7.27-7.33,5.42-.93,4.12-3.82,4.39-7.27,2.88-1.48,2.68-4.07,4.26-7.76,4.74-.87,4.8-4.55,11.02-8.52,5.21-.1-.31-.89-.66-1-1,.65-1.77.32-3.1-1-4-1.91-6.2-4.23-12.49-4.99-19,3.46,1.79-.18,7.41,4.99,6-1.19-7.92,2.95-4.7,6.01-6.5,1.4-.83,1.25-3.32,2.28-4.24,1.64-1.45,9.4-3.86,9.72-4.29.41-.54-1.5-3.67-1-4.98,1.58-.69,4.47,2.38,4.97,1.99.14-.1.31-2.01,1.47-3.09,1.36-1.27,3.26.27,4.55-.48,3.18-1.85,4.34-7.99,10.99-5.43-2.18-3.8,2.23-2.49,1.01-6.99l3.99,2c-1.55-5.08,4.31-6.02,5.46-7.97.48-.81-1.03-3.01,1.05-4.01,8.79,7.17,4.02-3.65,4.5-4.02.26-.2,2.34.35,3.71-.32,2.65-1.3,5.1-5.64,6.74-6.74,1.5-1,3.48-.9,5.11-1.91,2.76-1.72,1.41-3.76,1.59-3.91.31-.25,6.99-3.03,7.38-3.14.85-.23.02,2.11.98,2,6.08-2.06,6.69-9.8,8.99-12.02.34-.33,7.47-3.59,8.52-3.98,4.52-1.67,12.54-2.26,16.61-5.99,1.25-1.14.6-2.69.95-3.05,4.88-4.96,8.64-8.9,13.03-14.87.74-1,2.28-1.27,2.83-2.09.43-.66-.51-1.94-.42-1.99,1.02-.6,5.93,1.1,6.72-2.65.5-2.36-2.48-3.89,3.28-4.36Z"/>
  <path class="cls-38" d="M18.08,315.09c7.07,2.06,4.9-4.52,7.27-6.72.74-.69,4.31-1.2,6-2.25.98-.61,1.2-2.64,2.29-2.88,3.2-.72,5.63,4.42,6.45-4.15,8.53,4.07,4.57,1.45,7.19-3.34.71-1.29,2.25-1.51,3.12-2.93,1.01-1.65,1.48-5.53,1.7-5.74.11-.1,1.56,1.09,2.92.53,2.41-1,6.34-7.59,7.56-2.52.32-1.65,4.5-4.3,4.58-4.67.58-2.81-3.71-7.28,3.41-2.33,2.46-1.24,3.49-6.63,5.48-7.47.86-.36,2.29.69,2.83.35.64-.41.86-3.31,2.81-3.65,1.26-.22,3.05,1.44,4.41.3,2.73-1.7-1.39-3.8-1-4.5.08-.15,2.54-1.95,2.71-1.99,2.41-.51,3.93.6,6.83-.99,3.88-2.12,3.17-6.75,3.45-7.06.61-.65,4.41,1.39,4.94.99.85-.63,1.79-6.74,2.07-6.99.5-.45,3.4,1.03,5.04.59.33-.09,5.64-3.46,5.82-3.76.81-1.38-1.34-4.07-.85-5.83,2.24,3.17,8.2.9,5.98-1.99,6.27.06,6.76-4.43,8.51-8.99,8.7,8.13,5.27-1.6,5.92-5.56.05-.29,2.5-5.11,2.73-5.3.73-.64,3.58.04,4.86-.16-1.58,9.13-.28,17.01,1,26-2.47-.76-2.23,2.6-3.55,2.89-.95.21-3.09-1.28-3.44-.88-.71.81,1.74,8.1-1.21,9.8-2.36,1.36-9.46-3.18-8.81,6.2-2.1-1.12-3.12-3.7-5.98-3,.24,7.3-2.7,5.21-5.94,7.57s-8.78,6.71-10.83,8.68c-.51.49-.06,2.01-.46,2.47-1.15,1.33-6.46.72-7.6,1.46-.69.45-1.02,4.14-2.71,4.83-6.59-5.39-4.02,5.18-4.65,5.84-.18.19-4.6,2.31-4.81,2.15-.43-.34-.63-5.83-3-6-.18,2.73-.6,6.26-1.8,8.71-1.7,3.47-5.89,4.55-6.79,6.31-.95,1.87,1.52,3.63-.92,4.95-6.42-6.09-9.09,4.63-8.51,10.02-2.06.84-4.25-2.25-5.43-1.98-.71.16-4.13,5.95-6.06,7.1s-3.3-.62-4.48,1.39c2.63.97,1.04,6.12-.54,6.5-2.05.49-3.04-4.1-5.52-2.54-3.33,2.1-.75,6.26-.97,6.54-1.31,1.72-4.96-.77-5.51-.73-3.95.27-4.08,7-3.95,9.88.04.91,3.36,5.01-1.54,2.85-.13-.31-.85-.63-1-1,.34-2.28-.14-3.87-1-3-3.28-8.36-6.1-15.32-9-24Z"/>
  <path class="cls-43" d="M119.08,189.09c-.36.93-3.24,5.73-3.53,5.91-2.54,1.57-4.91.19-7.47,1.09.14-.16,2.33-2.87,2.45-3.05.79-1.18.13-2.72,1.23-4.04,2.27-2.7,4.66-.55,7.32.08Z"/>
  <path class="cls-38" d="M16.08,310.09c2.67-.84,2.91,2.28,1,4-.49-1.51-.63-2.81-1-4Z"/>
  <path class="cls-43" d="M84.08,212.09c.6,2.9-.54,3.22-3,4,.39-.4,1.49-2.64,3-4Z"/>
  <path class="cls-1" d="M28.08,342.09c-.48-1.2-.68-2.19-1-3l.99-1,.82,3.39-.81.61Z"/>
  <path class="cls-26" d="M338.08,395.09c1.48,1.48,4.64-.15,1.99,6l-2.99-5c.36-.28.63-.71,1-1Z"/>
  <path class="cls-26" d="M371.07,372.09c1.51,4.57-4.97,4.85-4.97,2.5,0-.97,3.93-1.96,4.97-2.5Z"/>
  <path class="cls-26" d="M351.08,387.09c-1.71,1.51-4.49-1.3-2.99-2.99.96-1.07,4.06,2.05,2.99,2.99Z"/>
  <path class="cls-46" d="M163.08,285.09c3.31,3.18,7.98,6.03,11,8,4.62,3.02,9.6,5.64,14,9,1.26,7.15-9.46-1.37-12.43-4.14-1.97,1.38-4.16,1.06-6.57-.94-.34,2.25-2,3.37-4.99,3.38-2.47,4.01-5.56,5.81-9.29,5.41.4,8.15-4.73,7.63-10.73,6.29-1.52,1.33-2.58,2.17-4.3.79.28,3.37-4.89,6.44-8.09,5.54-2.81,4.73-6.03,6.04-9.67,3.91-3.67,5.48-8.86,8.22-15,9.68-.49,2.61-2.09,4.53-4.49,5.57l-13.28,4.03c-1.16,3.07-6.06,3.64-8.17,1.48,5.83-8.2,8.07-7.43,15.05-12.53.95-.7-.05-2.41.88-2.97,1.78-1.07,4.5-.44,6.61-2.45,2.78-2.66.88-8.17,4.98-10.02,3.55-1.6,1.91,2.25,2.97,3.96,3.17-1.26,3.97-4.7,6.08-6.96.96-1.03,2.88-.78,3.52-1.67.94-1.32.48-4.95,1.87-5.96.82-.6,2.61.5,4.02.11,11.07-3.05,4.36-4.08,6.18-7.33.85-1.52,6.91-2.75,8.84-2.19l-1.02-1.98c3.19.86,3.04-1.81,4.64-2.94,1.24-.88,2.89-.28,4.08-.85,3.5-1.66,2.74-4.82,7.63-1.38l5.67-2.84Z"/>
  <path class="cls-59" d="M174.08,10.1v3.99c-.55,1.21-2.54-3.44-1.99-3.99h1.99Z"/>
  <path class="cls-19" d="M108.08,99.09c-.02.17,1.66,2.32,1,2.99-1.12,1.13-2.75-.67-2-1.99.35-.26.62-.74,1-1Z"/>
  <path class="cls-8" d="M368.08,332.09c-.22,1.56.29,2.9-1.49,3.98-2.3-2.05-3.32-2.05-5.51.02-.04-.25-1.3-.86-.9-2.25.83-2.88,6.02-4.48,7.9-1.75Z"/>
  <path class="cls-8" d="M381.08,320.09c-.06.34,1.77,2.72-.24,4.78-1.54,1.59-3.64.1-4.76.22-.86-5.5,1.08-3.3,5-5Z"/>
  <path class="cls-50" d="M360.08,207.09c6.21,4.92-.95,8.96-5.89,11.44,2.21,1.61-4.05,6.69-5.78,7.76l-2.78-.11c-1.26,2.33-3.39,3.67-6.39,4.02-1.09,3.75-3.12,6.55-6.07,8.42,2.72,3.21.55,5.98-3.28,4.51.16,4.35-3.16,4.37-6.57,4.12l-2.31,11.27c.25,2.53-1.8,4.23-6.14,5.1.11,3.17-.82,5.33-2.79,6.47,1.39,1.35.78,1.9-1,1-2.25.93-4.59,2.93-7,6l1.93,1.05c.51,8.27-2.07,13.26-10.93,9.95-.11,2.26-.77,4.08-3,5l-.42,2.12c-5.42,1.91-9.89,4.79-12.93,9.64l-4.18.77c-.12,4.16-2.18,7.14-6.45,5.44l-11.55,1.88-1.47-1.83c-2.26,2.21-5.24,3.34-8.96,3.39-.81,5.49-8.91,7.19-13.82,6.44-1.75,1.88-3.02,3.23-5.72,3.18-.79,3.95-3.78,5.58-8.97,4.9-2.51,2.79-5.16,4.51-7.98,5.17-1.67,3.45-3.43,6.72-7.86,5.43l-2.77,4.08c.73,5.14-3.83,5.12-7.82,4.81,1.31,3.69-2.49,5-5.29,2.75-1.71,4.08-4.46,6.05-8.25,5.9l-1.48,2.89c-3.19,1.36-3.5,1.89-4.49,5.15-6.24.28-8.95,3.26-11.72,8.18-5.82.51-11.58,2.73-17.28,6.68-3.61-.71-4.67,1.21-3.16,5.75-3.2,1.85-6.84,3.22-10.92,4.12-.56,2.52-2.36,4.62-5.39,6.3-1.91,3.95-4.71,6.71-8.38,8.27-1.7,3.52-3.67,7.26-7.64,3.91l-1.07,1.09c.85,3.92-3.47,10.72-7.79,8.88.57,4.5-1.95,6.66-7.58,6.46-.73,6.53-2.19,12.36-7.7,4.28-.65-.61-1.99-.89-2.49-1.97-2.51-5.45,1.67-3.5,2.31-4.14.52-.52.09-2.78.62-3.9.91-1.93,2.45-3.01,3.29-4.74s1.99-6.99,2.27-7.25c.53-.5,3.54,1.64,4.82.88,2.94-1.73.88-7.57,1.17-7.87.15-.15,1.82.34,2.65-.29,4.69-3.53,6.59-2.65,8.32-3.77.1-.07-.92-1.42-.08-2.47,1.3-1.63,5.82-3.42,6.8-4.78.88-1.23.64-3.61,1.77-4.73,1.26-1.24,3.48-.67,4.56-1.47.99-.73.63-2.53,1.26-3.21.72-.78,7.29-3.12,7.55-3.44.56-.68-.11-2.91.31-4.2s2.06-1.26,2.57-1.98c.56-.78.1-2.13.36-2.59.11-.21,3.4,1.01,4.72-.34.39-.4.04-1.91.48-2.39,2.16-2.32,4.67-3.19,6.21-4.28,5.68-4.05-2.32-7.04,6.53-8.64,6.98-1.26,3.36-1.25,8.05-3.86,2.83-1.57,8.83-1.88,10.75-5.25,1-1.75.82-5.96,2.12-6.88.54-.38,3.19.97,5.35-.37,1.35-.84,3.55-5.46,5.05-6.73,2.48-2.1,8.65-3.41,10.37-4.63.79-.56,1.1-2.42,2.94-3.63,2.52-1.66,11.82-1.74,12.2-2.24.87-1.14,1.27-4.35,4.14-5.84l.7-1.21c2.4.43,4.9.8,7.3.21,44.23,5.45,79.02-16.38,95-57,1.79-.97,2.8-2.96,2-6,.31-.64-.22-.97,1-2,.28-1.15.95-1.82,2-2-.83-1.5-.83-2.5,0-3,5.25-7.01,11.2-13.71,17.79-19.68,9.44-3.33,15.34-7.48,21.89-15.13l2.32.81Z"/>
  <path class="cls-33" d="M255.08,311.09c.93,1.44,1.2,5.78.23,6.98-.44.54-11.22,5.28-12.3,5.5-2.46,2.76-4.71,3.07-7.92,1.73-2.75,9.72-4.74,10.75-14.72,9.62l-2.44.46c.58,10.33-3.84,11.57-13.4,13.4,3.14,4.68,1.61,7.9-4.23,6.87-.33,5.02-3.48,5.74-7.73,4.25.49,5.26-2.34,8.14-8.49,8.65,3.85,2.61,1.27,4.39-2.33,5.17l-3.52,3.09c-3.84-.64-6.73,1.37-8.65,6.03l-2.5-.75c-2.85,1.78-11.86,4.69-13.38,6.09-2.15,1.98-4.42,8.4-6.64,9.41-3.86,1.75-6.79-2.95-9.8,3.27-.68,1.41-.37,3.89-.7,4.27-1.44,1.69-6.08,1.4-7.06,2.9-.44.67.89,2.65.57,2.99s-7.76,2.32-8.78,3.23c-.32.29-.88,7.47-2.18,8.43-.74.55-4.17-.91-6.98.96-2.28,1.52-5.43,7.99-7.09,8.94-1.29.75-3.69.3-3.93.54-.29.28.3,4.04-.55,5.95-.64,1.44-4.04,3.92-5.48,5.01-.65-.87-2.83-1.97-3.98-3.52-2.7-3.65-5.85-7.56-8.02-11.48.78.73,4.21,3.7,5,2.99-1.65-2.38.34-3.17.71-4.77.53-2.34-1.85-3.39,2.29-4.73,1.17-.38,4.21.28,4.84-.65.94-1.38-.33-6.13,1.67-6.84,1.89-.8,1.46,2.05,1.97,2.01,1.77-.14,3.35-1.83,2.2-3.78-.21-.35-2.61.22-1.67-2.23,7.07,4.02,3.48-.19,4.1-2.34.11-.4,4.7-5.24,4.77-3.17.21,6.74,3.71-1.81,4.55-2.54,1.25-1.1,6.09-1.41,4.05-3.96-3.48,2.31-5.53-1.21-3.47-2.97,1-.86,3.91,3.01,5.87,1.86.17-.1,1.01-2.38,2.07-3.4,1.27-1.22,4.72-3.38,4.89-3.64.19-.29-.9-1.55-.76-1.73,1.56-2.08,11.48-3.66,11.93-4.11.24-.24-2.65-4.49-.01-6.56.72-.56,2.37.29,3.1,0,2.59-1.05,12.89-6.8,13.82-6.99,1.34-.28,3.15.72,4.08.13,1.33-.84,1.3-3.33,2.25-4.31,1.17-1.2,8.01-5.45,9.74-3.25l-.99-4.99c6.41,1.66,5.21-3.08,6.14-3.86.66-.56,3.22.27,4.86-.65,1.3-.73,3.14-4.81,3.02-6.5l5.98,3-1.99-4.99c1.6.44,8.14.78,8.92-.11.41-.47-.23-2.33.14-3.09.16-.32,3.15-4.74,3.37-4.95,1.16-1.07,3.07.58,4.54-.32,1.9-1.15,4.26-9.88,5.53-4.55.87-1.52,4.9-5.37,6.32-5.94,2.25-.91,4.95.29,6.16-.5,1.5-.97,1.47-3.87,2.23-4.35s2.5,0,3.76-.75c.77-.46.76-2.24,1.72-2.48,1.82-.47,4.58.39,6.77-.01.39-.07,6.33-2.69,6.55-2.98.37-.51-1.24-2.75-1.02-2.98,4.01-.95,7.91-1.5,12.01-2.01Z"/>
  <path class="cls-56" d="M144.08,312.09c4.14-2.95,7.7-.69,7.99-1s.75-6.69,1.01-8.02c6.57,3.13,7.01-2.6,10.04-4.42,1.29-.77,3.33-.27,3.84-.74.72-.65-1.4-4.25,3.38-2.6,1.18.41,1.78,1.83,3.22,1.81.7,0,.06-2.72,1.99-2.03,1.48,1.75,9.59,7.96,10.97,7.96.78,0,1.43-.99,1.55-.97,8.13,1.19,18.57,7.59,30,9-1.39,1.54-5.88,1.29-8,1-5.56-.77-12.42-3.55-17.51-5.99-2.77,8.5-3.59,2.62-6.96,2.4-.64-.04-9.15,1.79-9.56,2.06-2.19,1.43.6,5.27.02,7.52l-4.49-2.98c-4.28,2.97-.1,10.89-6.49,9.98l1.99-3.5c-3.87-1.17-5.79,2.72-5,6.51-1.81.36-3.76-1.22-5.34-1.04-.61.07-.65,1.37-1.05,1.61-3.19,1.95-4.31.94-3.62,6.43-5.39-4.37-4.18-.84-6.03.41-6.73,4.54-9.53,6.61-17.19,9.67-.54.22-1.63,2.77-4.77,1.92-2.53,1.42-3.53,3.75-3,7-1.33-.5-2.41-1.35-4-.99.55,3.2,5.27,2.97,1.5,5.97-2.4-4.47-1.64-2.63-4.5-1.98-1.33,2.92-3.33,5.25-6,7-.76.82-1.13,1.23-2,2-4.43.8-5.62-13.15-3.69-14.85,3.7.08,7.29-.47,10.76-1.67-3.04-.56-6.55-2.33-4.07-5.48-2.41-1.71-.85-3.64,2-3,1.07-.03,1.51-.32,1-1-2.91-3.08,2.97-8.35,6.9-7.29-.09-3.17.08-6.5,3.59-7.59,3.48-.04,7.95-1.85,10.69-4.38-.18-2.01,1.37-3.48,4.66-4.42,1.01-2.34,3.54-4.7,6.16-4.31Z"/>
  <path class="cls-64" d="M109.08,344.09c1.35,3.84,4.11,3.08,6.28,4.03,5.6,2.45-10.16,6.9-12.27,3.97.76,4.66.63,9.7,2.99,14-1.55,1.36-7.53,4.8-7.85,5.15-.7.77.2,3.46-.15,3.85-.41.46-6.12-.53-7,0-.09.05.77,1.24.38,2-.65,1.25-2.24,1.8-2.87,3.05s-.34,3.7-.55,3.91c-.5.48-3.45-.4-3.92.07-.25.25.21,2.61-.55,3.93-.18.31-4.64,4.89-4.93,5.1-1.66,1.21-4.29.74-5.68,2.36-1.17,1.37-.69,10.73-.87,13.13-.23,3.08.46,2.56-3,2.45-5.04-8.13-10.93-15.32-16-24,1.12-5.88,3.45-6.42,9.16-6.56l2.29-.93c-1.37-5.03-.65-8.16,5.05-5.4,3.05-5.19,8.26-8.8,15.61-10.81-.04-3.87,1.32-6.69,4.08-8.46,4.78-1.25,12-3.73,11.92-9.54.8-2.33,7.58-3.93,7.89-1.29Z"/>
  <path class="cls-64" d="M124.08,347.09c1.36,2.89-.54,5.17-1.02,8-.32.28-1.35-.76-1.98-1l-3-3.01c1.14-2.16,3.34-3.29,2-5.98,2.22-1.24,3.77,1.93,4,1.99Z"/>
  <path class="cls-64" d="M114.08,357.09c.95,3.3-2.78,7.29-6,7,3.2-3.48,1.45-3.35,1.01-8,2.36,1.92,2.38,1.6,4.99,1Z"/>
  <path class="cls-34" d="M368.08,44.09l10,9c-3.95-.65-1.18,4.47-1.31,6.4-.08,1.12-1.26,2.3-1.32,3.6-.09,2.13,1.25,5.43.71,7.41-.28,1.03-2.63.16-3.93,2.23-1.6,2.55-.98,6.11-1.64,8.36-.54,1.84-2.9,3.79-3.07,5.92-.15,1.79,2.53,2.78,1.13,5.11-1.66,2.76-5.6.24-7.57,1.41-2.15,1.27-2.14,6.26-2,8.55-1.16-1.58-5.84,1.13-6.55,1.99-.46.55.85,4.29-2.95,6.01-.33-9.13-4.92,0-7.3.94-1.82.72-5.74.04-5.98.22-.52.39-.65,2.12-1.66,2.91-1.07.84-2.62.57-3.61,1.63-1.95,2.08-.75,5.05-1.17,6.04-1.19,2.81-10.17,3.9-8.55,7.11.15.29,4.49.78-.18,4.75-2.46,2.09-6.47-.52-10.04,2.41-2.1,3.28-6.36.62-6.83-2.97-.34-2.58,11.34-13.11,14.75-12.53-3.55-2.18-11.57-7.98-4.92-10.5-1.6-4.33,2.71-9.83,6.78-12.24-.65-2.73.17-4.34,2.46-4.83,5.78,1.55,12.23-3.08,13.1-8.9-3.43-1.19,3.87-12.72,4.5-13.14,2.94-.12,5.73-.94,8.39-2.46,2.87-7.14,5.44-14.36,7.7-21.64,2.85-1.4,5.87-2.33,9.06-2.79.25-.17,1.4.1,2,0Z"/>
  <path class="cls-6" d="M408.08,91.09c.25.42,2.38.76,1.97,2.41-.22.87-2.23,1.67-2.67,3.23-.42,1.46.04,8.48-.55,10.74-.38,1.45-3.05,2.08-4.24,3.62-.6.77-5.28,11.04-5.34,11.68-.13,1.45,2.8,3.38,1.82,4.31-2.08,1.99-3.44-2.76-3.98-1.99-1.01,1.28-.08,4.38-.29,4.8-.14.29-2.82,4.47-3.29,5.13-1.51,2.09-6.85,3.68-8.5,6.5-2.2,3.77,1.2,5.7-4.93,3.56-.41,2.06,3.09,3.76,1.86,5.87-.15.26-4.6,3.5-4.88,3.62-1.64.74-4.24.17-4.83.66-.33.27-.36,2.37-1.11,3.44-.85,1.23-2.56.48-4.03,1.83-3.43,3.15-6.8,10.61-9.27,13.31-1.68,1.84-7.14.19-5.75,6.27-1.45,1.64-5.5-7.06-5,3-11.77-3.75-6.33.03-6.99,5.41s-5.19,11.19-11.01,10.6c2.63,4.85-3.17,4.16-6.98,3-.6,3.94.12,8.22,0,12,2.88,8.19,2.06,19.32-2,27-.11.98.12,2.02,0,3-.91,1.02-1.58.02-2-3,1.88-15.3,1.4-27.38-4-42-.43-2.53-.77-4.86-1-7,1.64-1.53,1.17-5.66,1-8,2.66.14,2.82-2.91,3.02-2.99.67-.3,1.43,1.47,2.45,1.63,3.75.62,1.9-4,2.98-5.68,1.47-2.29,7.28.26,5.55-6.3-.26-.97-2.89-.14-2-2.65,3.28-2.9,7.66,1.26,7.98.97.15-.13-.18-1.41.23-1.8.55-.51,2.04.81,2.8.35s1.63-8.05,2.04-8.48c.56-.58,4.94.67,6.94-.56.66-.41,4.83-6.29,5.7-6.48,1.94-.42,8.77.43,9.29-.03-3.68-9.86,7.29-3.95,11.43-11.07,4.04-6.95,1.53-2.39,6.17-5.86.88-.66,1.04-2.52,1.63-2.86,1-.58,2.89.19,3.59-.36.63-.49,3.93-9.64,4.72-10.8,1.39-2.05,4.67-1.54,5.27-2.24,1.74-2.04,1.74-9.1,1.2-11.8,1.71-.77,3.36,2.45,3.98,2,2.13-1.56,2.98-10.28,8.02-8.01-4.23-5.48,1.37-5.45,3-9.99Z"/>
  <path class="cls-54" d="M314.08,110.09c-1.44,1.95.76,5.79,2.19,6.8.25.18,1.31-.77,1.6-.57.73.5,3.96,4.74,5.21,5.76-2.24,1.12-8.01.39-8.99,2.53-.67,2.29,2.53,1.41,2.89,3.04.53,2.35-2.05,6.05-4.89,5.45.45-1.35-.85-2.83-.93-3.57-.03-.31,3.67-.6,1.91-2.43-.44-.46-5.97,3.87-6.54,5.01-1.8,3.63,3.97,3.42,4.55,3.99.75.73,1.86,3.87,3,4.99-4.91.79-10.45,2.83-11.04,8.58-.23,2.22,2.77,1.75,3.05,2.96.09.39-2.01,4.22-2.22,4.35-.6.36-2.24-.91-2.84-.46-1.11.83-.74,3.32-1,3.58-.12.12-2.07-1.29-2.99-.59s-1.02,3.64-1.92,5.22c-.46.81-5.5.51-3.05,2.37.48.36,3.46-.45,3.97.05.21.21-.08,2.66.56,3.91,3.01,5.84,11.09,13.72,14.48,21.05.77,1.67,2.95,6.19,1,7-6.96-18.84-25.47-39.85-44-48-4.3-4.82,9.34-18.7,12.8-19.7,3.17.74,5.06,1,3.49-2.59l1.71-1.71c.7-1.38,2.16-1.83,4.38-1.34.12-3.45,2.05-6.08,5.77-7.9,1.29-4.22,3.27-9.17,7.09-3.73,2.18-3.99,8.12-10.13,10.76-4.02Z"/>
  <path class="cls-27" d="M239.08,135.09c1.1-.92,5.56-1.14,6.57-1.96,1.78-1.43.26-5.38,3.91-8.1,3.35-2.49,8.86,3.57,6.52-8.94,1.79-.24,2.57.43,2.77,2.25.06.57-1.93,3.71.23,2.26,1.71-2.92,3.16-5.1,2-8.51l5,2.98c.42-.39-4.35-4.65-1.74-7.72,3.24-3.81,4.91,1.85,5.24,1.72,2.43-.91,4.17-8.8,9.51-7,.67-1.57-2.36-4.43-1.97-4.93.12-.15,1.61-.13,2.38-1.15,3.63-4.8,6.04-4.88,9.35-8.15.94-.93.89-3.38,1.31-3.69,1.47-1.09,4.28,1.84,5.43-.07.69-1.14-1.03-2.73-.48-4.39.49-1.49,10.46-3.24,3.97-4.62,1.21-6.17,11.46-3.57,12-4,.34-.27-1.48-2.56-1.01-2.98.14-.12,1.95.16,2.9-.57.39-.3,4.31-4.22,4.53-4.52,2.06-2.85-.09-6.08,5.58-4.93-4.44-4.99-.12-4.85.01-5.5.49-2.34-1.82-1.02-2.01-2.09-.15-.91,1.27-3.61,0-5.4h4s-1.99,4.99-1.99,4.99c5.83,1.48,3.72-4.39,8-5.02-4.4-3.5-1.13-6.1-3.02-10.46l6.01-1.02-3-3.49c5.2,1.47,4.67-1.66,5.99-2.53,2.16-1.43,5.13,3.35,8.02,3.53h1c4.2.96,7.71,4.88,11,7,.91,3.19-2.4,3.21-5.1,3.1-9.06-2.9-15.59,2.46-15.59,11.41l-1.57,1.51c2.63,6.25,1.99,10.26-1.91,12.02,2.63,6.78-4.17,7.06-9.23,6.33-2.45.66-4.33,8.44-4.64,11.01-2.64,1.3-4.23,3.2-4.75,5.72-3.85.64-5.45,1.95-8.07,4.9.62,4.9.43,10.67-6.1,9.57-1.18,3.39-2.96,6.29-5.33,8.71.97,2.55-.09,4.33-2.63,4.98l-3.73,9.14-2.35.61c-.19,1.19,1.57,2.91.55,4.97-1.75,3.53-5.11.61-6.55,1.46-.7.41-2.08,3.34-3.47,4.59-3.2,2.89-3.98,1.42-6.31,6.73-.65,1.47-.59,4.38-2.23,6.25-3.56-1.57-10.03-3.04-14-4,1.85-2.83.86-1.58-1.22-2.27-9.56-3.17-20.79-2.67-30.78-2.74.66-2.33,5.02-.17,6.79-1.2.63-.37,1.13-3.38,2.71-3.54.37-.04,1.25,1.24,1.95,1.23,6.12-.05,4.05-2.23,5.54-3.48Z"/>
  <path class="cls-39" d="M345.08,31.09c.34.02.71-.07,1,0l-3.49,2.01-.5-2c.99.02,2-.07,2.99,0Z"/>
  <path class="cls-44" d="M415.08,89.09l-.49.97-2.52-.99c-.33-.84,1.03-1.88,1.01-1.98,1.14.31,1.4,1.3,2,2Z"/>
  <path class="cls-41" d="M306.58,595.11c1.5,0,1.5,2.96,0,2.96s-1.5-2.96,0-2.96Z"/>
  <path class="cls-11" d="M144.08,312.09c-.55.39-1.24,2.09-2.47,3-1.4,1.04-7.84,3.96-6.43,5.94.1.13,3.81.04,1.89,2.06-.29.3-1.54-.89-2.35-.76-1.12.19-1.72,1.76-2.71,2.23-2.42,1.15-4.74-.78-3.94,3.54-9.69-3.97-6.05,4.34-7.49,6.05-1.16,1.37-3.09.06-4.78.9-1.33.66-3.26,4.52-3.73,5.04,1.29,1.46.71,2-1,1-1.09,1.31-1.59,2.51-2,3-.09.11-1.26-.29-1.75.28-.6.7.24,4.37-2.24,2.72-.25-.17.82-2.96-2-2,.9,5.43-4.28,7.98-8.28,10.23-2.62,1.47-5.18.03-6.99,4.1-.69,1.56.04,3.3-.47,4.41-2.08,4.5-19.32,4.07-15.28,15.26-2.12-1.75-3.57-4.42-6.99-3.99,6.1,9.42-7.72,7.14-8.87,8.13-.55.47.18,4.38-3.13,3.86-1.09-1.87-5.5-7.31-5.72-8.64-.13-.79.85-7.53,1.22-8.35,1.38-3.06,3.39-1,4.88-1.05.27,0,1.05-2.36,4.39-2.75,1.65-.19,5.01.56,5.29.37,2.88-2.04.37-12.18,7.93-7.58-1.67-7.43,3.94-5.15,4.9-6.11.38-.38-.04-2.66.64-3.83.79-1.38,3.22-4.29,4.48-6.06,1.46-1.45,4.89-.5,5.89-1.1.77-.46-.39-8.02,2.6-1.89,6.25-5.21,16.89-.89,15.52-12,5.3,4.07,14.19-3.93,16.5-8.99,1.99-.63,1.22,1.15,1.8,1.61,3.91,3.09,4.93-3.05,7.7-4.15,1.45-.58,6.22,1.69,6.93-2.08.19-1.01-3.45-3.83-.43-4.39,2.25-.41,4.06,2.57,6.48,2Z"/>
  <path class="cls-28" d="M341.08,380.09v3.99c-2.36.74-2.74-1.82-2.99-3.99h2.99Z"/>
  <path class="cls-8" d="M359.58,349.11c1.5,0,1.5,2.96,0,2.96s-1.5-2.96,0-2.96Z"/>
  <path class="cls-45" d="M265.08,382.09c-2.97,1.58-4.08,2.9-6.26,4.62-.44.35-1.6-.65-2.27.36s1.12,2.76.13,4.06c-.85,1.12-5.69.92-7.71,4.45-1.58,2.77,2.21,3.98-2.9,3.51,1.72,4.32-.29,2.78-2.17,4.12-3.4,2.42-1.67.4-4.1,1.03-1.36.36-2.46,2.44-4.03,3.14-1.36.61-3.4-.11-3.74.17-2.76,2.29,2.02,8.89-6.94,4.54.05,6.31-3.99,5.33-7.03,7.51-1.31.94-1.65,2.88-2.69,3.56-2.58,1.67-4.82-.39-6.34.39-.64.33-1.48,6.97-2.06,7.44-.66.53-2.94-.18-4.2.12-.82.19-.63,1.97-1.32,2.04-2.2.23-5.32-2-7.87,2.01-1.76,2.77,2.06,1.23-4.25,5.66-1.68,1.18-1.16,2.21-1.27,2.28-.43.26-1.9-.71-1.57-2.05.24-.97,2.95-3.6,2.59-3.94-2.15-.54-2.63,1.83-4.06,2.47-1.64.74-7.19,2.83-8.42,4.51-.89,1.22-.29,3.65-1.95,5.14s-4.18-.56-4.56-.13c-1.31,1.49.46,4.03,3,3,.19,4.13-2.84,1.97-4.29,2.38-4.77,1.35-8.09,2.81-7.71,8.61-1.62.37-2.48,1.32-3.68,1.64-.92.24-2.37-.77-3.32-.2-1.79,1.07-1.34,4.75-2.66,5.68-1.65,1.17-5.34-.79-6.24-.01-1.29,1.11-1.03,7.92-3.62,8.89l-.49-1.95c-5.71-2.26-3.08-.3-5.09,2.38-.77,1.02-2.24,1.34-2.56,1.82-.34.5.51,3.25-2.34,3.77-.67-.86-2.11-1.11-3-3-.86-.78-1.73-1.83-1-3-.16-1.06,1.17-2.47.89-2.86s-2.8-.74-2.88-1.62c-.11-1.22,5.45-5.75-4.01-5.01l9-5.52-2-2.97c1.47-1.07,8.87,2.34,7.5-1.01-.19-.47-1.42-1.04-1.42-1.5,0-1.72,6.75-2.73,7.96-3.97,1.67-1.72.28-4.9,2.38-6.62,1.2-.99,3.57-.81,5.14-1.86,1.66-1.1,2.33-3.87,3.47-4.58,1.02-.64,5.32.79,6.76-.69.67-.68.41-2.93,1.16-4.08.79-1.22,3.84-1.45,3.07-4.69l3.98,1.99c-.12-1.49-.37-6.85,1.5-6.97,1.53-.1,3.19,4.47,4.5,2.97.57-.65-1.45-3.6-1.99-3.99,1.33-5.23,4.36-7.27,10.02-6.5l8.08-5.17c2.24-4.29,5-3.96,8.84-1.82.32-5.83,4.67-8.57,13.05-8.22,1.84-5.64,5.1-11.35,11.51-7.52.45-3.33,2.65-4.5,5.63-3.13.98-7.75,3.27-9.96,6.87-6.64l2.49,3.01c2.37-4.93,2.13-1.78,5.24-1.15,6.44,1.31,5.17-5.83,6.3-9.08.42-1.22,3.24-1.59,2.99-3.78,3.64,3.07,7.06,5.49,11.98,6Z"/>
  <path class="cls-10" d="M399.08,162.09c-.06.15-1.73.73-2,1.5,6.7,3.09-7.15,5.44-8.51,7.53-.69,1.07-1.76,7.68.49,8.48-1.08,2.51-3.63.09-3.97.5-.7.83,1.25,3.66,1.99,4.51-.07.99-1.74.25-2,.48-3.2,3.25-6.07,6.81-8.61,10.67l-2.39-.67c-.63,1.44-1.63,2.77-3,4-.04,1.38-.98,2.62-2.82,3.73.08,5.73-4.34,8.51-8.18,4.27-4.3,2.7-7.46,8.45-12.25,11.25-5.8,3.38-8.09,1.45-13.13,6.87-2.97,3.19-1.26,2.08-5.11,4.86s-5.43,10.35-11.5,11.02c1.05-9.12,1.69-17.84,2-27,2.3-1.02,1.75,3.58,4,1.99.11-.08-.67-1.37-.35-1.97,1.4-2.59,2.97-4.39,3.61-7.77,4.2-.79,14.61-9.51,17.47-10.07,1.57-.31,3.66,1.15,4.26.81-2.09-8.41-1.1-4.57,2.22-5.19s9.39-4.08,9.79-7.79c1.81-.4.63,1.69.99,1.98,1.85,1.52,2.1-1.66,3.07-2.42.79-.62,2.4-.29,3.03-1.21.36-.53,2.71-6.88,3.05-7.17.45-.38,8.01-3.84,9.56-5.47.23-.25,2.08-5.48,4.28-4.72.12.04.4,1.42,1.66,1.79,5.91,1.72,3.55-.97,4.53-3.09.64-1.38,1.96-1.36,2.46-2.04.7-.95.67-3.27,1.85-3.66,2.39-.77,4.29,1.98,3.49,4Z"/>
  <path class="cls-3" d="M385.08,185.09c-.29.26-2.26,3.37-1.87,4.33,1.14,2.9,5.34,3.22,5.72,3.82,1.97,3.15-3.68,6.72,5.16,5.85,2.36,4.78-6.34,12.94-11,13,1.38,3.36-3.02,5.91-6,5,1.8,1.83,1.52,2.03-1,2-.54,4.23-2.97,6.21-7,6,1.33,3.68-1.06,6.52-7.17,8.54-.94,3.2-2.5,4.56-4.7,4.08-6.45,5.11-12.93,10.35-18.83,16.22l-8.44,4.5c-1.53,5.87-2.84,6.05-8.62,5.66-.09,4.77-5.48,9.29-9.23,6.01,1.44-4.68-1.5-7.64,4.23-9.33,1.26-.37,2.7.47,2.76.34.27-.55-.27-2.34.06-3.42,1.23-4.05.81-4.35,1.38-7.64,1.16-6.64,2.33-4.11,7.57-4.96l-.99-4.99,5.99,1.99-3-4.48c6.47-1.83,5.35-5.43,7.5-8.5,1.02-1.46,3.45-1.11,4.8-1.96,2.32-1.46,1.5-6.13,5.68-2.05-.42-3.93,4.67-3.66,5.03-4.01.17-.17-1.75-2.69-.59-4.05.58-.68,7.21-3.72,7.44-4.08.69-1.07-.14-4.33.14-5.87,1.91-1.2,4.05.5,4.87-.07,2.57-1.8-1.48-6.02,6.13-7.93.89-1.25,1.89-2.58,3-4,2.91-2.33,3.44-2.2,2.01-6,5.06,2.52,3.91-4.72,8.99-4Z"/>
  <path class="cls-14" d="M398.08,192.09c2.35-.13,2.66-2.25,5.08-3.41,1.03-.5,2.57.4,3.43-.52,1.38-1.5,2.38-6.03,1.5-8.06,9.02,2.48,4.41.01,5.41-2,.75-1.5,3.57-1.68,3.68-2.64.34-2.86-3.68-2.81,3.48-4.82.63-.18,2.02.72,2.32.4.27-.29.03-2.17,1.12-3.41,2.35-2.64,7.92-4.8,10.06-6.97,1.58-1.61,1.62-3.78,2.17-4.32.98-.97,4.94-.52,6.27-2.25.29-.37-2.86-5.85-1.51-8.01,2.65.92,3.63,1.21,4.02-1.99,1.83.87,2.35,4.65,3.05,6.54.57,1.54,1.78,3.95,1.86,4.19,1.1,3.62,1.11,8.63,3.07,12.27-1.65-.28-3.29.16-4.99-1l-1.02,7c-8.35-2.89-3.47,1.5-3.98,1.98-2.08,1.97-5.2-1.66-3.01,8.01h-5.01s1.01,1.99,1.01,1.99c-5.02-1.15-5.24,2.98-7.3,4.72-2.83,2.4-7.44,3.07-9.09,4.19-.93.63-.55,2.67-1.61,3.58-2.89,2.47-12.09,1.48-10.02,9.53-8.74-2.76-6.4,2.55-8.9,5.6-1.02,1.24-2.97.92-3.84,1.71-.33.3-2.99,5.82-3.78,6.64-1.02,1.05-6.01,3.64-7.47,4.04-.7,1.72-2.63,2.62-5.76,2.69-2.24,7-5.32,6.1-9.24-2.69,2.26-2.12,4.77-3.91,7-6q1.48,2.48,0,0c.15-.14.23-1.25,1-2l2.9-1.09c1.51,3.31,5.37-1.98,3.1-3.91,4.34-4.23,8.4-7.13,11-13,1-.1,1.39-.71,2-1,.2-2.59.87-4.59,2-6Z"/>
  <path class="cls-3" d="M396.08,198.09c-.25-2.22-3.8-1.8-4-2.01-.52-.56,3.28-7.5,1.01-9.98,4.2-.06,4.36,2.62,4.99,5.99.32,1.69,1.23,3.19,0,5.29-.75,1.29-1.53.49-2.01.71Z"/>
  <path class="cls-18" d="M369.08,225.09c5.56-.68,2.74,7.42,7,4.99.09-.05-.76-1.18-.36-1.98,2.1-4.26,5.05-2.11,8.36-3.01-1.78,2.72,1.43,7.28-2.53,6.64-.97-.16-1.93-2.03-2.46-1.64-.25.18-.19,3.09-.69,3.99-2.83,5.13-6.76,6.77-9.39,9.69-1.02,1.13-1.27,4.1-1.94,5.32,1.64,2,.72,4.15-2.77,6.44l-14.49,8.94c-8.28,2.06-12.6,6.59-15.87,13.28l-3.02-.15c-1.87,4.19-5,5.51-9.35,6.1-3.08,9.63-9.23,11.63-18.59,12.98-.94,2.16-1.51,3.16-4,3.27-.06,3.77-2.78,5.7-8.17,5.81l-4.01,6.04c-5.05.7-7.59,3.05-7.64,7.05-4.19-.13-5.76,1.48-4.69,4.83l-1.76,2.31c-5.47.22-8.73,1.49-9.85,7.26-2.45.13-4.94.16-7.46.1.47,5.86-3.34,8.55-11.44,8.08-.63,3.38-1.63,6.46-3,9.24l-1.69.34c-.88,2.24-3.28,3.94-7.2,5.1l.08,1.32c-5.04,1.23-7.88,4.11-9.79,8.56l-3.33,1.61c-4.45.59-8.4,3.33-11.83,8.19-4.89-.86-9.14,1.16-12.74,6.04-8.04,1.26-15.17,4.64-21.38,10.13l-1.99-.85h-3c1.45-3.31-1.53-5.54-1-9,6.2-3.88.52-1.73,0-6,5.37,3.19,4.93-1.05,6.1-1.88.23-.17,2.68,1.13,4.22.93.45-.06,3.74-5.75,7.67-3.05l-3.99-3.49c1.29-3.18,8.31-2.94,8.87-3.63.48-.6.08-6.03,1.24-6.76,1.8-1.13,5.49,1.6,6.41-.08,1.66-3.02-1.08-5.67,6.47-4.04,1.02-2.39-3.1-5.69-2-6.98.48-.56,11.12-.99,13.57-5,.59-.96-1.42-6.66,1.39-8.55,2.11-1.42,12.56,0,12.95-.52.73-.97,2.47-8.41,4.06-9.54,1.24-.89,3.64,1.12,5.41.54,1.3-.43,1.33-2.41,1.78-2.73.16-.11,2.19.61,3.61.17,2.98-.93,3.55-2.98,5.28-3.86,1.34-.68,3.82-.38,3.97-.52.23-.22-1.46-4.85.99-6,5.43-.67,7.13-.72,12.56-1.96,2.21-.51,3.87,2.92,4.9-2.92.19-1.06-.47-2.07-.46-3.11,8.26,1.24,5.52-.89,8.02-3.45,2.11-2.16,9.1-6.25,11.98-6.55,1.28-1.44,2.28-3.1,3-5,.21-.23-.56-2.09.56-2.05,1.93.06,4.88,1.91,7.44,1.04-2.43-3.65.82-2.64,1.02-3.66.1-.52-.23-5.7-.02-6.33l2.94-2.69c1.24-2.06,2.6-3.16,4.06-3.31.16-.21.83-.89,1-1,1.12-.77,4.7-1.02,6.01-2.5s.78-4.24,1.92-5.07c1.63-1.19,6.47.1,7.03-.47.27-.27-.47-3.07,1.48-5.03,1.74-1.76,7.31-3.45,8.87-4.87,6.44-5.89,8.68-8.96,16.96-14.02.93-.57,1.13-2.24,1.68-2.54.9-.5,2.64.83,2.98.49.17-.17.02-2.13,1.09-3.43,1.65-2.02,5.71-2.81,6.45-3.54.9-.9,1.14-2.71,2.54-4.01Z"/>
  <path class="cls-22" d="M400.08,232.09c.87.28.86.62,0,1,.45,7.18-5.49,4.2-8.14,7.46-1.07,1.32.04,3.02-.37,3.6-1.01,1.4-5.46,1.96-8.79,6.99-2.07,3.12-1.23,1.19-3.43,3.23-2.43,2.25-4.71,8.34-7.76,9.49-.39.15-2.08-.87-3.79.15-3.95,2.36-10.97,13.66-15.78,16.55-.89.53-2-.44-3.95.92-2.43,1.7-2.55,4.95-2.88,5.13-2.17,1.17-5.92-.14-6.97.6-.4.28-.9,3.53-1.71,4.79-4.49,7-9.14,2.39-10.46,3.49-1.08.9-.71,3.24-1.52,4.53-.89,1.43-6.19,6.24-7.77,8.05-.44.5.16,2.13-.56,2.54-2.37,1.35-7.95-.22-9.1.48-.09.05.78,1.16.35,1.97-.94,1.79-2.1,4.87-2.63,5.74-.95,1.53-5.95,3.04-7.21,4.31-.61.61-3.5,5.33-3.51,5.98-.87,2.78-3.7,1.61-5.18-.48-1.51,1.7-3.58,2.64-6.2,2.82-.61,3.93-1.87,7.9-6.68,6.94-2.19,7.27-5.78,9.9-10.76,7.89.09,2.69-.64,4.47-3.47,5.1.58,4.87-3.31,4.84-6.71,2.76-.02,2.68-1.36,3.52-3.91,3.89-2.22,6.04-7.84,7.96-13.98,7.83-.53,3.43-3.3,5.74-8.33,6.93-.67,2.97-2.54,4.29-3.78,1.32-2.37,7.29-15.26-5.97-6.65-7.1,1.13.82,5.64,2.96,6.4,1.07-1.53-5.31,1.71-9.17,6.83-10.62l.42-1.34c-1.16-4.86,4.45-1.96,5.99-5.5l-3.99.5c-1.03-5.43,3.31-2.02,6.99-2l-1.99-2.49c3.01-1.06,2.53-5.52,3.19-6.31,1.77-2.14,9.42-1.32,9.84-1.62,2.86-2.01-2.85-10.48,9.96-6.57-.96-6.59,1.03-4.02,2.67-5.28.78-.6.86-2.32,1.95-2.64,1.57-.45,4.45,2.18,5.91-1.12.64-1.44-1.1-3,.41-4.47,2.33-2.27,4.89-.29,5.05-.5.4-.53-1.07-2.5-.86-3.42.26-1.11,2.41-1.54,3.33-2.67.69-.85.31-4.7,2.52-2.88.18.15-.19,1.56.13,1.82,2.35,1.85,5.16-6.09,6.57-6.91,1.89-1.1,5.2-.53,6.37-1.38,2.15-1.56-1.33-6,4.94-4.56l-2-2.98c3.07.11,15.21-2.77,16.73-4.29.5-.5.33-1.96.86-2.58,2.98-3.53,2.27-3.95,3.59-5.94.52-.78,4.66-1,6.38-2.15s2.07-3.84,3.7-4.39c1.39-.48,3.33.59,3.74.34.16-.1-.78-1.65-.29-2.72.75-1.66,2.38-1.84,3.34-3.03,1.44-1.77.64-3.87,4.73-4.96,7.03-1.88,8.41-3.55,14.44-7.54,5.17-3.42,7.52-2.8,10.78-8.74,1.3,1.08,8.59.34,9.01,0,.33-.26-1.59-6.66,1.49-7.99,5.96,7.19,3.43,1.04,3.92.02,2.03-4.21,6.05-1.71,7.9-1.97.57-.08,1.49-2.39,2.89-3.32,2.88-1.93,4.96-2.43,7.78-3.74Z"/>
  <path class="cls-57" d="M403.08,232.09c3.28,1.22-.75,3.82,3,4.49-5.61,6.43-3.9,1.82-6-3.49v-1c.62-.29,2.35.28,3,0Z"/>
  <path class="cls-21" d="M232.08,356.09c.22.07,3.13,2.55,3.11,3.49-.05,3.41-4.17,4.92-4.13,8.51-.47.37-3.87-2.79-2.99-3.99,3.77-.49,4.6-1.06,3.99-5.01-2.02.84-4.41,2.19-5.28,4.29-1.15,2.78.97,4.9-.68,6.2-3.26,2.56-6.3.69-9.02-1.48-1.28,1.39,5.03,8.56,7.99,6,5.69,2.23-3.03,11.38-6.71,8.57-1.48,2.2-3.8,2.99-6.96,2.38-1.44,2.79-4.24,4.23-8.41,4.34.22,1.68.29,3.11-1.29,4.22-4.77,1.21-8.15,3.24-10.47,7.6-6.82-1.31-14.79,5.96-16.91,11.84-3.59-.23-5.62,2.16-6.07,7.18-2.56-.16-5.29.46-8.19,1.86-5.81.74-6.25,5.13-11.1,7.4-2.36,1.11-5.28.89-7.42,2.58-2.66,2.1.11,2.22.37,3.68.49,2.75-4.33,2.31-5.63,3.56-.83.8-.47,2.68-1.91,3.84-1.89,1.51-5.79,1.49-7.85,2.88s-3.63,6.98-6.8,8.69c-5.37,2.91-9.11-2.68-7.65,8.36l-3.03-4c-.89,2.34-5.04-3.05-5.44-3.95-.73-1.65,1.64-11.39,4.96-11.77,2.31.25,2.69,2.2,4.01,3.71,1.81-1.38,1.27-3.75,2.44-5.54,1.32-2.02,4.62-2.66,6.13-5.89.79-1.69-.18-4.11,1.39-5.56,1.24-1.15,3.11-.77,4.51-1.55.8-.45.71-2.27,1.73-2.47.9-.18,1.85.85,3.9.13,2.32-.81,2.6-3.13,3.86-4.09,5.04-3.87,9.51-3,6.55-12,4.33,2.37,4.86-1.55,7.93-2.56,1.92-.63,4.73-.02,6.09-.91,1.16-.76,1.76-5.12,3.27-6.23,1.97-1.47,7.1-.63,8.25-2.28.57-.81.15-2.49.56-3.21.69-1.22,1.77-3.62,1.9-3.81,1.37-2.1,8.22-2.12,5.01-9,1.63-.12,1.61,3.08,2.52,3.04,1.07-.05,7.49-3.67,9.46-4.37,1.07-.38,2.73.23,4.71-.41,3.8-1.23,5.13-5.9,8.25-6.66,1.65-.4,3.51.88,5.36.29,1.34-.42,3.35-4.87,5.77-6.34.81-.49,12.94-2.99,9.36-5.56l-3.45-2.98c4.18-.73,8.06,3.12,8.06-2.98,1.34,1.12,5.65-.11,5.93-.02Z"/>
  <path class="cls-9" d="M225.08,374.09c.06-.11,1.44.17,1.64-.2.34-.65-.78-1.4.9-2.67,1.34-1.01,7.03-2.87,7.3-3.31.62-1-.2-3.41.17-3.8.34-.37,7.82-.29,9.93-1.57.23-.14,3.68-3.45,3.81-3.69,1.5-2.7-2.24-5.03,4.24-2.77v-4.99s7,2.99,7,2.99c-1.23-6.88,1.96-4.23,2.83-5.11.64-.66-.33-4.36,1.75-4.79,1.2-.24,3.63,1.69,5.25.74,1.86-1.09,5.1-9.83,5.68-9.81,4.63,5.49,5.13-5.57,5.56-5.96.38-.34,2.95.17,4.22-.26,1.82-.61,2.13-2.62,4.22-2.82.27-.03,1.76,3.79,4.51,3.02,0,.16,2.09,1.42.04,2.54s-5.42-.19-8.3,2.42c-1.54,1.39-5.43,8.39-6.75,9.49-.89.74-2.91.66-3.58,1.49-.62.77,1.15,3.21.58,4.01-.15.21-2.42.41-3.38,1.16s-1.31,2.15-1.91,2.57c-1.51,1.04-4.35.81-5.79,2.77-1.67,2.27.22,4.05-.03,4.44-.23.35-2.4.4-2.81,1.72-.39,1.25,1.39,4.03.95,4.38-.33.27-2.58-.45-3.79.22-1.01.56-4,6.12-3.23,7.78-1.71.49-.52-2.2-1.45-1.98-.68.16-6.32,2.28-6.6,2.49-1.41,1.05.65,3.18-.34,4.53s-7.34,1.57-9.01,2.84c-1.37,1.04.71,3.34-2.59,5.12-.88.48-3.4.45-3.84,1.16-.47.76-.13,3.33-.61,4.88-1.47,4.78-4.4,1.21-5.52,1.97-.38.26-.73,5.25-2.53,5.98-3.21-5.61-4.09-4.07-8.5-.48l1.99,1.48c-3.12-.36-2.59,3.31-3.16,3.84-.53.5-10.16,1.9-11.88,1.62-1.45,12.82-4.18,4.77-8.31,5.47-.68.12-1.19,2.12-2.26,2.92-.94.7-8.15,5.3-8.63,5.5-2.41.97-4.49-.52-5.76.1-1.71.84-1.96,4.82-5,4.56-1.34-.97-2.9.14-2.98.01-.38-.65-.25-4.65-1.04-6.02-2.22-.37-4.31,2.99-4.59,3.01-.95.06-2.5-1.11-3.39-1,1.34-4.89,6.7-2.69,6.99-2.99.43-.44.54-5.91,1.18-6.84.79-1.15,3.85.02,4.88-.63.87-.55.13-2.17.9-3.08,2.56-3.02,13.28-12.99,16.55-8.49,2.26-6.04,1.57-4.19,5.96-6.29.56-.27.41-1.34,1.31-1.63.98-.32,2.91.21,3.21-.08.38-.36-.44-2.79.18-3.79.89-1.45,6.19-1.44,7.12-2.09,1.02-.71,1-2.49,2.36-2.93,1.46-.47,3.34.14,4.75-.31,2.05-.65.84-5.55,5.11-.88,1.63-.77,1.08-3.07,1.65-3.8.16-.2,1.83.82,2.38-.1.8-1.32.21-3.63.47-4.09Z"/>
  <path class="cls-9" d="M165.08,425.1v1.99s-2.99,0-2.99,0c.34-1.45,1.61-2.29,2.99-1.98Z"/>
  <path class="cls-60" d="M128.08,482.09c-1.6-.59-2.79-2.02-1-3,.02.16.93,2.86,1,3Z"/>
  <path class="cls-39" d="M286.08,127.09c.1-.6,4.29-10.53,4.62-11.04.61-.93,3.66-.7,2.37-2.96-.07-.13-2.28,1.31-2.97-.5,1.01-1.51,2.79-1.05,4.03-2.22,2-1.89,4.36-8.49,4.89-8.84.83-.56,2.97,1.49,4.58-.42,1.98-2.35-.17-5.95.93-8.02.16-.3,4.51-4.6,4.81-4.77,1.18-.67,3.43.06,3.74-.24.38-.37-.51-3.06.14-3.85.39-.47,3.12-.01,4.38-2.17.5-.85-.24-2.42.27-3.66.4-.96,3.16-6.81,3.45-7.07,2.91-2.57,8.49,1.73,10.74-2.74-1.42-3.05-4.52,1.07-4.97.5-1.61-2.07,1.58-1.91,1.83-2.18.62-.65-1.99-3.56.67-4.81l.49,3.98c1.45.25.5-.94,1.83-1.92.46-.34,2.02.32,2.24-.64.48-2.16-.39-9.4-3.07-9.94,6.29-2.46,2.74-2.16,3.62-5.52.49-1.89,3.41-4.85,3.42-6.48,0-.31-5.54-1.66.96-3.51l1.49,3c3.84-6.11,11.22.62,16.51-2.99,2.9,1.87,6.96,2.8,9,6-.4.27-.55,2.51-1.14,2.83-1.39.75-4.35-.48-5.93.6-.93.64-1.17,3.82-1.71,5.29-.38,1.02-2.07,2.32-2.07,2.79,0,.82,5.6,4.23,3.84,7.49l-3.98-5.01c-.28,2.9-2.57,9.05-4.12,11.48-1.09,1.71-3.53.42-3.65,2.01-.05.68,1.14,2.17.77,2.51-1.36,1.23-5.09-2.85-5.99-1.99-.11.1.05,1.95-.58,2.89-1.3,1.97-4.5,3.77-4.18,6.44.08.67,1.33,1.48,1.36,2.16.01.37-2.47,6.65-2.68,6.96-1,1.45-2.51,1.15-3.59,1.9-.7.48-.8,2.08-1.97,2.49-2.27.79-5.86-.19-8.37.17,3.13,4.8-3.06,5.39-4.44,8.02-1.72,3.3-.66,3.03-3.57,6.97-6.19-2.79-9.34,5.3-10.01,10l-3.49-6.98c-1.76,1.4-1.31,3.65-2.46,5.52s-4.24,2.92-4.76,3.74c-2.45,3.84,2.02,7.46-7.28,4.72Z"/>
  <path class="cls-8" d="M294.08,445.1c1.54,1.53-2.82,3.19-2.98,2.99-1-1.23,2.03-3.94,2.98-2.99Z"/>
  <path class="cls-43" d="M122.4,163.38c.87-1.01,3.75-3.08,4.66-.79-1.88,5.41-8.38,5.11-4.66.79Z"/>
  <path class="cls-43" d="M103.58,193.11c3.93,0-2.48,6.41-2.48,2.48,0-.18,2.3-2.48,2.48-2.48Z"/>
  <path class="cls-43" d="M118.08,175.09c-.72.67-3.98-.29-3.99-1.98,2.16-1.67,5.43.65,3.99,1.98Z"/>
  <path class="cls-36" d="M139.08,106.09c-2.4,1.34.5,4.43-.44,5.99-1.92,3.18-7.87.94-4.57,8.01-.37.47-3.35-5.06-8.35-1.84-1.82,1.17-1.61,4.54-5.62,5.33l2.97,5.5c-1.8.45-2.24-1.28-3.67-1.68-.95-.26-2.23.76-2.33.68-.15-.12.26-1.37-.15-1.77l-1.81.76-1.03-4.99c1.79-.74,2.99,1.98,3.5,1.98,1.21-.02,1.95-4.72,3.02-5.97,1.87-2.18,5.38-1.48,7.58-3.42,1.61-1.42,1.56-3.56,2.46-4.58,1-1.13,2.76-.7,3.55-1.67,2.38-2.91-1.75-3.91,4.89-2.35Z"/>
  <path class="cls-36" d="M151.08,88.09c5.4,3.33-.42,4.72,5,7.99-1.61.88-5.79-1.22-5.99-.99-.38.42-2.4,10.22-1,11-2.01,1.38-3.86-.63-4.5-.61-.94.03-1.88,1.54-2.5,1.62-.76-2.7,1.45-4.3,1.88-6.45.47-2.36-3.25-6.63,4.1-2.55-.84-2.57,3.04-4.32,3.08-4.62.24-2.02-2.23-5.02-1.98-5.3.31-.35,1.74.09,1.92-.09Z"/>
  <path class="cls-61" d="M214.08,31.09c-.75.75-4.05.46-2.98-2.48,1.24-3.45,4.3,1.17,2.98,2.48Z"/>
  <path class="cls-17" d="M21.08,190.1c-.27,1.36-3.11,3.81-3.99,2.99-1.54-1.45,2.27-3.26,3.99-2.99Z"/>
  <path class="cls-10" d="M313.08,254.09c.77-1.97,1.1-4.12,2-6,3.37.23.51,8.68-2,6Z"/>
  <path class="cls-10" d="M318.08,244.09c-.43,3.56-1.3,1.41-2,2,.14-1.64-.2-3.38,0-5l2,3Z"/>
  <path class="cls-3" d="M311.08,271.09c-.49.62,1.2,3.09-1.97.99.24,3.44-1.92,4.64-5.03,5.01.93-2.73,3.85-8.36,7-6Z"/>
  <path class="cls-3" d="M295.08,288.09l1,5.99c-.55.48-3.06-1.09-4-.99-.64-3.25,1.62-3.56,3-5Z"/>
  <path class="cls-64" d="M112.08,340.09c3.22-2.06,8.29.03,5.99,3.99-1.71.43-.64-1.53-1.07-1.86-.25-.19-4.66,2.02-5.92-1.13.3-.36.69-.65,1-1Z"/>
  <path class="cls-2" d="M374.08,195.09c.53,2.01,3.31,1.41,2.99,2.99-1.93.41-4.1.54-5.99,1.01-2.35-3.09,1.92-3.13,3-4Z"/>
  <path class="cls-18" d="M383.08,212.09c7.89-1.04-1.57,8.55-2.51,9-.27.13-.51-4.33-3.49-4,1.56-1.51,3.45-2.51,6-5Z"/>
  <path class="cls-2" d="M386.07,196.09c1.37,2.4-2.24,1.94-3.98,3v-3c1.02.86,3.88-.17,3.98,0Z"/>
  <path class="cls-18" d="M376.08,219.09c2.67.95,2.72,3.41.5,4.99l-.5-4.99Z"/>
  <path class="cls-27" d="M314.08,91.1v2.98c-1.84.25-2.92.04-3.99-1.49l3.99-1.49Z"/>
  <path class="cls-27" d="M296.09,112.08c-2.2-2.53,3.97-2.58,3.97-.49,0,1.54-3.41,1.14-3.97.49Z"/>
  <path class="cls-27" d="M301.58,106.11c1.5,0,1.5,2.96,0,2.96s-1.5-2.96,0-2.96Z"/>
</svg>